<svg xmlns="http://www.w3.org/2000/svg" xmlns:xlink="http://www.w3.org/1999/xlink" viewBox="0 0 765.92 226.76"><defs><style>.cls-1{fill:#fff;}.cls-2{fill:url(#linear-gradient);}.cls-3{fill:url(#linear-gradient-2);}</style><linearGradient id="linear-gradient" x1="-4.05" y1="-26.58" x2="205.6" y2="223.3" gradientUnits="userSpaceOnUse"><stop offset="0" stop-color="#7367f0"/><stop offset="0.99" stop-color="#948afc"/></linearGradient><linearGradient id="linear-gradient-2" x1="73.99" y1="50.57" x2="249.05" y2="463.28" xlink:href="#linear-gradient"/></defs><g id="Layer_2" data-name="Layer 2"><g id="Layer_1-2" data-name="Layer 1"><path class="cls-1" d="M278.13,161.33q-9.25,0-9.26-9.25V74.68q0-9.25,9.26-9.25h26.39q24.08,0,37.2,12.38t13.13,35.5q0,23-13.13,35.51t-37.2,12.51Zm8.16-14.42h17.14q33.18,0,33.19-33.6T303.43,79.85H286.29Z"/><path class="cls-1" d="M405.59,162.69a77,77,0,0,1-17.76-2,48.36,48.36,0,0,1-15-6.12,8.19,8.19,0,0,1-3.81-5,8.91,8.91,0,0,1,.48-5.65,6.61,6.61,0,0,1,3.67-3.67q2.52-1,5.78,1a46.51,46.51,0,0,0,12.65,5.17,58.72,58.72,0,0,0,14,1.63q10.74,0,15.64-3.6a11.11,11.11,0,0,0,4.9-9.32,9,9,0,0,0-3.47-7.48c-2.32-1.82-6.28-3.31-11.91-4.49l-15-3.13q-25.57-5.45-25.57-26.26A26.18,26.18,0,0,1,375,78.08a31,31,0,0,1,13.19-10.34,48.36,48.36,0,0,1,19.46-3.67,57.62,57.62,0,0,1,15.5,2,44.9,44.9,0,0,1,13.2,6,7.39,7.39,0,0,1,3.26,4.69,7.75,7.75,0,0,1-.68,5.17A6.46,6.46,0,0,1,435,85.22c-1.77.59-3.84.21-6.19-1.15A38.38,38.38,0,0,0,418.64,80a48,48,0,0,0-11.15-1.23q-9.39,0-14.69,3.95A12.28,12.28,0,0,0,387.49,93a10,10,0,0,0,3.27,7.83q3.25,2.92,11.15,4.55l14.83,3.13q13.47,2.86,20.06,9t6.6,16.32a25.46,25.46,0,0,1-4.62,15.1,29.87,29.87,0,0,1-13.13,10.14A51.23,51.23,0,0,1,405.59,162.69Z"/><path class="cls-1" d="M458.64,162.42c-3.18,0-5.44-1.09-6.8-3.26s-1.32-4.81.13-7.89l35.92-79.58A13,13,0,0,1,492.17,66a10.1,10.1,0,0,1,5.78-1.7A9.89,9.89,0,0,1,503.6,66a13.11,13.11,0,0,1,4.28,5.65l36,79.58q2.18,4.75.27,7.95t-6.53,3.2a8.66,8.66,0,0,1-5.91-1.84,15.36,15.36,0,0,1-3.75-5.64l-6.8-15.78H474.42l-6.67,15.78a17.73,17.73,0,0,1-3.67,5.71A7.69,7.69,0,0,1,458.64,162.42Zm39-78.08L480.4,125.28h34.83L498,84.34Z"/><circle class="cls-1" cx="568.39" cy="153.38" r="8.58"/><path class="cls-1" d="M631.26,162.69q-13.87,0-24.29-6.12a41.61,41.61,0,0,1-16.12-17.21q-5.7-11.09-5.71-26.05t5.71-26.12a41.43,41.43,0,0,1,16.06-17.07q10.33-6,24.35-6.05t24.35,6.05a41.47,41.47,0,0,1,16,17.07q5.72,11,5.71,26t-5.71,26.18a41.71,41.71,0,0,1-16,17.21Q645.26,162.69,631.26,162.69Zm0-15q13.18,0,20.54-9.11t7.34-25.31q0-16.32-7.28-25.3t-20.6-9q-13.2,0-20.54,9t-7.35,25.3q0,16.2,7.35,25.31T631.26,147.73Z"/><path class="cls-1" d="M728.11,162.69a76.88,76.88,0,0,1-17.75-2,48.52,48.52,0,0,1-15-6.12,8.17,8.17,0,0,1-3.8-5,8.84,8.84,0,0,1,.47-5.65,6.64,6.64,0,0,1,3.67-3.67q2.52-1,5.79,1a46.38,46.38,0,0,0,12.65,5.17,58.58,58.58,0,0,0,14,1.63q10.74,0,15.64-3.6a11.08,11.08,0,0,0,4.9-9.32,9,9,0,0,0-3.47-7.48q-3.46-2.73-11.9-4.49l-15-3.13q-25.57-5.45-25.57-26.26a26.25,26.25,0,0,1,4.76-15.64,30.94,30.94,0,0,1,13.2-10.34,48.27,48.27,0,0,1,19.45-3.67,57.74,57.74,0,0,1,15.51,2,45,45,0,0,1,13.19,6,7.45,7.45,0,0,1,3.27,4.69,7.81,7.81,0,0,1-.68,5.17,6.48,6.48,0,0,1-3.88,3.26q-2.65.89-6.19-1.15A38.45,38.45,0,0,0,741.17,80,48.19,48.19,0,0,0,730,78.76q-9.37,0-14.69,3.95A12.27,12.27,0,0,0,710,93a10,10,0,0,0,3.26,7.83q3.27,2.92,11.16,4.55l14.82,3.13q13.47,2.86,20.07,9t6.59,16.32A25.46,25.46,0,0,1,761.3,149a29.82,29.82,0,0,1-13.13,10.14A51.19,51.19,0,0,1,728.11,162.69Z"/><rect class="cls-2" width="226.76" height="226.76" rx="59.72"/><path class="cls-3" d="M113.26,53.81H77.58a4.74,4.74,0,1,0,0,9.48H98.15L95.63,75.63H62.32a4.74,4.74,0,0,0,0,9.48H93.7v0h15c16.17,0,24.85,7.83,24.85,21.61,0,19.58-11.4,34.9-32.68,34.9H82.19v0H62.32a4.74,4.74,0,1,0,0,9.47H80.26l-2.51,12.34H47.06a4.74,4.74,0,0,0,0,9.48H99.47C142.88,173,174,146.4,174,104.36,174,73,150.88,53.81,113.26,53.81Z"/><path class="cls-1" d="M123.68,53.81H88a4.74,4.74,0,1,0,0,9.48h20.56l-2.51,12.34H72.74a4.74,4.74,0,0,0,0,9.48h31.38v0h15c16.17,0,24.85,7.83,24.85,21.61,0,19.58-11.4,34.9-32.68,34.9H92.61v0H72.74a4.74,4.74,0,1,0,0,9.47H90.68l-2.52,12.34H57.48a4.74,4.74,0,0,0,0,9.48h52.41c43.4,0,74.55-26.55,74.55-68.59C184.44,73,161.29,53.81,123.68,53.81Z"/></g></g></svg>