<?xml version="1.0" standalone="no"?>
<!DOCTYPE svg PUBLIC "-//W3C//DTD SVG 20010904//EN"
 "http://www.w3.org/TR/2001/REC-SVG-20010904/DTD/svg10.dtd">
<svg version="1.0" xmlns="http://www.w3.org/2000/svg"
 width="825.000000pt" height="450.000000pt" viewBox="0 0 825.000000 450.000000"
 preserveAspectRatio="xMidYMid meet">

<g transform="translate(0.000000,450.000000) scale(0.100000,-0.100000)"
fill="#000000" stroke="none">
<path d="M0 2250 l0 -2250 4125 0 4125 0 0 2250 0 2250 -4125 0 -4125 0 0
-2250z m7100 2006 c28 -35 -11 -93 -47 -70 -36 22 -23 84 17 84 10 0 23 -7 30
-14z m-6908 -53 c23 -21 23 -60 0 -72 -51 -27 -96 35 -52 71 27 22 29 22 52 1z
m3363 -1401 c23 -16 50 -49 67 -81 l28 -53 -50 -45 c-58 -52 -105 -142 -115
-223 -4 -30 -11 -57 -14 -60 -4 -3 -1 -194 7 -426 14 -400 12 -508 -9 -459 -5
11 -43 155 -84 320 -42 165 -79 309 -82 320 -3 14 -2 17 5 10 6 -5 45 -145 87
-310 42 -165 79 -302 82 -305 2 -2 1 47 -2 110 -7 150 -25 632 -25 691 l0 46
-45 13 c-51 14 -106 68 -136 134 -24 52 -25 150 -3 208 21 53 88 125 129 138
48 15 116 3 160 -28z m-2251 -252 c4 -30 3 -35 -2 -15 -8 32 -12 33 -54 21
-30 -9 -33 -19 -19 -78 9 -38 0 -58 -26 -58 -18 0 -16 27 3 38 13 7 14 17 6
61 l-10 53 42 18 c22 10 44 15 48 11 4 -3 9 -26 12 -51z m14 -67 c-4 -23 -48
-31 -48 -10 0 9 6 18 13 20 25 11 38 7 35 -10z m-220 -129 c55 -111 56 -116
38 -130 -18 -12 -21 -11 -37 16 -30 48 -56 48 -171 -4 -76 -34 -104 -43 -110
-33 -13 21 -9 26 45 53 96 49 134 80 141 117 4 19 2 46 -3 60 -10 26 -4 34 27
36 6 1 38 -51 70 -115z m1874 38 c-7 -110 63 -232 158 -276 38 -18 45 -25 37
-38 -10 -15 10 -76 204 -632 27 -77 49 -144 49 -150 0 -33 -30 46 -138 359
-67 193 -126 365 -133 383 -9 26 -15 31 -31 26 -32 -10 -104 16 -148 53 -80
69 -111 182 -71 260 18 36 54 73 71 73 3 0 4 -26 2 -58z m-1522 14 c0 -6 -15
-11 -34 -11 -28 0 -33 3 -25 16 9 18 59 14 59 -5z m-80 -56 c0 -5 -4 -10 -9
-10 -6 0 -13 5 -16 10 -3 6 1 10 9 10 9 0 16 -4 16 -10z m58 -1 c-2 -6 -8 -10
-13 -10 -5 0 -11 4 -13 10 -2 6 4 11 13 11 9 0 15 -5 13 -11z m3752 -54 c89
-46 104 -166 29 -229 -90 -76 -224 -13 -224 105 0 101 107 169 195 124z
m-4175 -141 c0 -26 -8 -33 -86 -73 -74 -37 -90 -41 -108 -31 -17 9 -21 19 -19
43 3 29 11 36 87 75 76 38 86 41 105 28 13 -8 21 -24 21 -42z m-347 4 c-2 -18
-22 -32 -81 -61 -43 -20 -83 -35 -88 -32 -24 15 -3 38 69 74 90 47 105 49 100
19z m-370 -2 c119 -62 119 -242 -1 -296 -54 -25 -98 -25 -148 0 -114 59 -114
228 0 287 50 26 109 30 149 9z m7521 -48 c-1 -19 -3 -25 -6 -15 -4 15 -12 18
-34 15 -19 -3 -29 0 -29 8 0 7 12 15 28 17 15 2 30 5 35 6 4 0 6 -14 6 -31z
m-4174 -10 c-3 -13 -30 -151 -60 -308 -56 -290 -62 -316 -70 -308 -2 2 22 143
55 313 33 169 60 312 60 317 0 4 5 8 10 8 6 0 8 -10 5 -22z m-10 -297 c-30
-156 -57 -286 -60 -289 -11 -12 -3 44 45 293 58 298 62 316 67 295 2 -9 -21
-143 -52 -299z m4107 227 c-6 -6 -16 -7 -23 -3 -9 6 -7 12 7 22 21 15 34 -1
16 -19z m68 17 c0 -8 -7 -15 -15 -15 -8 0 -15 7 -15 15 0 8 7 15 15 15 8 0 15
-7 15 -15z m110 -25 c12 -8 9 -10 -12 -10 -16 0 -28 5 -28 10 0 13 20 13 40 0z
m-2707 -21 c70 -17 103 -70 85 -136 -12 -46 -158 -363 -167 -363 -13 1 -164
344 -168 384 -7 61 25 95 109 117 34 9 70 15 78 13 8 -2 36 -8 63 -15z m1837
-14 c0 -8 -4 -17 -10 -20 -6 -4 -10 5 -10 20 0 15 4 24 10 20 6 -3 10 -12 10
-20z m-2461 -30 c51 -16 111 -61 111 -84 0 -21 -56 -69 -100 -86 -59 -24 -289
-33 -369 -15 -157 35 -198 111 -88 164 28 14 77 30 107 35 78 14 274 6 339
-14z m3321 15 c0 -5 -4 -10 -10 -10 -5 0 -10 5 -10 10 0 6 5 10 10 10 6 0 10
-4 10 -10z m-316 -121 c87 -69 69 -203 -32 -239 -37 -13 -47 -13 -84 0 -86 30
-118 142 -61 210 32 38 55 49 109 49 27 1 50 -6 68 -20z m-4835 -215 c28 -6
31 -10 31 -45 0 -60 38 -285 61 -364 11 -38 33 -110 49 -160 16 -49 28 -90 27
-92 -2 -1 -22 8 -45 20 -41 20 -44 21 -70 4 -82 -54 -124 -57 -190 -12 -42 28
-70 31 -98 10 -33 -25 -34 -17 -3 57 38 92 65 181 78 255 8 45 41 310 41 329
0 6 84 5 119 -2z m-1247 -149 c16 -36 -3 -75 -37 -75 -18 0 -26 7 -31 26 -15
60 44 102 68 49z m146 13 c27 -27 11 -88 -23 -88 -24 0 -35 17 -35 54 0 24 17
46 35 46 6 0 16 -5 23 -12z m174 -13 c15 -33 -3 -75 -32 -75 -12 0 -25 10 -32
25 -15 33 3 75 32 75 12 0 25 -10 32 -25z m1734 -42 c-2 -10 -8 -37 -11 -60
-4 -24 -11 -43 -17 -43 -6 0 -8 6 -5 14 3 7 9 34 12 60 4 25 12 46 17 46 5 0
7 -8 4 -17z m1584 -2 c0 -11 -4 -22 -8 -25 -14 -9 -35 12 -29 28 9 23 37 20
37 -3z m-3500 -151 c0 -94 1 -100 21 -100 15 0 19 5 14 19 -7 22 16 44 39 35
9 -3 16 -17 16 -30 0 -17 6 -24 20 -24 11 0 23 7 26 15 4 8 11 15 16 15 7 0 6
-5 -1 -14 -9 -11 -6 -13 14 -13 20 0 25 5 25 24 0 13 7 26 15 29 20 8 47 -15
41 -33 -3 -8 1 -16 9 -19 10 -4 15 -20 15 -50 0 -49 -12 -55 -45 -24 l-22 20
-18 -20 c-23 -25 -75 -26 -105 -2 -23 18 -24 18 -42 0 -24 -24 -76 -23 -103 2
l-22 20 -18 -20 c-24 -27 -82 -27 -110 0 l-22 20 -18 -20 c-30 -33 -45 -25
-45 25 0 25 5 45 10 45 6 0 10 11 10 25 0 14 7 28 15 31 20 8 46 -14 43 -35
-2 -13 8 -17 51 -19 43 -2 52 0 48 12 -3 8 0 22 7 32 18 24 46 11 46 -21 0
-18 5 -25 20 -25 19 0 20 7 20 100 0 82 3 100 15 100 12 0 15 -18 15 -100z
m-160 76 c0 -2 -7 -6 -15 -10 -8 -3 -15 -1 -15 4 0 6 7 10 15 10 8 0 15 -2 15
-4z m320 -6 c-20 -13 -33 -13 -25 0 3 6 14 10 23 10 15 0 15 -2 2 -10z m-320
-24 c0 -2 -7 -6 -15 -10 -8 -3 -15 -1 -15 4 0 6 7 10 15 10 8 0 15 -2 15 -4z
m330 0 c0 -2 -7 -6 -15 -10 -8 -3 -15 -1 -15 4 0 6 7 10 15 10 8 0 15 -2 15
-4z m1667 -33 c-3 -10 -5 -4 -5 12 0 17 2 24 5 18 2 -7 2 -21 0 -30z m-1997 3
c0 -2 -7 -7 -16 -10 -8 -3 -12 -2 -9 4 6 10 25 14 25 6z m315 -6 c-3 -5 -11
-10 -16 -10 -6 0 -7 5 -4 10 3 6 11 10 16 10 6 0 7 -4 4 -10z m-315 -24 c0 -2
-7 -6 -15 -10 -8 -3 -15 -1 -15 4 0 6 7 10 15 10 8 0 15 -2 15 -4z m315 -6
c-3 -5 -11 -10 -16 -10 -6 0 -7 5 -4 10 3 6 11 10 16 10 6 0 7 -4 4 -10z
m-315 -24 c0 -2 -7 -6 -15 -10 -8 -3 -15 -1 -15 4 0 6 7 10 15 10 8 0 15 -2
15 -4z m315 -6 c-3 -5 -11 -10 -16 -10 -6 0 -7 5 -4 10 3 6 11 10 16 10 6 0 7
-4 4 -10z m-318 -26 c-3 -3 -12 -4 -19 -1 -8 3 -5 6 6 6 11 1 17 -2 13 -5z
m433 -189 c0 -16 -572 -13 -578 3 -3 10 56 12 287 10 186 -2 291 -7 291 -13z
m-661 -59 c6 -8 10 -20 9 -27 -2 -8 11 -12 42 -13 39 0 45 3 50 25 8 32 42 32
50 0 5 -21 11 -24 55 -24 39 0 49 4 47 15 -3 21 22 40 42 32 9 -3 16 -16 16
-28 0 -19 5 -22 50 -21 44 0 50 2 50 21 0 12 7 25 16 28 21 8 44 -11 44 -34 0
-12 6 -17 18 -15 9 2 31 4 49 4 25 1 32 6 35 24 4 31 40 30 48 -2 5 -22 11
-25 55 -25 41 -1 50 2 47 15 -3 22 21 41 42 33 9 -3 16 -16 16 -29 0 -13 7
-25 15 -29 22 -8 22 -136 0 -136 -23 0 -72 27 -78 42 -3 9 -11 7 -28 -9 -34
-31 -71 -38 -107 -19 -17 9 -32 21 -35 28 -3 9 -11 7 -28 -9 -45 -41 -91 -40
-135 4 -13 13 -19 14 -22 5 -5 -16 -55 -42 -81 -42 -11 0 -34 12 -51 27 -18
15 -35 22 -38 17 -14 -20 -57 -44 -78 -44 -13 0 -36 11 -52 25 l-29 24 -34
-25 c-19 -13 -43 -23 -54 -22 -17 3 -20 12 -23 66 -2 49 0 64 13 68 8 3 15 16
15 28 0 37 27 49 49 22z m1559 -233 l-3 -108 -164 0 c-123 0 -165 3 -168 13
-4 9 30 12 147 12 l151 0 -3 93 -3 92 -170 5 c-93 3 -163 8 -155 12 28 14 354
14 363 1 4 -7 6 -61 5 -120z m-87 46 c8 -16 8 -28 0 -46 -9 -20 -17 -24 -44
-21 -27 2 -33 8 -35 31 -2 16 2 35 9 43 17 21 57 17 70 -7z m-153 -73 c5 -24
-10 -38 -31 -30 -20 7 -22 25 -5 42 16 16 32 10 36 -12z m-1468 -71 c0 -11 12
-15 45 -15 38 0 45 3 45 20 0 15 7 20 25 20 18 0 25 -5 25 -20 0 -17 7 -20 49
-20 40 0 50 3 54 20 3 14 14 20 31 20 19 0 26 -5 26 -20 0 -17 7 -20 50 -20
34 0 50 4 50 13 0 7 5 18 12 25 14 14 48 -2 48 -23 0 -11 13 -15 51 -15 28 0
48 4 44 9 -3 5 2 16 10 25 23 23 51 8 46 -26 0 -3 22 -8 49 -10 42 -2 50 0 50
14 0 23 33 41 48 26 7 -7 12 -18 12 -25 0 -9 15 -13 48 -13 39 0 49 4 57 23 6
12 17 22 25 22 8 0 19 -10 25 -22 5 -13 18 -23 27 -24 69 -4 73 -3 76 19 4 29
52 32 52 4 0 -11 9 -27 20 -37 27 -25 29 -134 3 -158 -41 -37 -127 -28 -158
15 l-14 21 -27 -26 c-35 -35 -82 -43 -127 -22 -20 9 -38 24 -42 32 -5 13 -11
11 -35 -12 -25 -24 -39 -29 -80 -29 -41 0 -55 5 -80 29 -24 23 -30 25 -35 12
-4 -8 -22 -23 -42 -32 -44 -21 -88 -14 -124 21 l-27 25 -25 -25 c-46 -46 -125
-42 -167 9 -12 14 -16 13 -42 -12 -39 -38 -104 -39 -142 -4 -22 21 -26 33 -26
82 0 38 5 61 15 69 8 7 15 23 15 35 0 13 6 25 13 28 18 6 47 -11 47 -28z
m3998 -94 c8 -1 12 -17 12 -46 l0 -45 -119 0 c-121 0 -148 8 -120 35 19 19
156 61 188 59 14 -2 32 -3 39 -3z m209 -26 c55 -18 79 -37 68 -55 -4 -6 -52
-10 -121 -10 l-114 0 0 44 c0 41 2 45 28 48 32 4 68 -3 139 -27z m-3087 -195
c0 -20 -7 -20 -605 -20 -598 0 -605 0 -605 20 0 20 7 20 605 20 598 0 605 0
605 -20z m0 -80 c0 -20 -7 -20 -605 -20 -598 0 -605 0 -605 20 0 20 7 20 605
20 598 0 605 0 605 -20z"/>
<path d="M888 2153 c-63 -29 -78 -41 -78 -59 0 -35 22 -35 101 4 61 31 74 41
74 61 0 13 -4 26 -10 28 -5 1 -45 -14 -87 -34z"/>
</g>
</svg>
