<svg width="30" height="29" viewBox="0 0 30 29" fill="none" xmlns="http://www.w3.org/2000/svg">
<g clip-path="url(#clip0_535_1863)">
<path d="M29.9412 13.2803C29.8508 12.2654 29.6525 11.2621 29.3497 10.2865C29.2018 9.80558 28.8215 9.57163 28.3843 9.69201C27.9623 9.80899 27.7675 10.2195 27.9148 10.6999C28.1287 11.3758 28.283 12.0681 28.376 12.7692C28.8708 16.7078 27.8173 20.2256 25.0778 23.1608C21.7789 26.6979 17.6074 28.0954 12.7346 27.3538C9.50147 26.8615 6.79773 25.3584 4.71079 22.928C1.88322 19.6345 0.875556 15.835 1.85447 11.6534C2.86624 7.33431 5.54534 4.2543 9.74973 2.48716C12.7293 1.23449 15.8075 1.11922 18.9244 2.0062C19.0635 2.04538 19.2037 2.08966 19.3546 2.06638C19.5206 2.04649 19.6748 1.97281 19.792 1.85733C19.9092 1.74185 19.9826 1.59136 20.0001 1.43039C20.0371 1.06129 19.8505 0.777372 19.4631 0.65642C18.2198 0.263202 16.9248 0.0438809 15.6173 0.00510013C11.4793 -0.108469 7.86056 1.17315 4.81056 3.88406C0.363205 7.83742 -1.21315 14.1155 0.981774 19.5436C3.10275 24.7882 7.11054 27.8768 12.8543 28.8433C13.163 28.8949 13.487 28.8654 13.7816 28.9983H14.0163C14.0292 28.9279 14.0821 28.9415 14.1302 28.9494C14.1965 28.9421 14.2663 28.9233 14.3092 28.9983H14.5439C14.5923 28.9564 14.655 28.9332 14.72 28.9332C14.785 28.9332 14.8476 28.9564 14.8961 28.9983H15.1308C15.1492 28.9782 15.1718 28.9621 15.1971 28.9511C15.2224 28.9401 15.2498 28.9344 15.2775 28.9344C15.3053 28.9344 15.3327 28.9401 15.358 28.9511C15.3833 28.9621 15.4059 28.9782 15.4242 28.9983H15.7177C15.7412 28.9415 15.7869 28.9415 15.8351 28.95C15.8838 28.9432 15.9348 28.9301 15.9524 28.9983H16.1285C16.4436 28.9415 16.7653 28.9619 17.0816 28.9245C18.1651 28.7869 19.2286 28.5285 20.2507 28.1545C22.6364 27.3061 24.6617 25.9399 26.336 24.108C28.1301 22.1427 29.2734 19.8537 29.7986 17.2762C29.9101 16.7305 29.9383 16.1774 30.0052 15.6294V15.3455C29.9336 15.3319 29.9465 15.2819 29.9559 15.2348C29.9465 15.1859 29.9471 15.1411 30.0052 15.1212V14.7805C29.9597 14.6923 29.9361 14.5951 29.9361 14.4966C29.9361 14.398 29.9597 14.3008 30.0052 14.2127V13.9287C29.9465 13.9054 29.9465 13.8617 29.9559 13.8152C29.95 13.7692 29.9395 13.7209 30.0052 13.705V13.4211C29.9201 13.3978 29.9477 13.3314 29.9412 13.2803Z" fill="#FEFEFE"/>
<path d="M29.9994 14.7805V14.2126C29.9497 14.3989 29.9497 14.5943 29.9994 14.7805Z" fill="#FEFEFE"/>
<path d="M14.5422 29.0006H14.8944C14.8388 28.9774 14.7788 28.9654 14.7183 28.9654C14.6578 28.9654 14.5978 28.9774 14.5422 29.0006Z" fill="#FEFEFE"/>
<path d="M15.1274 29.0006H15.4209C15.3756 28.9776 15.3253 28.9655 15.2742 28.9655C15.223 28.9655 15.1727 28.9776 15.1274 29.0006Z" fill="#FEFEFE"/>
<path d="M14.1436 28.971H14.1301C14.131 28.9806 14.131 28.9903 14.1301 29H14.3062C14.2598 28.9546 14.1994 28.9773 14.1436 28.971Z" fill="#FEFEFE"/>
<path d="M29.9994 13.8174V13.7039C29.9642 13.7345 29.9707 13.776 29.9695 13.8174H29.9994Z" fill="#FEFEFE"/>
<path d="M29.9694 13.8345C29.9664 13.8517 29.9675 13.8694 29.9727 13.8861C29.9779 13.9029 29.987 13.9182 29.9993 13.931V13.8174C29.9888 13.8328 29.9788 13.8379 29.9694 13.8345Z" fill="#FEFEFE"/>
<path d="M29.9696 13.8345V13.8157H29.9502C29.9541 13.8241 29.961 13.8307 29.9696 13.8345Z" fill="#FEFEFE"/>
<path d="M29.9695 15.2354H29.9994V15.1218C29.9636 15.1531 29.9707 15.1951 29.9695 15.2354Z" fill="#FEFEFE"/>
<path d="M29.9696 15.2512C29.9667 15.2684 29.9678 15.286 29.973 15.3026C29.9782 15.3192 29.9873 15.3345 29.9995 15.3472V15.2336C29.9901 15.249 29.9801 15.2541 29.9696 15.2512Z" fill="#FEFEFE"/>
<path d="M29.9696 15.2354H29.9502C29.9549 15.2421 29.9617 15.2473 29.9696 15.2501V15.2354Z" fill="#FEFEFE"/>
<path d="M14.112 28.9716C14.0946 28.9689 14.0768 28.97 14.06 28.9751C14.0432 28.9801 14.0279 28.9888 14.0151 29.0006H14.1325C14.1155 28.9915 14.109 28.9818 14.112 28.9716Z" fill="#FEFEFE"/>
<path d="M14.1125 28.9688H14.1307C14.1307 28.9619 14.1307 28.9551 14.1307 28.9489C14.1307 28.9426 14.1178 28.9602 14.1125 28.9688Z" fill="#FEFEFE"/>
<path d="M15.8298 28.971C15.7887 28.971 15.7453 28.9654 15.7124 29.0006H15.8298C15.8292 28.9907 15.8292 28.9809 15.8298 28.971Z" fill="#FEFEFE"/>
<path d="M15.8485 28.9853C15.8421 28.9955 15.8362 29.0006 15.8303 29.0006H15.9477C15.9348 28.989 15.9193 28.9804 15.9024 28.9753C15.8855 28.9703 15.8677 28.9691 15.8503 28.9716C15.8512 28.9739 15.8514 28.9763 15.8511 28.9787C15.8508 28.981 15.8499 28.9833 15.8485 28.9853Z" fill="#FEFEFE"/>
<path d="M15.8498 28.9716C15.8466 28.9635 15.8406 28.9567 15.8328 28.9523C15.8328 28.9586 15.8328 28.9648 15.8328 28.9711L15.8498 28.9716Z" fill="#FEFEFE"/>
<path d="M16.3557 5.51892C16.5206 5.28724 16.5195 5.03966 16.3892 4.79548C16.2301 4.49736 15.9578 4.37925 15.6262 4.35881C14.7295 4.30407 13.8292 4.3646 12.9489 4.53882C7.45221 5.62908 3.81826 10.7744 4.75903 16.1292C5.6147 21.0007 9.94879 24.5549 15.1057 24.5674C15.6142 24.5631 16.1219 24.5251 16.6251 24.4538C20.8718 23.8093 24.224 20.8236 25.2334 16.7879C25.4774 15.8141 25.5622 14.8093 25.4846 13.8101C25.4471 13.3166 25.0967 13.0037 24.6565 13.0509C24.2 13.0997 23.9288 13.4574 23.991 13.9452C24.0656 14.5318 24.0116 15.1133 23.9253 15.6936C23.2292 20.4068 18.6921 23.7003 13.8239 23.037C11.8487 22.7695 10.0221 21.8719 8.63344 20.4866C7.24482 19.1012 6.37353 17.3072 6.15755 15.3887C5.71387 11.5324 8.00035 7.83631 11.7247 6.4042C12.9818 5.92096 14.2852 5.68928 15.6433 5.81818C15.9367 5.84543 16.1844 5.76026 16.3557 5.51892Z" fill="#FEFEFE"/>
<path d="M19.5343 6.67224C19.5426 7.39908 19.5343 8.12592 19.5408 8.85277C19.5451 8.93134 19.5313 9.00985 19.5002 9.08256C19.4691 9.15527 19.4216 9.22034 19.3612 9.27299C18.5619 10.0345 17.772 10.8062 16.9785 11.5722C16.185 12.3382 15.3904 13.1054 14.5993 13.8754C14.2877 14.1786 14.2243 14.483 14.3939 14.7936C14.648 15.257 15.222 15.312 15.6486 14.9009C16.9762 13.6229 18.3011 12.3422 19.6236 11.0589C19.9475 10.7454 20.2257 10.3173 20.6212 10.1622C21.0168 10.0072 21.5233 10.1282 21.981 10.1282V10.1162C22.3619 10.1162 22.744 10.1094 23.1225 10.1162C23.2683 10.123 23.4139 10.099 23.5492 10.046C23.6844 9.99293 23.8062 9.91209 23.906 9.80903C25.3294 8.42272 26.7574 7.04096 28.1902 5.66374C28.4567 5.40764 28.5893 5.12429 28.4402 4.77392C28.2912 4.42356 27.9971 4.3293 27.6344 4.33384C27.01 4.34122 26.3856 4.32872 25.7617 4.34008C25.5721 4.34292 25.5082 4.29579 25.5117 4.105C25.524 3.5008 25.5117 2.89662 25.5187 2.29243C25.5234 1.93014 25.4143 1.63372 25.0428 1.49744C24.6907 1.36854 24.4066 1.49232 24.149 1.74274C22.7252 3.12829 21.2971 4.51006 19.8648 5.88803C19.7546 5.98806 19.6681 6.10991 19.6111 6.24524C19.5541 6.38058 19.5279 6.52622 19.5343 6.67224ZM21.0338 8.4479C21.0444 7.95785 21.0391 7.46723 21.0338 6.97718C21.0286 6.92643 21.035 6.87519 21.0526 6.82711C21.0701 6.77902 21.0984 6.73525 21.1354 6.69892C22.082 5.79037 23.0239 4.87329 24.0222 3.90625C24.0222 4.31794 24.0187 4.6541 24.0222 4.99026C24.0275 5.4894 24.3203 5.76879 24.8438 5.77731C25.0199 5.77731 25.196 5.77731 25.372 5.77731H25.8703C25.9131 5.88009 25.8116 5.90962 25.7682 5.95505C24.8878 6.8108 24.0046 7.662 23.1272 8.51831C23.084 8.56756 23.03 8.60679 22.969 8.63313C22.9081 8.65947 22.8418 8.67224 22.7751 8.67049C22.2686 8.66084 21.7615 8.65686 21.2557 8.67049C21.0596 8.67731 21.0303 8.61201 21.0338 8.4479Z" fill="#FEFEFE"/>
<path d="M12.8984 10.6522C13.5412 10.3101 14.2611 10.126 14.9947 10.1162C15.4959 10.1054 15.821 9.7874 15.8058 9.3689C15.7905 8.9504 15.4448 8.66249 14.9489 8.66874C14.6271 8.67582 14.3063 8.70831 13.99 8.76585C10.9652 9.29168 8.85478 11.9606 9.10538 14.948C9.35421 17.9088 11.9547 20.2193 15.6784 20.2256C16.405 20.2256 17.6368 19.8355 18.7067 19.0212C20.2056 17.8798 20.9738 16.3699 21.0325 14.5261C21.0466 14.0781 20.7555 13.7623 20.3359 13.7311C19.8587 13.6959 19.5553 14.0332 19.5295 14.6283C19.5064 15.2164 19.3592 15.7936 19.0971 16.3246C18.8349 16.8556 18.4633 17.3292 18.005 17.7161C17.5467 18.103 17.0115 18.3952 16.4323 18.5746C15.853 18.754 15.242 18.8169 14.6367 18.7594C12.6941 18.5783 11.0749 17.1972 10.6823 15.3869C10.2703 13.4807 11.1553 11.5841 12.8984 10.6522Z" fill="#FEFEFE"/>
</g>
<defs>
<clipPath id="clip0_535_1863">
<rect width="30" height="29" fill="white"/>
</clipPath>
</defs>
</svg>
