<svg width="37" height="37" viewBox="0 0 37 37" fill="none" xmlns="http://www.w3.org/2000/svg">
<path fill-rule="evenodd" clip-rule="evenodd" d="M18.9574 2.20288L32.7569 9.06519C33.0944 9.21566 33.2448 9.55317 33.2448 9.89067C32.8694 16.0402 31.2944 20.9902 28.8194 25.0402C26.3444 29.0902 23.0072 32.1657 19.0317 34.528C18.7322 34.715 18.3947 34.6785 18.1317 34.528C14.194 32.1655 10.8194 29.0902 8.34401 25.0402C5.90699 20.9524 4.33181 16.0024 3.95633 9.85251C3.91836 9.47703 4.14336 9.17751 4.44431 9.02703L18.206 2.20252C18.431 2.05205 18.732 2.09002 18.957 2.20252L18.9574 2.20288ZM19.9699 22.8651H17.1574C17.0449 22.8651 16.9703 22.8271 16.8578 22.8271C16.4078 22.6766 16.1828 22.1901 16.3333 21.7401L17.2333 19.1906C16.7833 18.9656 16.3713 18.5901 16.1083 18.1781C15.8088 17.7281 15.6203 17.1656 15.6203 16.6031C15.6203 15.7776 15.9578 15.066 16.4823 14.5401C17.0069 14.0156 17.7198 13.6781 18.5453 13.6781C19.3328 13.6781 20.0823 14.0156 20.6083 14.5401C21.1328 15.0646 21.4703 15.7776 21.4703 16.6031C21.4703 17.1656 21.2833 17.7281 21.0203 18.1781C20.7574 18.5901 20.3453 18.9656 19.8953 19.1906L20.7573 21.7035C20.7953 21.816 20.8319 21.9285 20.8319 22.041C20.8319 22.4896 20.4564 22.8651 19.9699 22.8651V22.8651Z" fill="#00E1F0"/>
</svg>
