<svg width="37" height="37" viewBox="0 0 37 37" fill="none" xmlns="http://www.w3.org/2000/svg">
<path d="M7.15466 26.448C7.52027 26.448 7.88027 26.3523 8.19808 26.1695C7.29387 25.119 7.29387 23.5637 8.19808 22.5134C7.62997 22.1885 6.9437 22.1463 6.34041 22.3994C5.73712 22.6512 5.28572 23.1701 5.11839 23.8015C4.95105 24.4343 5.08605 25.1079 5.48541 25.6268C5.88339 26.1443 6.50072 26.448 7.15462 26.448L7.15466 26.448Z" fill="#3734A9"/>
<path d="M9.26114 24.3416C9.26114 26.1852 8.22192 26.1852 8.22192 24.3416C8.22192 22.498 9.26114 22.498 9.26114 24.3416Z" fill="#3734A9"/>
<path d="M18.1936 23.0758H32.1155V25.607H18.1936V23.0758Z" fill="#3734A9"/>
<path d="M10.3284 26.4479C10.9837 26.4479 11.601 26.1456 12.0004 25.6267C12.3984 25.1078 12.5348 24.4342 12.3674 23.8014C12.1987 23.1686 11.7472 22.6496 11.1426 22.3979C10.5393 22.1462 9.85306 22.1884 9.28491 22.5132C10.1891 23.5637 10.1891 25.119 9.28491 26.1694C9.60272 26.3522 9.96272 26.4478 10.3283 26.4478L10.3284 26.4479Z" fill="#3734A9"/>
<path d="M2.19897 12.2153H34.9647V16.5058H2.19897V12.2153Z" fill="#3734A9"/>
<path d="M2.19897 29.8625H34.9647V17.2092H2.19897V29.8625ZM17.4907 22.7244C17.4907 22.5304 17.6482 22.3729 17.8423 22.3729H32.4673C32.5601 22.3729 32.6501 22.4094 32.7162 22.4755C32.7823 22.5416 32.8188 22.6316 32.8188 22.7244V25.9588C32.8188 26.0516 32.7823 26.1416 32.7162 26.2077C32.6501 26.2738 32.5601 26.3104 32.4673 26.3104H17.8423C17.6482 26.3104 17.4907 26.1529 17.4907 25.9588V22.7244ZM7.15473 21.5319C7.72145 21.5319 8.27552 21.7035 8.74097 22.0255C9.60158 21.4349 10.7182 21.3702 11.6407 21.8554C12.5632 22.3419 13.1411 23.2982 13.1411 24.3416C13.1411 25.385 12.5632 26.3413 11.6407 26.8278C10.7182 27.313 9.60158 27.2483 8.74237 26.6577H8.74096C8.00548 27.1625 7.07316 27.2877 6.23079 26.9938C5.38702 26.7013 4.73456 26.0249 4.47018 25.1727C4.2058 24.3191 4.3633 23.3924 4.89346 22.6738C5.42223 21.9566 6.26175 21.5319 7.1547 21.5319L7.15473 21.5319Z" fill="#3734A9"/>
<path d="M2.19897 6.86719V11.5119H34.9647V6.86719H2.19897ZM4.87788 9.33797H3.83867V8.63486H4.87788V9.33797ZM12.4012 9.33797H5.70876V8.63486H12.4012V9.33797Z" fill="#3734A9"/>
</svg>
