<svg width="41" height="41" viewBox="0 0 41 41" fill="none" xmlns="http://www.w3.org/2000/svg">
<path d="M35.3022 22.0056H24.9022C24.3819 22.0056 23.9819 21.6056 23.9819 21.0853V10.6853C23.9819 10.165 23.5413 9.72595 23.0226 9.76499C19.4226 10.0447 16.3022 11.8853 14.2226 14.6058C13.0226 13.9261 11.6226 13.5261 10.143 13.5261C5.42256 13.5261 1.62256 17.3668 1.62256 22.0465C1.62256 26.7263 5.4632 30.5669 10.143 30.5669C11.6633 30.5669 13.0633 30.1263 14.3022 29.4466C16.5428 32.3669 20.0226 34.2874 23.8614 34.3262C30.4206 34.4059 35.7818 29.4058 36.2614 23.0058C36.302 22.4449 35.8614 22.0058 35.302 22.0058L35.3022 22.0056ZM3.74144 22.0447C3.74144 18.5244 6.58208 15.6855 10.1006 15.6855C13.621 15.6855 16.4598 18.5261 16.4598 22.0447C16.4598 25.565 13.6192 28.4039 10.1006 28.4039C6.58188 28.4055 3.74144 25.5242 3.74144 22.0447Z" fill="#FF7F5C"/>
<path d="M28.2614 6.40568C27.741 6.36506 27.302 6.80568 27.302 7.326V17.726C27.302 18.2463 27.702 18.6463 28.2223 18.6463H38.6223C39.1426 18.6463 39.5817 18.2057 39.5426 17.687C39.102 11.6854 34.3018 6.88536 28.2614 6.40576L28.2614 6.40568Z" fill="#FF7F5C"/>
<path d="M10.4613 21.2445H9.78166C9.58166 21.2445 9.42228 21.1648 9.26134 21.0039C9.14102 20.8445 9.06134 20.6836 9.10196 20.4836C9.14259 20.1242 9.46134 19.8836 9.82228 19.8836H10.5816C10.7816 19.8836 10.941 20.0039 10.9816 20.2039C11.0223 20.3633 11.141 20.4836 11.341 20.4836H12.2207C12.341 20.4836 12.4207 20.4429 12.5004 20.3633C12.5801 20.2836 12.5801 20.2039 12.5801 20.0836C12.5004 19.1632 11.7801 18.4429 10.9004 18.3242V17.6039C10.9004 17.4039 10.741 17.2445 10.541 17.2445H9.66134C9.46134 17.2445 9.30196 17.4039 9.30196 17.6039V18.3648C8.18164 18.6054 7.38164 19.6445 7.50196 20.8054C7.62227 21.9648 8.62228 22.8461 9.82228 22.8461H10.3816C10.5816 22.8461 10.741 22.9258 10.902 23.0867C11.0223 23.2461 11.102 23.407 11.0613 23.607C11.0207 23.9664 10.702 24.207 10.341 24.207H9.58166C9.38166 24.207 9.22228 24.0867 9.18166 23.8867C9.14103 23.7273 9.02228 23.607 8.82228 23.607H7.9426C7.82229 23.607 7.7426 23.6477 7.66291 23.7273C7.58323 23.807 7.58322 23.8867 7.58322 24.007C7.66291 24.9273 8.38323 25.6477 9.26291 25.7664V26.4867C9.26291 26.6867 9.42228 26.8461 9.62228 26.8461H10.502C10.702 26.8461 10.8613 26.6867 10.8613 26.4867V25.7273C11.8207 25.4867 12.541 24.7273 12.6613 23.768C12.741 23.1273 12.502 22.4883 12.102 22.0086C11.702 21.5243 11.102 21.2445 10.4613 21.2445V21.2445Z" fill="#FF7F5C"/>
</svg>
