<svg width="28" height="30" viewBox="0 0 28 30" fill="none" xmlns="http://www.w3.org/2000/svg">
<path d="M14.5657 25.4997C14.5657 25.0827 14.3551 24.8268 14.0146 24.8185C13.6629 24.8094 13.4372 25.0728 13.4364 25.4997C13.4364 26.6405 13.4462 27.782 13.4304 28.9228C13.4251 29.2695 13.5255 29.5239 13.8312 29.6881H14.1701C14.4721 29.5231 14.577 29.2695 14.5717 28.9228C14.5559 27.782 14.5665 26.6405 14.5657 25.4997Z" fill="#FEFEFE" stroke="white" stroke-width="0.5"/>
<path d="M26.806 14.743C25.1785 12.5319 23.2219 10.6765 20.8637 9.26624C18.8459 8.06037 16.6757 7.32761 14.3099 7.26327C12.3691 7.21028 10.5212 7.62889 8.76086 8.43053C5.67193 9.83625 3.22842 12.0262 1.21216 14.7286C0.930589 15.1071 0.932094 15.2661 1.20762 15.6415C2.76417 17.7611 4.63324 19.5498 6.86464 20.9404C9.04395 22.2984 11.4022 23.0986 13.8351 23.119C15.6574 23.1145 17.2615 22.7852 18.7931 22.1425C22.1206 20.7459 24.7219 18.4454 26.8491 15.5666C27.0657 15.2721 27.0491 15.0768 26.806 14.743ZM25.6096 15.3584C23.8537 17.5681 21.8058 19.4272 19.2604 20.6876C15.5456 22.5263 11.8687 22.3908 8.24379 20.4279C5.93237 19.1759 4.04065 17.4303 2.41617 15.3758C2.31653 15.2509 2.28029 15.1631 2.39805 15.0148C4.31996 12.5992 6.58456 10.6167 9.43496 9.36465C10.8352 8.74998 12.4922 8.38965 14.47 8.38965C16.5081 8.40555 18.7531 9.23292 20.8297 10.5773C22.6739 11.7711 24.2334 13.2752 25.5907 14.9981C25.6866 15.1223 25.7258 15.2093 25.6073 15.3584H25.6096Z" fill="#FEFEFE" stroke="white" stroke-width="0.5"/>
<path d="M14.0072 5.55631C14.3393 5.55253 14.5628 5.29894 14.565 4.91136C14.565 4.31789 14.565 3.72365 14.565 3.13018C14.565 2.53671 14.565 1.94247 14.565 1.34824C14.565 0.943252 14.3386 0.684366 13.9951 0.688151C13.6516 0.691936 13.438 0.944769 13.4373 1.33234C13.4373 2.52939 13.4373 3.72643 13.4373 4.92347C13.438 5.3065 13.6713 5.5601 14.0072 5.55631Z" fill="#FEFEFE" stroke="white" stroke-width="0.5"/>
<path d="M5.23252 8.32611C5.28469 8.38041 5.34385 8.42751 5.40841 8.46616C5.49304 8.51805 5.59053 8.545 5.68972 8.54393C5.7889 8.54286 5.88578 8.5138 5.96927 8.4601C6.15799 8.35034 6.23121 8.17472 6.25084 7.97337C6.24284 7.82878 6.18493 7.69149 6.08704 7.58504C5.28386 6.7781 4.48747 5.96357 3.67145 5.16949C3.59938 5.09729 3.50886 5.04642 3.40983 5.02246C3.3108 4.99849 3.2071 5.00238 3.11013 5.03368C3.01316 5.06497 2.92666 5.12246 2.86015 5.19984C2.79365 5.27722 2.74971 5.37149 2.73316 5.47229C2.68711 5.69938 2.78448 5.87425 2.93848 6.02792C3.70241 6.79399 4.46708 7.56005 5.23252 8.32611Z" fill="#FEFEFE" stroke="white" stroke-width="0.5"/>
<path d="M22.3174 8.54635C22.4661 8.54116 22.6079 8.48167 22.716 8.37906C23.5146 7.58019 24.3118 6.7803 25.1074 5.97941C25.1776 5.91537 25.2292 5.83359 25.257 5.74261C25.2848 5.65164 25.2876 5.55485 25.2652 5.4624C25.2467 5.36424 25.2017 5.27303 25.1352 5.1987C25.0687 5.12436 24.9831 5.06974 24.8877 5.04076C24.6439 4.95749 24.4454 5.04076 24.2748 5.21184C23.695 5.79017 23.1163 6.37053 22.5386 6.9529C22.3257 7.16637 22.1091 7.37605 21.9045 7.59633C21.8228 7.67649 21.7692 7.78106 21.7518 7.89434C21.7344 8.00762 21.754 8.12352 21.8079 8.22463C21.9105 8.42675 22.0872 8.5244 22.3174 8.54635Z" fill="#FEFEFE" stroke="white" stroke-width="0.5"/>
<path d="M5.76381 22.4045C5.54943 22.3689 5.38109 22.4635 5.2354 22.6104C4.46493 23.3835 3.69445 24.1566 2.92398 24.9298C2.87728 24.9761 2.8367 25.0283 2.80321 25.0849C2.75057 25.1692 2.72266 25.2667 2.72266 25.3662C2.72266 25.4656 2.75057 25.5631 2.80321 25.6474C2.85189 25.7323 2.92141 25.8034 3.00516 25.8539C3.08892 25.9044 3.18414 25.9326 3.28181 25.9358C3.46421 25.9215 3.63415 25.8375 3.7566 25.7011C4.31294 25.1394 4.87307 24.5816 5.43092 24.0214C5.65738 23.7943 5.89364 23.5778 6.10048 23.3348C6.16903 23.2595 6.21575 23.1669 6.23555 23.0669C6.25534 22.9669 6.24747 22.8633 6.21279 22.7675C6.17811 22.6717 6.11794 22.5872 6.03879 22.5232C5.95965 22.4592 5.86456 22.4181 5.76381 22.4045Z" fill="#FEFEFE" stroke="white" stroke-width="0.5"/>
<path d="M22.7403 22.583C22.6273 22.4691 22.476 22.4016 22.316 22.3938C22.0805 22.4173 21.8986 22.5202 21.8042 22.7397C21.6986 22.985 21.7627 23.2045 21.9431 23.3862C22.7181 24.1679 23.4959 24.9476 24.2764 25.7253C24.5452 25.9917 24.8675 26.0023 25.1068 25.7737C25.3461 25.5451 25.3491 25.2022 25.0743 24.9229C24.2991 24.1386 23.5178 23.3627 22.7403 22.583Z" fill="#FEFEFE" stroke="white" stroke-width="0.5"/>
<path d="M13.7407 10.0959C13.2136 10.1139 12.6937 10.2244 12.2046 10.4222C11.8928 10.5501 11.7592 10.8279 11.8528 11.1277C11.9464 11.4274 12.2302 11.5682 12.5533 11.4888C12.6356 11.4691 12.7134 11.4335 12.7934 11.4078C15.2165 10.6334 17.7461 12.3381 17.9461 14.88C18.0178 15.8008 17.7667 16.7178 17.2363 17.4728C16.7059 18.2278 15.9293 18.7734 15.0406 19.0157C14.1519 19.2579 13.2067 19.1815 12.3681 18.7996C11.5296 18.4177 10.8502 17.7544 10.4472 16.9239C10.0855 16.1716 9.96475 15.3254 10.1015 14.5016C10.1596 14.1049 9.95732 13.8453 9.61914 13.8044C9.28095 13.7635 9.03561 13.9883 8.98201 14.3744C8.93466 14.635 8.91368 14.8998 8.91937 15.1647C8.91546 15.5323 8.95293 15.8993 9.03109 16.2585C9.52477 18.7119 11.8996 20.4916 14.3907 20.2766C16.9655 20.054 18.9901 17.9625 19.0807 15.4319C19.1894 12.3911 16.7662 9.9695 13.7407 10.0959Z" fill="#FEFEFE" stroke="white" stroke-width="0.5"/>
<path d="M16.2598 15.201C16.2625 14.7531 16.1327 14.3144 15.8867 13.9405C15.6408 13.5666 15.2899 13.2741 14.8783 13.1002C14.4666 12.9263 14.0128 12.8786 13.5742 12.9633C13.1356 13.048 12.7319 13.2612 12.4141 13.576C12.0963 13.8908 11.8787 14.2929 11.7889 14.7317C11.699 15.1704 11.7409 15.6261 11.9092 16.041C12.0776 16.4559 12.3648 16.8114 12.7346 17.0626C13.1044 17.3138 13.5402 17.4494 13.9869 17.4522C14.5855 17.4544 15.1607 17.2189 15.5867 16.797C16.0126 16.3751 16.2546 15.8013 16.2598 15.201ZM12.8719 15.1942C12.8698 14.9693 12.9344 14.7489 13.0573 14.5609C13.1803 14.3728 13.3562 14.2256 13.5627 14.138C13.7692 14.0503 13.997 14.0261 14.2172 14.0684C14.4374 14.1107 14.6402 14.2176 14.7997 14.3756C14.9593 14.5336 15.0685 14.7355 15.1135 14.9558C15.1585 15.1761 15.1372 15.4048 15.0524 15.613C14.9676 15.8211 14.8231 15.9994 14.6371 16.1251C14.4512 16.2508 14.2322 16.3183 14.008 16.319C13.7089 16.32 13.4215 16.2023 13.2086 15.9915C12.9958 15.7808 12.8747 15.4941 12.8719 15.1942Z" fill="#FEFEFE" stroke="white" stroke-width="0.5"/>
<path d="M10.607 12.9202C10.718 12.9212 10.8268 12.8893 10.9198 12.8286C11.0128 12.7679 11.0858 12.681 11.1298 12.5788C11.1737 12.4766 11.1867 12.3637 11.167 12.2542C11.1472 12.1447 11.0957 12.0435 11.0189 11.9632C10.942 11.8829 10.8433 11.8272 10.735 11.8029C10.6267 11.7787 10.5137 11.787 10.4101 11.8268C10.3065 11.8667 10.2169 11.9363 10.1526 12.027C10.0882 12.1177 10.052 12.2254 10.0485 12.3366C10.0454 12.4882 10.1026 12.6349 10.2073 12.7443C10.312 12.8538 10.4558 12.917 10.607 12.9202Z" fill="#FEFEFE" stroke="white" stroke-width="0.5"/>
</svg>
