<svg width="572" height="479" viewBox="0 0 572 479" fill="none" xmlns="http://www.w3.org/2000/svg">
<g clip-path="url(#clip0_573_4190)">
<g opacity="0.41">
<path opacity="0.41" d="M571.712 305.992C572.261 296.653 572.008 287.283 570.958 277.987C566.018 234.317 543.618 193.143 510.656 164.096C498.89 153.731 485.507 144.443 477.855 130.773C464.957 107.725 465.927 81.2466 449.94 58.5044C433.738 35.526 410.776 18.1702 384.249 8.85229C305.768 -18.345 195.888 25.9359 205.785 120.498C205.785 120.839 205.785 121.324 205.911 121.953C206.208 126.598 205.56 131.254 204.007 135.642C202.454 140.029 200.028 144.056 196.875 147.48C193.722 150.903 189.907 153.652 185.662 155.56C181.417 157.468 176.83 158.496 172.176 158.581C99.7668 160.288 37.4527 216.065 24.1061 286.843C15.5197 332.327 29.4951 382.177 62.8346 414.386C87.6776 438.404 120.999 451.607 154.321 460.661C221.162 478.84 291.505 482.649 360.43 475.697C424.935 469.194 492.98 450.655 534.672 401.021C556.866 374.123 569.848 340.815 571.712 305.992Z" fill="#C5D9FF"/>
</g>
<g opacity="0.88">
<path opacity="0.88" d="M512.165 310.447C512.596 303.133 512.398 295.794 511.572 288.513C507.71 254.382 490.16 222.047 464.329 199.287C455.114 191.167 444.569 183.892 438.641 173.186C428.528 155.132 429.301 134.384 416.762 116.564C404.07 98.5699 386.088 84.9764 365.316 77.6718C303.9 56.3667 217.677 91.1267 225.509 165.138C225.509 165.407 225.509 165.784 225.509 166.269C225.753 169.913 225.254 173.568 224.042 177.012C222.83 180.457 220.931 183.619 218.46 186.307C215.989 188.995 212.997 191.153 209.666 192.649C206.336 194.145 202.736 194.949 199.085 195.012C142.358 196.359 93.5338 240.101 83.0793 295.501C76.361 331.142 87.3724 370.177 113.437 395.398C132.891 414.206 158.991 424.536 185.11 431.649C237.472 445.877 292.565 448.877 346.562 443.434C397.093 438.332 450.389 423.799 483.082 384.907C500.505 363.845 510.7 337.743 512.165 310.447Z" fill="#C5D9FF"/>
</g>
<path opacity="0.31" d="M555.698 75.5615C557.955 66.0432 552.068 56.4974 542.55 54.2403C533.033 51.9833 523.487 57.8697 521.23 67.388C518.973 76.9063 524.859 86.4521 534.377 88.7092C543.895 90.9663 553.441 85.0799 555.698 75.5615Z" fill="#C5D9FF"/>
<path opacity="0.31" d="M164.034 65.4525C172.052 57.434 172.052 44.4334 164.034 36.4149C156.016 28.3964 143.016 28.3964 134.998 36.4149C126.98 44.4334 126.98 57.434 134.998 65.4525C143.016 73.471 156.016 73.471 164.034 65.4525Z" fill="#C5D9FF"/>
<path opacity="0.31" d="M26.5136 471.924C41.1566 471.924 53.0272 460.053 53.0272 445.41C53.0272 430.766 41.1566 418.895 26.5136 418.895C11.8705 418.895 0 430.766 0 445.41C0 460.053 11.8705 471.924 26.5136 471.924Z" fill="#C5D9FF"/>
<path d="M235.802 236.131C287.717 236.131 329.803 194.043 329.803 142.126C329.803 90.2086 287.717 48.1213 235.802 48.1213C183.886 48.1213 141.801 90.2086 141.801 142.126C141.801 194.043 183.886 236.131 235.802 236.131Z" fill="#AF9CDA"/>
<path d="M301.062 209.832C300.825 209.828 300.599 209.732 300.433 209.562C300.347 209.482 300.279 209.384 300.232 209.276C300.185 209.168 300.161 209.051 300.161 208.934C300.161 208.816 300.185 208.699 300.232 208.591C300.279 208.483 300.347 208.386 300.433 208.305C317.893 190.844 327.703 167.161 327.703 142.467C327.703 117.774 317.893 94.0911 300.433 76.6299C282.972 59.1687 259.291 49.3591 234.598 49.3591C209.905 49.3591 186.224 59.1687 168.763 76.6299C168.594 76.799 168.365 76.894 168.125 76.894C167.886 76.894 167.657 76.799 167.488 76.6299C167.319 76.4607 167.224 76.2314 167.224 75.9922C167.224 75.753 167.319 75.5236 167.488 75.3545C185.284 57.555 209.422 47.5544 234.592 47.5527C259.761 47.551 283.901 57.5484 301.699 75.3455C319.498 93.1425 329.498 117.281 329.5 142.452C329.502 167.623 319.505 191.763 301.708 209.562C301.537 209.734 301.304 209.831 301.062 209.832Z" fill="#243762"/>
<path d="M235.802 213.658C275.306 213.658 307.331 181.632 307.331 142.126C307.331 102.62 275.306 70.594 235.802 70.594C196.297 70.594 164.272 102.62 164.272 142.126C164.272 181.632 196.297 213.658 235.802 213.658Z" fill="white"/>
<path d="M235.802 214.556C216.593 214.556 198.171 206.925 184.588 193.342C171.006 179.759 163.375 161.336 163.375 142.126C163.375 122.916 171.006 104.493 184.588 90.9102C198.171 77.3269 216.593 69.6959 235.802 69.6959C236.041 69.6959 236.269 69.7905 236.437 69.9589C236.606 70.1274 236.7 70.3558 236.7 70.594C236.7 70.8323 236.606 71.0607 236.437 71.2292C236.269 71.3976 236.041 71.4922 235.802 71.4922C226.527 71.4922 217.342 73.3192 208.773 76.8689C200.204 80.4186 192.417 85.6214 185.859 92.1804C179.3 98.7394 174.097 106.526 170.548 115.096C166.998 123.665 165.171 132.85 165.171 142.126C165.171 151.402 166.998 160.587 170.548 169.156C174.097 177.726 179.3 185.513 185.859 192.072C192.417 198.631 200.204 203.834 208.773 207.383C217.342 210.933 226.527 212.76 235.802 212.76C236.039 212.765 236.265 212.861 236.432 213.028C236.6 213.196 236.696 213.421 236.7 213.658C236.7 213.896 236.606 214.125 236.437 214.293C236.269 214.462 236.041 214.556 235.802 214.556Z" fill="#243762"/>
<path d="M254.322 155.797H234.868C232.962 155.797 231.135 155.04 229.787 153.692C228.44 152.344 227.683 150.517 227.683 148.611V121.665C227.683 119.998 228.345 118.399 229.524 117.219C230.703 116.04 232.302 115.378 233.97 115.378C235.637 115.378 237.236 116.04 238.415 117.219C239.594 118.399 240.257 119.998 240.257 121.665V143.222H254.376C256.043 143.222 257.642 143.884 258.822 145.063C260.001 146.243 260.663 147.842 260.663 149.509C260.663 151.177 260.001 152.776 258.822 153.955C257.642 155.134 256.043 155.797 254.376 155.797H254.322Z" fill="#243762"/>
<path d="M89.852 174.784L191.11 276.047C195.821 280.758 201.413 284.495 207.568 287.045C213.723 289.595 220.32 290.907 226.982 290.907C233.645 290.907 240.242 289.595 246.397 287.045C252.552 284.495 258.144 280.758 262.855 276.047L274.962 263.939C277.153 261.743 278.383 258.768 278.383 255.667C278.383 252.565 277.153 249.59 274.962 247.394L233.647 206.077C231.451 203.887 228.476 202.656 225.375 202.656C222.273 202.656 219.298 203.887 217.103 206.077L196.445 226.736C195.667 227.51 194.615 227.945 193.517 227.945C192.42 227.945 191.367 227.51 190.589 226.736L140.436 176.617C139.67 175.849 139.241 174.809 139.241 173.724C139.241 172.64 139.67 171.6 140.436 170.832L160.824 150.407C161.913 149.323 162.777 148.033 163.367 146.614C163.956 145.194 164.26 143.672 164.26 142.135C164.26 140.598 163.956 139.076 163.367 137.656C162.777 136.237 161.913 134.948 160.824 133.863L118.395 91.4141C116.222 89.2466 113.285 88.0175 110.216 87.9906C107.146 87.9638 104.188 89.1413 101.977 91.2704L90.4807 102.372C85.63 107.054 81.7608 112.655 79.099 118.849C76.4372 125.043 75.036 131.705 74.9775 138.446C74.919 145.188 76.2042 151.873 78.7581 158.112C81.312 164.351 85.0833 170.019 89.852 174.784Z" fill="#243762"/>
<path d="M93.0314 104.474L149.921 161.365L151.879 159.425L160.86 150.443C161.949 149.359 162.813 148.069 163.403 146.65C163.992 145.23 164.296 143.708 164.296 142.171C164.296 140.634 163.992 139.112 163.403 137.692C162.813 136.273 161.949 134.983 160.86 133.899L118.431 91.4501C116.258 89.2825 113.321 88.0534 110.251 88.0266C107.182 87.9997 104.224 89.1772 102.013 91.3064L90.5166 102.408L93.0314 104.474Z" fill="#ECF1F7"/>
<path d="M149.921 162.641L92.4386 105.156L89.1514 102.516L101.384 90.6956C103.758 88.3967 106.942 87.1249 110.246 87.1552C113.551 87.1854 116.71 88.5153 119.042 90.8573L161.489 133.288C162.665 134.457 163.598 135.846 164.235 137.377C164.871 138.908 165.199 140.549 165.199 142.207C165.199 143.865 164.871 145.506 164.235 147.037C163.598 148.568 162.665 149.957 161.489 151.126L149.921 162.641ZM91.9357 102.372L93.732 103.827L149.993 160.108L160.267 149.833C161.275 148.831 162.074 147.64 162.62 146.328C163.166 145.016 163.446 143.61 163.446 142.189C163.446 140.768 163.166 139.362 162.62 138.05C162.074 136.738 161.275 135.547 160.267 134.545L117.838 92.0968C115.824 90.1088 113.114 88.9839 110.284 88.9604C107.453 88.937 104.725 90.0168 102.678 91.971L91.9357 102.372Z" fill="#243762"/>
<path d="M208.696 218.275L265.603 275.166L267.561 273.226L276.543 264.244C277.632 263.159 278.496 261.87 279.085 260.451C279.675 259.031 279.979 257.509 279.979 255.972C279.979 254.435 279.675 252.913 279.085 251.493C278.496 250.074 277.632 248.784 276.543 247.7L234.096 205.251C231.928 203.08 228.993 201.849 225.925 201.822C222.857 201.795 219.902 202.975 217.696 205.107L206.199 216.209L208.696 218.275Z" fill="#ECF1F7"/>
<path d="M265.675 276.442L208.193 218.957L204.905 216.317L217.12 204.497C219.508 202.218 222.69 200.96 225.991 200.99C229.291 201.021 232.45 202.336 234.796 204.658L277.225 247.089C278.401 248.258 279.334 249.647 279.971 251.178C280.607 252.709 280.935 254.35 280.935 256.008C280.935 257.666 280.607 259.307 279.971 260.838C279.334 262.369 278.401 263.758 277.225 264.927L265.675 276.442ZM207.6 216.173L209.396 217.646L265.657 273.909L275.931 263.634C276.939 262.632 277.739 261.441 278.284 260.129C278.83 258.817 279.111 257.411 279.111 255.99C279.111 254.569 278.83 253.163 278.284 251.851C277.739 250.539 276.939 249.348 275.931 248.346L233.503 205.916C231.504 203.905 228.795 202.763 225.961 202.736C223.126 202.709 220.396 203.8 218.36 205.772L207.6 216.173Z" fill="#243762"/>
<path d="M132.047 133.324C131.814 133.318 131.591 133.229 131.418 133.072L96.7495 98.4021C96.6657 98.3183 96.5993 98.2189 96.554 98.1095C96.5087 98.0001 96.4854 97.8828 96.4854 97.7644C96.4854 97.6459 96.5087 97.5286 96.554 97.4192C96.5993 97.3098 96.6657 97.2104 96.7495 97.1266C96.8332 97.0429 96.9327 96.9765 97.0421 96.9311C97.1515 96.8858 97.2688 96.8625 97.3872 96.8625C97.5056 96.8625 97.6229 96.8858 97.7323 96.9311C97.8417 96.9765 97.9411 97.0429 98.0249 97.1266L132.694 131.797C132.859 131.968 132.952 132.196 132.952 132.435C132.952 132.673 132.859 132.901 132.694 133.072C132.517 133.233 132.286 133.323 132.047 133.324Z" fill="#243762"/>
<path d="M269.968 271.25C269.726 271.25 269.493 271.153 269.322 270.981L234.653 236.311C234.484 236.141 234.389 235.912 234.389 235.673C234.389 235.434 234.484 235.204 234.653 235.035C234.822 234.866 235.051 234.771 235.291 234.771C235.53 234.771 235.759 234.866 235.928 235.035L270.597 269.705C270.681 269.789 270.748 269.888 270.794 269.998C270.839 270.107 270.863 270.224 270.863 270.343C270.863 270.462 270.839 270.579 270.794 270.688C270.748 270.798 270.681 270.897 270.597 270.981C270.431 271.15 270.205 271.247 269.968 271.25Z" fill="#243762"/>
<path d="M422.098 448.482L289.35 428.847C282.142 427.777 275.653 423.89 271.309 418.04C266.964 412.19 265.119 404.854 266.178 397.644L313.78 75.7676C314.85 68.5592 318.737 62.0699 324.587 57.725C330.437 53.3801 337.773 51.5348 344.982 52.5943L477.73 72.2287C481.299 72.7561 484.73 73.9816 487.826 75.8354C490.922 77.6891 493.622 80.1348 495.772 83.0325C497.922 85.9303 499.481 89.2233 500.358 92.7236C501.235 96.2238 501.414 99.8626 500.884 103.432L453.3 425.254C452.779 428.829 451.558 432.267 449.708 435.37C447.857 438.473 445.413 441.18 442.515 443.337C439.617 445.495 436.322 447.059 432.818 447.942C429.315 448.825 425.672 449.008 422.098 448.482Z" fill="#243762"/>
<path d="M324.128 82.6256L279.189 386.593L444.006 410.961L488.944 106.994L324.128 82.6256Z" fill="#ECF1F7"/>
<path d="M324.137 82.6217L320.764 105.439L485.58 129.808L488.954 106.99L324.137 82.6217Z" fill="#AF9CDA"/>
<path d="M358.832 428.434C358.302 428.436 357.773 428.394 357.251 428.308C354.517 427.885 352.055 426.418 350.38 424.217C348.705 422.015 347.949 419.25 348.271 416.503C348.592 413.756 349.966 411.24 352.104 409.485C354.242 407.73 356.977 406.871 359.734 407.091C362.491 407.31 365.056 408.59 366.889 410.661C368.723 412.732 369.682 415.433 369.565 418.197C369.448 420.961 368.264 423.571 366.263 425.48C364.261 427.389 361.597 428.448 358.832 428.434ZM358.832 408.674C357.164 408.674 355.529 409.138 354.11 410.015C352.691 410.892 351.544 412.147 350.798 413.639C350.052 415.131 349.736 416.801 349.886 418.462C350.036 420.124 350.645 421.71 351.646 423.045C352.707 424.458 354.162 425.527 355.828 426.118C357.494 426.708 359.297 426.794 361.012 426.364C362.726 425.935 364.276 425.009 365.466 423.703C366.657 422.396 367.436 420.768 367.705 419.021C368.045 416.673 367.443 414.287 366.029 412.382C364.616 410.477 362.506 409.208 360.161 408.853C359.716 408.769 359.266 408.721 358.814 408.71L358.832 408.674Z" fill="#ECF1F7"/>
<path d="M382.65 79.7556H382.147C381.468 79.6562 380.834 79.3575 380.325 78.8973C379.816 78.4371 379.455 77.8362 379.287 77.1706C379.12 76.505 379.154 75.8046 379.385 75.1583C379.616 74.5121 380.033 73.9489 380.585 73.5401C381.133 73.1283 381.792 72.8894 382.477 72.8539C383.162 72.8184 383.842 72.9879 384.43 73.3408C385.018 73.6937 385.487 74.2139 385.778 74.835C386.069 75.456 386.169 76.1497 386.063 76.8275C385.939 77.6431 385.526 78.387 384.9 78.9243C384.274 79.4615 383.475 79.7565 382.65 79.7556ZM382.65 74.6179C382.258 74.6408 381.883 74.792 381.584 75.0484C381.286 75.3048 381.08 75.6522 380.998 76.0371C380.939 76.4767 381.055 76.9219 381.321 77.2766C381.448 77.4535 381.608 77.6034 381.793 77.7175C381.978 77.8316 382.184 77.9077 382.399 77.9412C382.839 78.0004 383.284 77.8843 383.638 77.6179C383.816 77.4936 383.965 77.3334 384.076 77.1477C384.188 76.962 384.259 76.755 384.285 76.5401C384.322 76.3236 384.314 76.1018 384.261 75.8885C384.209 75.6753 384.113 75.4751 383.98 75.3006C383.855 75.1232 383.695 74.974 383.51 74.8626C383.324 74.7512 383.117 74.6801 382.902 74.6539L382.65 74.6179Z" fill="#ECF1F7"/>
<path d="M436.181 87.6597C436.014 87.6776 435.845 87.6776 435.678 87.6597L393.716 81.4083C393.265 81.3487 392.831 81.1967 392.442 80.9618C392.052 80.7268 391.716 80.4141 391.453 80.043C391.177 79.6805 390.978 79.2661 390.867 78.8247C390.756 78.3832 390.735 77.9239 390.806 77.4742C390.87 77.0268 391.022 76.5965 391.254 76.208C391.485 75.8196 391.791 75.4807 392.153 75.2108C392.891 74.6655 393.814 74.4331 394.722 74.5641L436.774 80.7796C437.222 80.8471 437.653 81.0025 438.041 81.2367C438.43 81.471 438.768 81.7796 439.037 82.1448C439.581 82.8798 439.813 83.8001 439.682 84.7052C439.55 85.6103 439.067 86.4269 438.336 86.9771C437.714 87.4391 436.955 87.6795 436.181 87.6597ZM394.129 76.3245C393.731 76.3248 393.347 76.4685 393.047 76.7292C392.747 76.9899 392.551 77.35 392.494 77.7437C392.453 78.1657 392.575 78.5875 392.836 78.9219C393.097 79.2562 393.476 79.4776 393.896 79.54L435.929 85.7555C436.146 85.7911 436.367 85.7828 436.58 85.7311C436.793 85.6795 436.993 85.5855 437.169 85.4548C437.345 85.324 437.493 85.1593 437.604 84.9702C437.715 84.7812 437.787 84.5717 437.815 84.3544C437.852 84.1407 437.844 83.9218 437.791 83.7115C437.739 83.5012 437.643 83.3041 437.51 83.1328C437.38 82.9554 437.216 82.8053 437.028 82.6912C436.84 82.5772 436.632 82.5013 436.414 82.4681L394.381 76.2527L394.129 76.3245Z" fill="#ECF1F7"/>
<path d="M444.714 317.992L329.75 300.98C328.852 300.852 327.94 301.084 327.213 301.626C326.486 302.168 326.003 302.976 325.87 303.873L321.433 333.639C321.367 334.085 321.389 334.539 321.498 334.976C321.608 335.414 321.802 335.825 322.071 336.187C322.34 336.549 322.677 336.855 323.064 337.086C323.45 337.318 323.879 337.471 324.325 337.537L422.619 352.07L432.75 366.045L434.547 353.848L439.289 354.549C440.189 354.677 441.103 354.446 441.833 353.904C442.563 353.363 443.049 352.555 443.187 351.656L447.588 321.836C447.711 320.946 447.479 320.043 446.941 319.324C446.403 318.604 445.602 318.126 444.714 317.992Z" fill="#C5D9FF"/>
<path d="M422.619 353.022H422.457L324.163 338.471C323.037 338.294 322.028 337.679 321.355 336.76C320.682 335.841 320.4 334.693 320.57 333.567L324.971 303.747C325.148 302.618 325.766 301.605 326.688 300.932C327.611 300.258 328.764 299.978 329.893 300.154L356.46 304.088C356.578 304.106 356.692 304.147 356.794 304.208C356.896 304.27 356.985 304.351 357.056 304.446C357.127 304.542 357.178 304.651 357.207 304.767C357.236 304.883 357.242 305.003 357.224 305.121C357.206 305.239 357.165 305.352 357.104 305.455C357.042 305.557 356.961 305.646 356.866 305.717C356.77 305.788 356.661 305.839 356.545 305.868C356.429 305.896 356.309 305.902 356.191 305.884L329.623 301.968C328.962 301.875 328.291 302.045 327.754 302.441C327.216 302.838 326.856 303.429 326.749 304.088L322.348 333.926C322.303 334.242 322.322 334.563 322.402 334.871C322.482 335.179 322.623 335.469 322.815 335.722C323.213 336.262 323.806 336.623 324.468 336.728L422.762 351.261C422.88 351.276 422.994 351.315 423.096 351.376C423.199 351.436 423.288 351.516 423.358 351.612C423.429 351.708 423.479 351.817 423.506 351.932C423.534 352.048 423.537 352.168 423.517 352.285C423.482 352.496 423.372 352.687 423.206 352.823C423.041 352.958 422.832 353.029 422.619 353.022Z" fill="#243762"/>
<path d="M462.981 194.401L348.017 177.389C347.118 177.26 346.203 177.492 345.474 178.033C344.744 178.575 344.257 179.383 344.119 180.281L339.718 210.101C339.65 210.547 339.67 211.003 339.779 211.441C339.887 211.879 340.082 212.292 340.351 212.654C340.62 213.017 340.958 213.322 341.346 213.553C341.734 213.784 342.164 213.936 342.61 213.999L440.905 228.532L451.018 242.508L452.814 230.311L457.557 231.011C458.454 231.14 459.366 230.908 460.093 230.366C460.82 229.824 461.303 229.016 461.437 228.119L465.856 198.281C465.984 197.386 465.755 196.476 465.217 195.75C464.678 195.023 463.875 194.538 462.981 194.401Z" fill="#C5D9FF"/>
<path d="M451.593 244.807L440.42 229.448L342.503 214.951C341.38 214.77 340.373 214.154 339.701 213.236C339.029 212.318 338.745 211.173 338.91 210.047C338.95 209.814 339.079 209.604 339.27 209.463C339.461 209.323 339.699 209.262 339.934 209.293C340.052 209.308 340.166 209.347 340.268 209.407C340.371 209.468 340.46 209.548 340.53 209.644C340.601 209.739 340.651 209.848 340.678 209.964C340.706 210.08 340.709 210.2 340.689 210.317C340.613 210.956 340.787 211.599 341.174 212.113C341.571 212.653 342.165 213.014 342.826 213.119L441.408 227.652L450.39 240.137L452.006 229.233L457.629 230.059C457.957 230.11 458.292 230.096 458.614 230.016C458.937 229.937 459.24 229.795 459.507 229.598C459.775 229.401 460 229.153 460.171 228.868C460.342 228.584 460.455 228.268 460.503 227.939L463.431 208.089C463.471 207.855 463.6 207.646 463.79 207.505C463.981 207.365 464.22 207.304 464.455 207.335C464.572 207.352 464.684 207.393 464.785 207.454C464.886 207.515 464.974 207.595 465.044 207.69C465.114 207.785 465.165 207.893 465.193 208.008C465.222 208.123 465.227 208.242 465.209 208.359L462.281 228.119C462.203 228.683 462.011 229.225 461.718 229.712C461.425 230.2 461.036 230.624 460.575 230.957C460.125 231.302 459.609 231.552 459.059 231.691C458.509 231.83 457.937 231.856 457.377 231.766L453.515 231.191L451.593 244.807Z" fill="#243762"/>
<path d="M317.462 232.826L432.426 249.837C433.323 249.971 434.131 250.454 434.673 251.181C435.215 251.908 435.447 252.82 435.318 253.718L430.899 283.555C430.766 284.452 430.283 285.26 429.556 285.802C428.829 286.344 427.917 286.576 427.019 286.448L328.725 271.897L314.983 282.334L316.78 270.136L312.037 269.436C311.59 269.372 311.16 269.221 310.773 268.99C310.385 268.759 310.046 268.453 309.777 268.091C309.508 267.728 309.314 267.316 309.206 266.877C309.097 266.439 309.077 265.984 309.145 265.538L313.546 235.718C313.684 234.816 314.173 234.005 314.907 233.463C315.641 232.921 316.56 232.692 317.462 232.826Z" fill="#AF9CDA"/>
<path d="M427.523 287.382C427.314 287.4 427.103 287.4 426.894 287.382L365.532 278.31C365.414 278.294 365.301 278.254 365.198 278.194C365.095 278.133 365.006 278.053 364.934 277.958C364.862 277.863 364.81 277.755 364.78 277.639C364.75 277.524 364.743 277.404 364.76 277.286C364.776 277.168 364.816 277.055 364.876 276.952C364.937 276.849 365.017 276.759 365.112 276.688C365.207 276.616 365.315 276.564 365.43 276.534C365.546 276.504 365.666 276.497 365.784 276.514L427.146 285.585C427.474 285.636 427.809 285.622 428.131 285.543C428.454 285.464 428.757 285.321 429.024 285.124C429.292 284.927 429.517 284.679 429.688 284.394C429.859 284.11 429.972 283.794 430.02 283.466L434.439 253.628C434.532 252.964 434.359 252.29 433.959 251.752C433.559 251.214 432.964 250.856 432.301 250.753C432.069 250.718 431.86 250.593 431.719 250.405C431.577 250.216 431.516 249.981 431.547 249.747C431.582 249.51 431.709 249.297 431.901 249.152C432.092 249.008 432.333 248.944 432.571 248.975C433.695 249.161 434.702 249.781 435.374 250.701C436.046 251.622 436.329 252.769 436.163 253.897L431.744 283.717C431.587 284.741 431.07 285.675 430.287 286.353C429.504 287.031 428.505 287.408 427.469 287.418L427.523 287.382Z" fill="#243762"/>
<path d="M283.326 358.601L279.19 386.572L444.007 410.94L448.142 382.969L283.326 358.601Z" fill="white"/>
<path d="M307.672 376.285C307.381 378.246 306.514 380.076 305.183 381.545C303.851 383.013 302.114 384.054 300.191 384.535C298.268 385.016 296.245 384.916 294.379 384.248C292.512 383.58 290.886 382.373 289.706 380.78C288.525 379.188 287.843 377.281 287.746 375.301C287.649 373.321 288.142 371.356 289.161 369.656C290.181 367.956 291.681 366.596 293.473 365.749C295.266 364.902 297.269 364.605 299.23 364.896C300.533 365.087 301.785 365.533 302.916 366.21C304.046 366.886 305.032 367.779 305.816 368.837C306.6 369.895 307.168 371.098 307.487 372.376C307.805 373.654 307.868 374.982 307.672 376.285Z" fill="#C5D9FF"/>
<path opacity="0.33" d="M429.229 403.446C428.79 403.452 428.352 403.422 427.918 403.356L321.109 387.53C319.946 387.368 318.827 386.974 317.818 386.373C316.809 385.771 315.931 384.974 315.235 384.027C314.203 382.603 313.611 380.908 313.533 379.151C313.456 377.394 313.895 375.652 314.798 374.143C315.701 372.634 317.027 371.423 318.612 370.66C320.197 369.898 321.971 369.617 323.714 369.854L430.523 385.662C432.659 386.1 434.563 387.301 435.88 389.04C437.196 390.779 437.835 392.938 437.676 395.113C437.518 397.288 436.573 399.332 435.019 400.862C433.465 402.392 431.407 403.304 429.229 403.428V403.446ZM428.169 401.65C429.148 401.914 430.171 401.968 431.172 401.808C432.173 401.648 433.129 401.278 433.977 400.723C434.825 400.168 435.545 399.439 436.092 398.586C436.638 397.732 436.998 396.772 437.147 395.77C437.296 394.767 437.232 393.745 436.958 392.769C436.683 391.793 436.206 390.886 435.557 390.108C434.907 389.33 434.101 388.698 433.19 388.254C432.279 387.809 431.284 387.563 430.271 387.53L323.462 371.722C321.688 371.645 319.948 372.228 318.578 373.359C317.208 374.49 316.306 376.087 316.044 377.844C315.783 379.601 316.182 381.392 317.164 382.873C318.145 384.353 319.641 385.417 321.361 385.86L428.169 401.65Z" fill="#AF9CDA"/>
<path d="M334.437 99.0488H333.934C333.018 98.8939 332.198 98.3902 331.645 97.6432C331.092 96.8963 330.851 95.9642 330.97 95.0428C331.036 94.5866 331.192 94.1481 331.429 93.7531C331.667 93.3582 331.981 93.0149 332.354 92.7435C332.92 92.366 333.581 92.157 334.261 92.1408C334.941 92.1246 335.612 92.3018 336.195 92.6518C336.779 93.0018 337.251 93.5102 337.556 94.118C337.862 94.7257 337.989 95.4077 337.922 96.0847C337.776 96.9067 337.348 97.6523 336.712 98.1932C336.077 98.7341 335.272 99.0366 334.437 99.0488ZM334.437 93.8033C334.069 93.8095 333.712 93.9286 333.413 94.1446C333.062 94.4276 332.831 94.8322 332.764 95.2781C332.697 95.724 332.801 96.1787 333.054 96.5518C333.272 96.7973 333.553 96.9783 333.867 97.0753C334.18 97.1722 334.515 97.1814 334.833 97.1018C335.152 97.0222 335.442 96.8568 335.673 96.6237C335.904 96.3905 336.067 96.0985 336.144 95.7793C336.18 95.5559 336.17 95.3275 336.115 95.1081C336.059 94.8887 335.959 94.6831 335.82 94.5039C335.688 94.3192 335.52 94.1633 335.325 94.0459C335.13 93.9286 334.914 93.8521 334.689 93.8213L334.437 93.8033Z" fill="white"/>
<path d="M344.155 100.486H343.634C342.853 100.206 342.193 99.6639 341.766 98.9522C341.339 98.2404 341.171 97.4028 341.292 96.5815C341.413 95.7603 341.814 95.0062 342.428 94.4473C343.041 93.8885 343.83 93.5594 344.658 93.5159C345.119 93.582 345.561 93.7401 345.959 93.9809C346.358 94.2216 346.703 94.54 346.976 94.9171C347.507 95.6725 347.726 96.6034 347.589 97.5166C347.452 98.4298 346.969 99.255 346.239 99.8212C345.637 100.267 344.904 100.5 344.155 100.486ZM344.155 95.2404C343.749 95.2583 343.36 95.4138 343.053 95.6814C342.747 95.949 342.54 96.3129 342.467 96.7135C342.429 96.9369 342.439 97.1656 342.495 97.3852C342.55 97.6047 342.651 97.8103 342.79 97.9889C342.923 98.1737 343.091 98.3295 343.286 98.4469C343.48 98.5643 343.697 98.6407 343.922 98.6715C344.145 98.7045 344.372 98.6929 344.591 98.6375C344.809 98.5821 345.015 98.4839 345.195 98.3486C345.376 98.2133 345.527 98.0435 345.642 97.8492C345.756 97.6549 345.831 97.4398 345.862 97.2165C345.898 96.993 345.888 96.7646 345.833 96.5452C345.777 96.3258 345.677 96.1201 345.539 95.941C345.266 95.5818 344.869 95.3381 344.425 95.2584L344.155 95.2404Z" fill="white"/>
<path d="M353.695 101.905C353.521 101.924 353.347 101.924 353.174 101.905C352.298 101.838 351.483 101.434 350.899 100.778C350.315 100.123 350.008 99.2668 350.042 98.3895C350.075 97.5123 350.447 96.6822 351.08 96.0735C351.712 95.4647 352.556 95.1247 353.434 95.1247C354.312 95.1247 355.156 95.4647 355.788 96.0735C356.421 96.6822 356.793 97.5123 356.827 98.3895C356.86 99.2668 356.553 100.123 355.969 100.778C355.385 101.434 354.57 101.838 353.695 101.905ZM353.695 96.6596C353.325 96.6569 352.965 96.777 352.671 97.0009C352.43 97.2196 352.253 97.4995 352.159 97.8107C352.065 98.1219 352.058 98.4528 352.137 98.7681C352.216 99.0834 352.38 99.3713 352.61 99.601C352.84 99.8308 353.128 99.9938 353.443 100.073C353.697 100.194 353.975 100.255 354.257 100.249C354.538 100.243 354.814 100.171 355.062 100.039C355.311 99.9074 355.525 99.7189 355.687 99.4891C355.849 99.2592 355.955 98.9945 355.997 98.7162C356.038 98.4379 356.013 98.1538 355.925 97.8868C355.836 97.6197 355.686 97.3773 355.486 97.179C355.287 96.9806 355.043 96.8319 354.776 96.7448C354.508 96.6577 354.224 96.6347 353.946 96.6775L353.695 96.6596Z" fill="white"/>
<path d="M487.843 131.06H487.717L335.156 108.498C334.922 108.458 334.713 108.329 334.572 108.138C334.431 107.947 334.37 107.709 334.402 107.474C334.419 107.357 334.46 107.245 334.521 107.144C334.581 107.042 334.662 106.954 334.757 106.884C334.852 106.814 334.96 106.763 335.075 106.735C335.189 106.707 335.309 106.701 335.425 106.719L487.968 129.282C488.207 129.299 488.428 129.409 488.585 129.589C488.742 129.77 488.82 130.005 488.804 130.243C488.787 130.481 488.676 130.703 488.496 130.86C488.316 131.016 488.081 131.095 487.843 131.078V131.06Z" fill="#243762"/>
<path d="M424.253 324.854H424.109L342.718 312.819C342.485 312.779 342.275 312.65 342.135 312.459C341.994 312.268 341.933 312.03 341.964 311.795C341.979 311.679 342.018 311.567 342.077 311.466C342.136 311.365 342.215 311.276 342.308 311.206C342.402 311.136 342.509 311.085 342.623 311.056C342.736 311.028 342.854 311.022 342.97 311.04L424.379 323.076C424.496 323.093 424.608 323.134 424.709 323.195C424.81 323.256 424.898 323.336 424.969 323.431C425.039 323.526 425.089 323.634 425.118 323.749C425.146 323.864 425.151 323.983 425.133 324.1C425.103 324.311 424.997 324.504 424.835 324.642C424.673 324.781 424.466 324.856 424.253 324.854Z" fill="white"/>
<path d="M376.058 327.657H375.932L341.281 322.537C341.043 322.501 340.829 322.372 340.686 322.179C340.542 321.985 340.482 321.742 340.518 321.504C340.554 321.266 340.682 321.052 340.876 320.908C341.07 320.765 341.313 320.705 341.551 320.741L376.184 325.878C376.302 325.887 376.417 325.918 376.523 325.971C376.628 326.023 376.723 326.097 376.8 326.186C376.878 326.275 376.937 326.379 376.975 326.491C377.012 326.603 377.027 326.721 377.019 326.839C377.011 326.957 376.979 327.073 376.926 327.178C376.874 327.284 376.801 327.378 376.711 327.456C376.622 327.534 376.519 327.593 376.406 327.63C376.294 327.668 376.176 327.683 376.058 327.675V327.657Z" fill="white"/>
<path d="M364.382 335.219H364.257L339.935 331.627C339.818 331.609 339.706 331.569 339.604 331.508C339.503 331.447 339.415 331.366 339.345 331.271C339.275 331.176 339.224 331.068 339.196 330.953C339.168 330.839 339.162 330.72 339.18 330.603C339.22 330.369 339.349 330.16 339.54 330.019C339.731 329.878 339.969 329.817 340.204 329.848L364.508 333.441C364.625 333.454 364.739 333.491 364.841 333.549C364.943 333.608 365.032 333.686 365.103 333.781C365.174 333.875 365.224 333.983 365.252 334.097C365.279 334.212 365.283 334.331 365.263 334.447C365.233 334.66 365.127 334.855 364.966 334.996C364.804 335.138 364.597 335.217 364.382 335.219Z" fill="white"/>
<path d="M422.816 334.573H422.672L386.872 329.291C386.638 329.252 386.429 329.123 386.288 328.932C386.147 328.741 386.086 328.503 386.117 328.267C386.133 328.15 386.172 328.036 386.232 327.934C386.292 327.831 386.373 327.742 386.468 327.671C386.564 327.601 386.673 327.551 386.789 327.523C386.904 327.496 387.024 327.493 387.141 327.513L422.942 332.812C423.174 332.848 423.383 332.973 423.524 333.161C423.665 333.349 423.727 333.585 423.696 333.818C423.662 334.028 423.555 334.218 423.394 334.357C423.233 334.495 423.028 334.571 422.816 334.573Z" fill="white"/>
<path d="M414.302 257.31H414.176L332.785 245.275C332.667 245.258 332.554 245.218 332.451 245.158C332.348 245.098 332.259 245.018 332.187 244.923C332.115 244.827 332.063 244.719 332.033 244.604C332.003 244.489 331.996 244.369 332.013 244.251C332.029 244.133 332.069 244.019 332.129 243.916C332.19 243.814 332.27 243.724 332.365 243.652C332.46 243.581 332.568 243.528 332.683 243.498C332.799 243.468 332.919 243.462 333.037 243.478L414.446 255.532C414.678 255.567 414.887 255.693 415.028 255.881C415.169 256.069 415.231 256.305 415.2 256.538C415.166 256.752 415.057 256.947 414.893 257.089C414.728 257.23 414.519 257.309 414.302 257.31Z" fill="white"/>
<path d="M366.125 260.113H365.981L331.348 254.993C331.111 254.957 330.898 254.83 330.753 254.639C330.609 254.447 330.545 254.207 330.576 253.969C330.616 253.735 330.745 253.526 330.936 253.385C331.127 253.244 331.365 253.183 331.6 253.215L366.251 258.334C366.489 258.351 366.711 258.461 366.867 258.642C367.024 258.822 367.103 259.057 367.086 259.295C367.069 259.533 366.959 259.755 366.779 259.912C366.598 260.069 366.363 260.147 366.125 260.131V260.113Z" fill="white"/>
<path d="M402.123 274.717H401.979L331.725 263.813C331.491 263.773 331.282 263.644 331.141 263.453C331.001 263.262 330.94 263.024 330.971 262.789C331.011 262.555 331.14 262.346 331.331 262.205C331.522 262.065 331.76 262.004 331.995 262.035L402.249 272.939C402.487 272.955 402.709 273.066 402.865 273.246C403.022 273.427 403.101 273.662 403.084 273.9C403.067 274.138 402.957 274.36 402.776 274.517C402.596 274.673 402.361 274.752 402.123 274.735V274.717Z" fill="white"/>
<path d="M412.865 267.029H412.739L376.938 261.64C376.822 261.624 376.711 261.586 376.609 261.527C376.508 261.468 376.42 261.389 376.35 261.295C376.28 261.201 376.229 261.095 376.2 260.981C376.172 260.867 376.166 260.749 376.184 260.634C376.215 260.398 376.339 260.184 376.527 260.039C376.716 259.895 376.954 259.831 377.19 259.861L413.008 265.16C413.247 265.18 413.468 265.292 413.623 265.474C413.777 265.656 413.854 265.892 413.835 266.131C413.816 266.369 413.703 266.59 413.521 266.745C413.339 266.9 413.103 266.976 412.865 266.957V267.029Z" fill="white"/>
<path d="M332.228 120.695L447.192 137.707C447.638 137.773 448.066 137.926 448.453 138.158C448.84 138.389 449.177 138.695 449.445 139.057C449.714 139.419 449.909 139.83 450.018 140.267C450.128 140.705 450.15 141.159 450.084 141.605L445.665 171.425C445.532 172.322 445.049 173.13 444.322 173.672C443.595 174.214 442.683 174.446 441.785 174.317L343.419 159.767L329.749 170.168L331.545 157.97L326.803 157.27C326.356 157.206 325.926 157.054 325.538 156.823C325.15 156.592 324.812 156.287 324.543 155.924C324.274 155.562 324.08 155.149 323.971 154.711C323.863 154.273 323.842 153.818 323.911 153.371L328.312 123.551C328.458 122.656 328.95 121.854 329.683 121.319C330.416 120.785 331.331 120.561 332.228 120.695Z" fill="#AF9CDA"/>
<path d="M445.665 172.323H445.54C445.307 172.288 445.098 172.162 444.957 171.974C444.816 171.786 444.754 171.55 444.785 171.317L449.204 141.425C449.28 140.787 449.106 140.143 448.719 139.629C448.322 139.09 447.728 138.728 447.067 138.623L375.753 128.042C375.635 128.025 375.522 127.984 375.419 127.922C375.317 127.861 375.228 127.78 375.157 127.684C375.086 127.588 375.035 127.479 375.006 127.363C374.978 127.248 374.972 127.127 374.99 127.009C375.007 126.892 375.048 126.778 375.109 126.676C375.171 126.574 375.252 126.485 375.348 126.414C375.444 126.343 375.553 126.292 375.668 126.263C375.784 126.234 375.904 126.228 376.022 126.246L447.408 136.791C448.541 136.965 449.561 137.578 450.246 138.497C450.585 138.954 450.829 139.473 450.965 140.026C451.101 140.578 451.125 141.151 451.036 141.713L446.635 171.533C446.604 171.763 446.486 171.973 446.306 172.119C446.126 172.266 445.897 172.339 445.665 172.323Z" fill="#243762"/>
<path d="M429.067 145.18H428.942L347.533 133.126C347.3 133.091 347.091 132.965 346.95 132.777C346.809 132.589 346.747 132.353 346.778 132.12C346.814 131.883 346.941 131.669 347.133 131.525C347.324 131.381 347.564 131.317 347.802 131.348L429.211 143.402C429.444 143.437 429.653 143.562 429.794 143.75C429.935 143.939 429.996 144.174 429.966 144.407C429.932 144.622 429.823 144.817 429.658 144.958C429.494 145.1 429.284 145.178 429.067 145.18Z" fill="white"/>
<path d="M380.89 147.982H380.746L346.113 142.863C345.875 142.829 345.66 142.703 345.515 142.511C345.37 142.319 345.307 142.077 345.341 141.839C345.374 141.6 345.501 141.385 345.693 141.24C345.885 141.095 346.126 141.033 346.365 141.066L381.016 146.186C381.254 146.203 381.476 146.313 381.632 146.493C381.789 146.674 381.868 146.909 381.851 147.147C381.834 147.385 381.724 147.607 381.543 147.764C381.363 147.92 381.128 147.999 380.89 147.982Z" fill="white"/>
<path d="M416.888 162.587H416.745L346.491 151.683C346.257 151.643 346.048 151.514 345.907 151.323C345.766 151.132 345.705 150.894 345.737 150.659C345.776 150.425 345.905 150.216 346.096 150.075C346.287 149.934 346.525 149.873 346.76 149.904L417.068 160.808C417.302 160.848 417.511 160.977 417.652 161.168C417.793 161.359 417.854 161.597 417.823 161.832C417.791 162.053 417.677 162.254 417.504 162.394C417.331 162.534 417.111 162.603 416.888 162.587Z" fill="white"/>
<path d="M427.63 154.898H427.504L391.704 149.509C391.587 149.496 391.474 149.459 391.371 149.401C391.269 149.343 391.18 149.264 391.109 149.17C391.038 149.075 390.988 148.968 390.96 148.853C390.933 148.738 390.929 148.619 390.949 148.503C390.981 148.268 391.104 148.054 391.293 147.909C391.481 147.764 391.72 147.7 391.955 147.731L427.846 153.102C428.084 153.121 428.305 153.234 428.46 153.416C428.615 153.598 428.691 153.834 428.672 154.072C428.653 154.31 428.54 154.531 428.358 154.686C428.176 154.841 427.94 154.917 427.702 154.898H427.63Z" fill="white"/>
<path d="M442.593 202.503H442.468L361.059 190.467C360.82 190.431 360.606 190.302 360.463 190.108C360.32 189.915 360.259 189.672 360.295 189.434C360.331 189.196 360.46 188.981 360.654 188.838C360.847 188.695 361.09 188.635 361.328 188.67L442.737 200.706C442.969 200.742 443.179 200.867 443.32 201.055C443.461 201.243 443.522 201.479 443.491 201.712C443.461 201.93 443.354 202.129 443.189 202.274C443.024 202.419 442.813 202.5 442.593 202.503Z" fill="white"/>
<path d="M394.416 205.215H394.273L359.586 200.077C359.468 200.061 359.354 200.021 359.252 199.961C359.149 199.901 359.059 199.821 358.988 199.725C358.916 199.63 358.864 199.522 358.834 199.407C358.804 199.292 358.797 199.171 358.813 199.054C358.83 198.936 358.87 198.822 358.93 198.719C358.99 198.617 359.07 198.527 359.165 198.455C359.26 198.384 359.369 198.331 359.484 198.301C359.599 198.271 359.719 198.265 359.837 198.281L394.488 203.401C394.726 203.417 394.948 203.528 395.105 203.708C395.262 203.889 395.34 204.124 395.323 204.362C395.307 204.6 395.196 204.822 395.016 204.979C394.836 205.135 394.601 205.214 394.362 205.197L394.416 205.215Z" fill="white"/>
<path d="M382.741 212.76H382.597L358.293 209.167C358.055 209.134 357.839 209.007 357.695 208.815C357.55 208.623 357.487 208.381 357.52 208.143C357.554 207.905 357.68 207.69 357.872 207.545C358.064 207.4 358.306 207.337 358.544 207.371L382.866 210.964C382.983 210.981 383.096 211.022 383.197 211.083C383.298 211.143 383.386 211.224 383.456 211.319C383.526 211.414 383.577 211.522 383.605 211.637C383.633 211.752 383.639 211.871 383.621 211.987C383.594 212.202 383.49 212.399 383.328 212.541C383.166 212.684 382.957 212.762 382.741 212.76Z" fill="white"/>
<path d="M441.157 212.113H441.031L405.23 206.814C404.992 206.781 404.777 206.654 404.632 206.462C404.487 206.27 404.425 206.028 404.458 205.79C404.491 205.552 404.618 205.337 404.81 205.192C405.002 205.047 405.244 204.984 405.482 205.017L441.3 210.407C441.538 210.426 441.759 210.539 441.914 210.721C442.069 210.902 442.146 211.138 442.127 211.377C442.108 211.615 441.995 211.836 441.813 211.991C441.631 212.146 441.395 212.222 441.157 212.203V212.113Z" fill="white"/>
<path d="M277.081 420.871L92.6894 441.637C91.8439 441.742 90.986 441.678 90.1655 441.449C89.345 441.22 88.5782 440.83 87.9097 440.302C87.2412 439.774 86.6843 439.118 86.2713 438.373C85.8584 437.627 85.5976 436.808 85.5041 435.961L72.1755 317.813C72.17 317.723 72.1983 317.634 72.2548 317.565C72.3114 317.495 72.392 317.449 72.4808 317.435L268.998 295.304C269.041 295.299 269.086 295.303 269.128 295.316C269.17 295.329 269.21 295.35 269.243 295.379C269.277 295.407 269.304 295.443 269.324 295.482C269.343 295.522 269.355 295.565 269.357 295.609L282.685 413.775C282.878 415.459 282.397 417.15 281.346 418.479C280.296 419.809 278.763 420.669 277.081 420.871Z" fill="#F7A9B4"/>
<path d="M91.935 442.589C90.1451 442.556 88.4284 441.873 87.106 440.666C85.7836 439.459 84.9459 437.812 84.7498 436.033L71.4391 317.902C71.419 317.742 71.4311 317.579 71.4746 317.423C71.5181 317.267 71.5922 317.121 71.6924 316.994C71.7927 316.867 71.9172 316.761 72.0588 316.683C72.2003 316.604 72.356 316.555 72.5169 316.537L269.034 294.388C269.36 294.352 269.687 294.448 269.943 294.653C270.199 294.859 270.363 295.157 270.399 295.483L283.709 413.668C283.826 414.624 283.75 415.593 283.484 416.519C283.219 417.445 282.77 418.308 282.165 419.057C280.959 420.572 279.202 421.548 277.279 421.769L92.7793 442.535C92.4994 442.572 92.2173 442.59 91.935 442.589ZM73.1635 318.28L86.4203 435.853C86.5007 436.579 86.7236 437.282 87.076 437.921C87.4285 438.561 87.9037 439.124 88.4744 439.58C89.0451 440.035 89.7001 440.374 90.4018 440.576C91.1035 440.778 91.8382 440.84 92.5637 440.757L276.955 419.973L277.063 420.871L276.955 419.973C277.677 419.901 278.377 419.684 279.012 419.335C279.648 418.986 280.207 418.513 280.656 417.943C281.108 417.376 281.443 416.726 281.644 416.029C281.844 415.333 281.905 414.603 281.823 413.883L268.566 296.256L73.1635 318.28Z" fill="#243762"/>
<path opacity="0.29" d="M268.441 420.871L101.707 441.637C98.1142 442.05 153.369 371.219 152.974 367.68L72.1755 317.813C72.17 317.723 72.1983 317.634 72.2548 317.565C72.3114 317.495 72.392 317.449 72.4808 317.435L268.998 295.304C269.041 295.299 269.086 295.303 269.128 295.316C269.17 295.329 269.21 295.35 269.243 295.379C269.277 295.407 269.304 295.443 269.324 295.482C269.343 295.522 269.355 295.565 269.357 295.609L202.139 362.075C202.588 365.65 271.961 420.476 268.441 420.871Z" fill="#243762"/>
<path d="M72.535 317.471L153.8 237.101C156.156 234.768 159.228 233.295 162.523 232.92C165.817 232.545 169.142 233.29 171.961 235.035L268.549 295.034C268.589 295.047 268.624 295.072 268.649 295.106C268.674 295.14 268.687 295.181 268.687 295.223C268.687 295.265 268.674 295.306 268.649 295.34C268.624 295.374 268.589 295.399 268.549 295.412L72.1758 317.471" fill="#F7A9B4"/>
<path d="M72.3014 318.369L72.1577 317.058L71.9062 316.807L72.1038 316.609L153.153 236.454C155.646 233.973 158.903 232.404 162.398 232.003C165.892 231.602 169.42 232.392 172.41 234.245L268.998 294.244C269.189 294.366 269.339 294.542 269.429 294.75C269.518 294.959 269.543 295.189 269.501 295.412C269.45 295.636 269.332 295.839 269.161 295.994C268.991 296.148 268.777 296.246 268.549 296.274L72.3014 318.369ZM164.183 233.688C160.527 233.686 157.02 235.133 154.429 237.712L75.0139 316.268L266.375 294.711L171.476 235.79C169.289 234.421 166.763 233.693 164.183 233.688Z" fill="#243762"/>
<path opacity="0.29" d="M72.535 317.471L153.8 237.101C156.156 234.768 159.228 233.295 162.523 232.92C165.817 232.545 169.142 233.29 171.961 235.035L268.549 295.034C268.589 295.047 268.624 295.072 268.649 295.106C268.674 295.14 268.687 295.181 268.687 295.223C268.687 295.265 268.674 295.306 268.649 295.34C268.624 295.374 268.589 295.399 268.549 295.412L72.1758 317.471" fill="#243762"/>
<path d="M162.782 355.285L101.707 440.29L268.441 421.5L189.978 352.231C188.044 350.526 185.775 349.244 183.317 348.469C180.858 347.694 178.265 347.442 175.703 347.73C173.141 348.017 170.668 348.838 168.442 350.139C166.217 351.441 164.289 353.193 162.782 355.285Z" fill="#F7A9B4"/>
<path d="M99.7852 441.422L161.991 354.764L162.728 355.285L161.991 354.764C163.577 352.567 165.605 350.726 167.945 349.361C170.286 347.996 172.886 347.137 175.579 346.839C178.272 346.541 180.998 346.811 183.58 347.631C186.162 348.452 188.544 349.805 190.571 351.602L270.561 422.218L99.7852 441.422ZM177.763 348.531C174.978 348.528 172.233 349.19 169.755 350.461C167.278 351.733 165.14 353.577 163.518 355.842L103.611 439.158L266.321 420.835L189.385 352.896C186.173 350.07 182.041 348.511 177.763 348.513V348.531Z" fill="#243762"/>
<path d="M82.4512 259.214L210.888 244.843C219.312 243.891 226.803 249.047 227.629 256.358L235.874 329.615L200.164 362.381L153.01 367.77L106.306 338.525L98.2946 267.532L82.4512 259.214Z" fill="white"/>
<path d="M152.759 368.614L105.516 339.028L97.5219 268.089L85.2891 257.975L210.797 243.819C214.948 243.306 219.145 244.307 222.617 246.64C224.231 247.698 225.595 249.094 226.616 250.732C227.636 252.37 228.288 254.21 228.527 256.125L236.826 329.776L200.558 363.117L152.759 368.614ZM107.186 337.986L153.172 366.728L199.714 361.501L234.886 329.166L226.659 256.394C226.451 254.734 225.884 253.14 224.997 251.722C224.109 250.304 222.923 249.097 221.521 248.185C218.405 246.101 214.643 245.208 210.923 245.67L85.3968 259.825L99.1207 267.011L107.186 337.986Z" fill="#243762"/>
<path opacity="0.29" d="M162.782 348.01L101.707 440.344L268.441 421.554L189.978 344.956C188.046 343.248 185.777 341.964 183.318 341.187C180.859 340.41 178.265 340.158 175.702 340.445C173.139 340.733 170.665 341.555 168.44 342.858C166.215 344.161 164.287 345.916 162.782 348.01Z" fill="#243762"/>
<path d="M162.782 355.285L101.707 440.29L268.441 421.5L189.978 352.231C188.044 350.526 185.775 349.244 183.317 348.469C180.858 347.694 178.265 347.442 175.703 347.73C173.141 348.017 170.668 348.838 168.442 350.139C166.217 351.441 164.289 353.193 162.782 355.285Z" fill="#F7A9B4"/>
<path d="M99.7852 441.422L161.991 354.764L162.728 355.285L161.991 354.764C163.577 352.567 165.605 350.726 167.945 349.361C170.286 347.996 172.886 347.137 175.579 346.839C178.272 346.541 180.998 346.811 183.58 347.631C186.162 348.452 188.544 349.805 190.571 351.602L270.561 422.218L99.7852 441.422ZM177.763 348.531C174.978 348.528 172.233 349.19 169.755 350.461C167.278 351.733 165.14 353.577 163.518 355.842L103.611 439.158L266.321 420.835L189.385 352.896C186.173 350.07 182.041 348.511 177.763 348.513V348.531Z" fill="#243762"/>
<path opacity="0.35" d="M168.71 374.111L123.802 436.518L246.256 422.721L188.631 371.848C187.212 370.603 185.548 369.668 183.746 369.104C181.945 368.54 180.045 368.358 178.169 368.571C176.294 368.784 174.483 369.387 172.854 370.341C171.225 371.295 169.813 372.58 168.71 374.111Z" fill="#ECF1F7"/>
<path d="M73.0926 316.857L72.1426 318.382L152.5 368.461L153.45 366.936L73.0926 316.857Z" fill="#243762"/>
<path d="M268.749 294.803L201.564 361.523L202.83 362.798L270.015 296.078L268.749 294.803Z" fill="#243762"/>
<path d="M101.905 300.244L79.487 302.777L75.8944 270.801C75.5762 267.965 76.396 265.118 78.1741 262.885C79.9521 260.652 82.5432 259.216 85.3789 258.891L86.4028 258.765C89.242 258.447 92.0913 259.27 94.3245 261.052C96.5577 262.834 97.9921 265.429 98.3124 268.268L101.905 300.244Z" fill="#ECF1F7"/>
<path d="M78.6962 303.765L74.9958 270.891C74.8235 269.368 74.9531 267.826 75.3772 266.353C75.8014 264.88 76.5118 263.506 77.4679 262.308C78.4239 261.11 79.6067 260.112 80.9487 259.372C82.2907 258.631 83.7655 258.163 85.2887 257.993L86.2946 257.885C87.8166 257.71 89.3581 257.838 90.8308 258.26C92.3035 258.682 93.6784 259.39 94.8766 260.345C96.0748 261.3 97.0728 262.481 97.8134 263.823C98.554 265.164 99.0225 266.638 99.1922 268.16L102.911 301.034L78.6962 303.765ZM87.6778 259.61H86.5641L85.5402 259.735C84.2525 259.878 83.0057 260.274 81.8712 260.9C80.7368 261.526 79.737 262.369 78.9293 263.382C78.1216 264.395 77.5218 265.558 77.1643 266.803C76.8068 268.049 76.6987 269.352 76.846 270.639L80.4387 301.735L100.917 299.507L97.4138 268.43C97.1445 266.021 95.9974 263.796 94.1916 262.179C92.3858 260.562 90.0478 259.666 87.6239 259.664L87.6778 259.61Z" fill="#243762"/>
<path d="M117.084 283.591C116.862 283.597 116.646 283.519 116.48 283.372C116.313 283.226 116.208 283.022 116.186 282.801C116.161 282.565 116.229 282.329 116.377 282.144C116.526 281.959 116.741 281.84 116.976 281.813L210.025 271.322C210.263 271.297 210.501 271.365 210.689 271.513C210.877 271.66 211 271.876 211.031 272.113C211.056 272.348 210.987 272.584 210.839 272.769C210.691 272.954 210.476 273.073 210.241 273.101L117.174 283.591H117.084Z" fill="#243762"/>
<path d="M120.676 315.226C120.438 315.24 120.204 315.159 120.025 315.001C119.847 314.842 119.739 314.62 119.724 314.381C119.71 314.143 119.791 313.909 119.949 313.731C120.108 313.552 120.33 313.444 120.569 313.429L213.636 302.938C213.874 302.912 214.113 302.982 214.3 303.132C214.487 303.282 214.606 303.5 214.632 303.738C214.659 303.976 214.589 304.215 214.439 304.402C214.289 304.589 214.071 304.709 213.833 304.735L120.784 315.208L120.676 315.226Z" fill="#243762"/>
<path d="M118.88 299.238C118.642 299.252 118.408 299.171 118.23 299.013C118.051 298.855 117.943 298.632 117.928 298.394C117.914 298.155 117.995 297.921 118.153 297.743C118.312 297.564 118.534 297.456 118.773 297.442L158.992 292.915C159.23 292.888 159.469 292.958 159.656 293.108C159.843 293.258 159.963 293.476 159.989 293.714C160.015 293.952 159.946 294.191 159.796 294.378C159.646 294.565 159.428 294.685 159.19 294.711L118.97 299.238H118.88Z" fill="#243762"/>
<path d="M169.626 293.507C169.407 293.509 169.196 293.428 169.033 293.282C168.87 293.136 168.768 292.935 168.745 292.717C168.72 292.481 168.789 292.245 168.937 292.06C169.085 291.875 169.3 291.756 169.536 291.729L211.857 286.933C212.094 286.912 212.33 286.986 212.515 287.136C212.699 287.287 212.818 287.504 212.845 287.741C212.87 287.977 212.801 288.213 212.653 288.398C212.505 288.583 212.29 288.702 212.054 288.729L169.733 293.489L169.626 293.507Z" fill="#243762"/>
<path d="M122.706 333.172C122.488 333.169 122.279 333.087 122.117 332.942C121.955 332.796 121.852 332.597 121.825 332.381C121.81 332.264 121.819 332.145 121.851 332.032C121.883 331.918 121.937 331.812 122.011 331.72C122.085 331.627 122.176 331.551 122.28 331.495C122.384 331.439 122.498 331.404 122.616 331.393L162.835 326.848C163.074 326.822 163.312 326.892 163.499 327.042C163.686 327.191 163.806 327.41 163.832 327.648C163.858 327.886 163.789 328.125 163.639 328.312C163.489 328.499 163.271 328.618 163.033 328.645L122.813 333.172H122.706Z" fill="#243762"/>
</g>
<defs>
<clipPath id="clip0_573_4190">
<rect width="572" height="478" fill="white" transform="translate(0 0.930237)"/>
</clipPath>
</defs>
</svg>
