<svg width="32" height="26" viewBox="0 0 32 26" fill="none" xmlns="http://www.w3.org/2000/svg">
<path fill-rule="evenodd" clip-rule="evenodd" d="M0.462771 7.28939C-0.0041343 11.6275 0.0166782 16.6309 0.666384 20.9514C1.02588 23.3421 2.977 25.1748 5.38544 25.3842L7.9025 25.603C13.1509 26.0592 18.429 26.0592 23.6774 25.603L26.1945 25.3842C28.6029 25.1748 30.554 23.3421 30.9135 20.9514C31.5632 16.6308 31.5841 11.6278 31.1172 7.28965C31.0568 6.78671 30.9889 6.28446 30.9135 5.78304C30.554 3.39239 28.6029 1.55965 26.1945 1.35029L23.6774 1.13148C18.429 0.675248 13.1509 0.675248 7.9025 1.13148L5.38544 1.35029C2.977 1.55965 1.02588 3.39239 0.666384 5.78304C0.590996 6.28437 0.523125 6.78654 0.462771 7.28939ZM8.119 3.62209C13.2233 3.17838 18.3566 3.17838 23.4609 3.62209L25.978 3.84089C27.2352 3.95018 28.2537 4.90688 28.4413 6.1548C28.4608 6.2844 28.4798 6.41405 28.4982 6.54376L19.2299 11.6928C17.0905 12.8814 14.4893 12.8814 12.3499 11.6928L3.0817 6.54382C3.10013 6.41409 3.1191 6.28442 3.13859 6.1548C3.32625 4.90687 4.34473 3.95018 5.60195 3.84089L8.119 3.62209ZM28.8041 9.23371C29.1274 13.0133 29.0065 16.8214 28.4413 20.5796C28.2537 21.8276 27.2352 22.7843 25.978 22.8935L23.4609 23.1124C18.3566 23.5561 13.2233 23.5561 8.119 23.1124L5.60195 22.8935C4.34473 22.7843 3.32625 21.8276 3.13859 20.5796C2.57344 16.8214 2.4525 13.0133 2.77578 9.23377L11.1358 13.8782C14.0302 15.4862 17.5496 15.4862 20.444 13.8782L28.8041 9.23371Z" fill="#8F8F8F"/>
</svg>
