<svg width="29" height="36" viewBox="0 0 29 36" fill="none" xmlns="http://www.w3.org/2000/svg">
<path fill-rule="evenodd" clip-rule="evenodd" d="M6.87309 15.5446C6.87309 11.1724 10.4175 7.62797 14.7898 7.62797C19.162 7.62797 22.7064 11.1724 22.7064 15.5446C22.7064 19.9169 19.162 23.4613 14.7898 23.4613C10.4175 23.4613 6.87309 19.9169 6.87309 15.5446ZM14.7898 10.128C11.7982 10.128 9.37309 12.5531 9.37309 15.5446C9.37309 18.5362 11.7982 20.9613 14.7898 20.9613C17.7813 20.9613 20.2064 18.5362 20.2064 15.5446C20.2064 12.5531 17.7813 10.128 14.7898 10.128Z" fill="#8F8F8F"/>
<path fill-rule="evenodd" clip-rule="evenodd" d="M0.663694 13.6394C1.25424 6.47504 7.24116 0.961304 14.4298 0.961304H15.1497C22.3384 0.961304 28.3253 6.47504 28.9158 13.6394C29.233 17.488 28.0443 21.3095 25.5998 24.2989L17.6114 34.0686C16.1531 35.8521 13.4265 35.8521 11.9681 34.0686L3.97969 24.2989C1.53526 21.3095 0.346462 17.488 0.663694 13.6394ZM14.4298 3.4613C8.54224 3.4613 3.63891 7.9771 3.15524 13.8448C2.89122 17.0478 3.88063 20.2284 5.91506 22.7164L13.9035 32.4861C14.3616 33.0462 15.218 33.0462 15.676 32.4861L23.6645 22.7164C25.6989 20.2284 26.6883 17.0478 26.4243 13.8448C25.9406 7.9771 21.0373 3.4613 15.1497 3.4613H14.4298Z" fill="#8F8F8F"/>
</svg>
