<svg width="30" height="31" viewBox="0 0 30 31" fill="none" xmlns="http://www.w3.org/2000/svg">
<path fill-rule="evenodd" clip-rule="evenodd" d="M4.52367 12.2999C7.50253 18.7863 12.8033 23.9433 19.3929 26.7376L19.4137 26.7464L20.6868 27.3138C22.3078 28.0361 24.2132 27.5231 25.2525 26.0847L27.3765 23.1451C27.5062 22.9655 27.4728 22.7159 27.3004 22.5768L23.5925 19.5854C23.4082 19.4367 23.1371 19.4714 22.9961 19.6617L21.553 21.609C21.2025 22.0819 20.5696 22.2462 20.0333 22.0035C15.106 19.7736 11.1465 15.8141 8.91659 10.8868C8.6739 10.3505 8.83823 9.71759 9.31115 9.36712L11.2584 7.92402C11.4487 7.78301 11.4834 7.51196 11.3347 7.32764L8.34292 3.61923C8.20387 3.44687 7.95429 3.4134 7.77474 3.54302L4.81925 5.67661C3.37127 6.72193 2.86134 8.64334 3.60044 10.2691L4.52268 12.2977C4.52301 12.2984 4.52334 12.2991 4.52367 12.2999ZM18.4064 29.0348C11.2464 25.9955 5.48745 20.3904 2.25071 13.3408L2.24876 13.3366L1.32459 11.3037C0.0927576 8.59415 0.942638 5.39181 3.35594 3.64961L6.31143 1.51602C7.5683 0.608672 9.31534 0.843013 10.2887 2.0495L13.2804 5.75791C14.3213 7.04819 14.0789 8.94552 12.747 9.93259L11.6311 10.7595C13.516 14.4168 16.5033 17.4041 20.1606 19.289L20.9875 18.1731C21.9746 16.8412 23.8719 16.5988 25.1622 17.6397L28.8701 20.631C30.077 21.6046 30.311 23.3524 29.4029 24.6092L27.2789 27.5488C25.5467 29.9463 22.3711 30.8012 19.6693 29.5974L18.4064 29.0348Z" fill="#8F8F8F"/>
</svg>
