<svg width="21" height="20" viewBox="0 0 21 20" fill="none" xmlns="http://www.w3.org/2000/svg">
<circle cx="10.5833" cy="10.0174" r="9.87332" fill="#009045" fill-opacity="0.22"/>
<path d="M13.3623 7.13634L9.75514 11.4282L7.78134 9.42791C7.78127 9.42783 7.78119 9.42775 7.78111 9.42767C7.7177 9.36303 7.64205 9.31168 7.55857 9.27661C7.47499 9.24149 7.38525 9.22341 7.29459 9.22341C7.20393 9.22341 7.11418 9.24149 7.0306 9.27661C6.94704 9.31172 6.87131 9.36314 6.80786 9.42787C6.67989 9.55838 6.6082 9.73388 6.6082 9.91666C6.6082 10.0994 6.67989 10.2749 6.80786 10.4055L6.80786 10.4055L6.80825 10.4059L9.2944 12.9252C9.29444 12.9252 9.29448 12.9252 9.29452 12.9253C9.35945 12.9914 9.43717 13.0435 9.52294 13.0786C9.60876 13.1137 9.70084 13.1309 9.79353 13.1291C9.88623 13.1274 9.97759 13.1067 10.062 13.0685C10.1465 13.0302 10.2222 12.9751 10.2847 12.9066L10.2847 12.9066L10.2889 12.9018L14.3721 8.07485C14.6268 7.80313 14.622 7.37554 14.3593 7.10976C14.2959 7.04516 14.2203 6.99383 14.1368 6.95877C14.0533 6.92365 13.9635 6.90557 13.8729 6.90557C13.7822 6.90557 13.6925 6.92365 13.6089 6.95877C13.5259 6.99365 13.4506 7.04464 13.3874 7.10878C13.3785 7.11751 13.3702 7.12671 13.3623 7.13634Z" fill="#009045" stroke="#009045" stroke-width="0.35"/>
</svg>
