<svg width="109" height="72" viewBox="0 0 109 72" fill="none" xmlns="http://www.w3.org/2000/svg">
<path d="M80.988 38.5297C76.8473 35.7715 71.9537 35.0273 67.4655 36.063C68.623 31.716 66.9641 26.9276 63.0106 24.2943C58.0435 20.9857 51.3354 22.3268 48.0298 27.2895C47.3526 28.3066 46.8525 29.4311 46.5505 30.6152C36.4096 24.2302 22.9715 27.0527 16.2947 37.0769C9.50955 47.2634 12.2747 61.0255 22.4709 67.817C32.6671 74.6086 46.432 71.8568 53.217 61.6703C53.8843 60.6667 54.4703 59.6113 54.9693 58.5142C56.1571 62.0153 58.4653 65.1659 61.7823 67.3753C69.7552 72.686 80.5194 70.534 85.825 62.5686C91.1305 54.6033 88.9609 43.8403 80.988 38.5297ZM56.4879 44.0648C56.4358 44.1492 56.388 44.2327 56.3386 44.3189C56.3183 44.2299 56.2953 44.1391 56.275 44.0501C56.3457 44.0575 56.4164 44.0648 56.4879 44.0648Z" fill="url(#paint0_linear_1414_2653)"/>
<path d="M82.9581 29.7722C79.0684 32.2365 73.3496 30.189 73.3496 30.189C73.3496 30.189 73.9412 24.1474 77.8335 21.6859C81.7232 19.2218 87.4395 21.2665 87.4395 21.2665C87.4395 21.2665 86.8479 27.3082 82.9581 29.7722Z" fill="url(#paint1_linear_1414_2653)"/>
<path d="M73.4027 69.5775C73.3299 69.5488 73.2706 69.4936 73.2366 69.4231C73.2027 69.3526 73.1965 69.2719 73.2194 69.1971C73.2423 69.1222 73.2926 69.0588 73.3602 69.0194C73.4278 68.98 73.5078 68.9675 73.5842 68.9844C74.3374 69.157 75.0953 69.3082 75.8571 69.4379C75.8972 69.4448 75.9357 69.4596 75.9701 69.4813C76.0046 69.5031 76.0345 69.5315 76.058 69.5648C76.0815 69.5981 76.0982 69.6357 76.1071 69.6755C76.1161 69.7153 76.1171 69.7565 76.1101 69.7966C76.096 69.8777 76.0503 69.9499 75.9832 69.9974C75.916 70.045 75.8327 70.064 75.7516 70.0504C74.9781 69.9185 74.2085 69.7651 73.4436 69.5905C73.4299 69.5865 73.416 69.5827 73.4027 69.5775ZM78.0017 70.3712C77.9312 70.3438 77.8731 70.2917 77.8383 70.2245C77.8034 70.1573 77.7943 70.0798 77.8125 70.0064C77.8308 69.9329 77.8752 69.8687 77.9374 69.8257C77.9996 69.7826 78.0754 69.7637 78.1505 69.7726C78.92 69.8642 79.6951 69.9371 80.4559 69.9893C80.5379 69.9951 80.6143 70.0331 80.6684 70.095C80.7225 70.1569 80.7499 70.2377 80.7447 70.3198C80.7392 70.402 80.7013 70.4786 80.6393 70.5329C80.5774 70.5872 80.4964 70.6147 80.4142 70.6094C79.6421 70.5572 78.8564 70.4829 78.0766 70.3901C78.051 70.3863 78.026 70.38 78.0017 70.3712ZM82.6524 70.682C82.5846 70.6556 82.5282 70.6063 82.493 70.5426C82.4579 70.4789 82.4462 70.4049 82.46 70.3335C82.4738 70.2621 82.5123 70.1978 82.5686 70.1518C82.625 70.1058 82.6957 70.0811 82.7684 70.0819C83.5393 70.0919 84.3103 70.0786 85.0804 70.0423C85.1212 70.0403 85.1619 70.0464 85.2002 70.0602C85.2386 70.074 85.2738 70.0952 85.3039 70.1227C85.334 70.1502 85.3585 70.1833 85.3758 70.2202C85.3931 70.2571 85.4029 70.2971 85.4047 70.3378C85.4127 70.5093 85.2805 70.6548 85.1092 70.6631C84.3418 70.7003 83.5518 70.7135 82.76 70.7024C82.7231 70.7028 82.6865 70.6958 82.6524 70.682ZM87.3058 70.4566C87.2527 70.4363 87.2062 70.4017 87.1715 70.3567C87.1368 70.3117 87.1152 70.258 87.109 70.2014C87.1044 70.1609 87.1078 70.1199 87.1191 70.0807C87.1303 70.0415 87.1491 70.0049 87.1745 69.973C87.1999 69.9411 87.2313 69.9146 87.267 69.8948C87.3027 69.8751 87.3419 69.8625 87.3824 69.8579C88.1586 69.7686 88.9258 69.6518 89.6632 69.5113C89.7033 69.5035 89.7445 69.5037 89.7845 69.512C89.8244 69.5202 89.8624 69.5363 89.8961 69.5593C89.9298 69.5823 89.9586 69.6118 89.9808 69.646C90.0031 69.6802 90.0183 69.7185 90.0256 69.7587C90.0411 69.8396 90.0239 69.9233 89.9777 69.9915C89.9315 70.0597 89.8601 70.1067 89.7793 70.1223C89.0083 70.2691 88.2321 70.3872 87.4524 70.4765C87.4027 70.4808 87.3526 70.474 87.3058 70.4566ZM91.8773 69.5746C91.8319 69.5574 91.7913 69.5297 91.7587 69.4937C91.7261 69.4578 91.7024 69.4146 91.6897 69.3677C91.6678 69.2882 91.6783 69.2031 91.7188 69.1313C91.7594 69.0594 91.8268 69.0065 91.9063 68.9842C92.6449 68.7777 93.3734 68.5366 94.0894 68.2617C94.1663 68.2324 94.2517 68.2347 94.3269 68.2682C94.4021 68.3017 94.461 68.3637 94.4906 68.4405C94.5515 68.6004 94.4715 68.78 94.3115 68.8425C93.5774 69.1244 92.8303 69.3714 92.0729 69.5827C92.0086 69.6014 91.9399 69.5986 91.8773 69.5746ZM96.2134 67.8966C96.1416 67.8692 96.0826 67.8159 96.0484 67.7471C96.011 67.6735 96.0045 67.5881 96.0301 67.5097C96.0557 67.4313 96.1115 67.3662 96.185 67.3289C96.8658 66.9815 97.5265 66.5961 98.1641 66.1746C98.1981 66.152 98.2362 66.1363 98.2762 66.1285C98.3163 66.1207 98.3575 66.1208 98.3975 66.1289C98.4374 66.137 98.4755 66.1529 98.5093 66.1757C98.5432 66.1984 98.5722 66.2277 98.5947 66.2617C98.6402 66.3305 98.6565 66.4146 98.6401 66.4954C98.6237 66.5763 98.5759 66.6473 98.5072 66.693C97.8501 67.1279 97.1689 67.5255 96.467 67.8837C96.4279 67.9031 96.3852 67.9142 96.3416 67.9164C96.2979 67.9186 96.2543 67.9119 96.2134 67.8966ZM100.08 65.3259C100.03 65.3065 99.9858 65.2742 99.9518 65.2325C99.9177 65.1907 99.8952 65.1408 99.8862 65.0877C99.8773 65.0346 99.8823 64.9801 99.9008 64.9295C99.9193 64.8789 99.9507 64.834 99.9918 64.7992C100.572 64.3041 101.122 63.7743 101.639 63.2128C101.667 63.1828 101.7 63.1585 101.737 63.1413C101.774 63.1241 101.814 63.1144 101.854 63.1127C101.895 63.1109 101.936 63.1173 101.974 63.1313C102.013 63.1453 102.048 63.1667 102.078 63.1943C102.108 63.2219 102.132 63.2551 102.149 63.2921C102.166 63.3291 102.176 63.3691 102.178 63.4098C102.18 63.4506 102.173 63.4912 102.159 63.5295C102.145 63.5678 102.124 63.603 102.096 63.633C101.563 64.2136 100.994 64.761 100.394 65.2722C100.302 65.3485 100.182 65.3649 100.08 65.3259ZM103.223 61.9112C103.179 61.8942 103.139 61.8671 103.106 61.8323C103.074 61.7974 103.05 61.7555 103.037 61.71C103.023 61.6644 103.02 61.6164 103.028 61.5695C103.036 61.5226 103.055 61.4782 103.083 61.4397C103.528 60.8198 103.94 60.1756 104.314 59.5102C104.334 59.4745 104.361 59.4431 104.393 59.4179C104.425 59.3926 104.462 59.374 104.501 59.363C104.54 59.3521 104.581 59.3491 104.622 59.3541C104.662 59.3592 104.702 59.3723 104.737 59.3926C104.773 59.4126 104.804 59.4395 104.829 59.4717C104.854 59.5038 104.873 59.5407 104.884 59.58C104.895 59.6194 104.898 59.6605 104.893 59.7011C104.888 59.7416 104.875 59.7808 104.855 59.8164C104.469 60.5024 104.045 61.1663 103.586 61.8052C103.545 61.8598 103.487 61.8997 103.422 61.9188C103.357 61.938 103.287 61.9353 103.223 61.9112ZM105.536 57.8777L105.515 57.8698C105.478 57.8526 105.445 57.8283 105.417 57.7982C105.39 57.7682 105.368 57.733 105.354 57.6947C105.34 57.6563 105.334 57.6156 105.336 57.5749C105.338 57.5341 105.347 57.4941 105.365 57.4571C105.688 56.761 105.981 56.051 106.241 55.3291C106.254 55.2899 106.275 55.2536 106.303 55.2225C106.33 55.1914 106.363 55.1661 106.4 55.148C106.437 55.1299 106.478 55.1195 106.519 55.1172C106.56 55.115 106.602 55.1211 106.641 55.1351C106.68 55.1491 106.715 55.1707 106.746 55.1987C106.776 55.2267 106.801 55.2605 106.818 55.2981C106.835 55.3357 106.845 55.3764 106.846 55.4178C106.847 55.4591 106.84 55.5003 106.825 55.5389C106.766 55.7029 106.704 55.8708 106.64 56.0371C106.421 56.6058 106.183 57.167 105.927 57.7199C105.893 57.7905 105.835 57.8459 105.762 57.8752C105.69 57.9044 105.609 57.9053 105.536 57.8777ZM107.092 53.4914C107.021 53.4641 106.964 53.4124 106.929 53.3458C106.894 53.2791 106.884 53.2021 106.901 53.1288C107.084 52.3651 107.215 51.6064 107.29 50.875C107.298 50.7932 107.339 50.718 107.402 50.6659C107.466 50.6138 107.548 50.5892 107.63 50.5974C107.67 50.6016 107.71 50.6138 107.746 50.6332C107.781 50.6526 107.813 50.6789 107.839 50.7106C107.864 50.7423 107.884 50.7787 107.895 50.8178C107.907 50.8569 107.91 50.8979 107.906 50.9384C107.828 51.6979 107.692 52.4825 107.503 53.2733C107.484 53.3534 107.434 53.4226 107.364 53.4657C107.293 53.5087 107.209 53.5222 107.129 53.503C107.118 53.4999 107.104 53.4961 107.092 53.4914ZM107.546 48.8712C107.491 48.8496 107.442 48.8124 107.407 48.7641C107.372 48.7158 107.351 48.6584 107.348 48.5987C107.304 47.826 107.192 47.0714 107.012 46.3569C106.992 46.277 107.005 46.1924 107.047 46.1216C107.089 46.0509 107.158 45.9998 107.238 45.9796C107.277 45.9696 107.318 45.9675 107.359 45.9734C107.399 45.9793 107.438 45.9931 107.473 46.014C107.508 46.0349 107.538 46.0625 107.562 46.0952C107.587 46.1279 107.604 46.1651 107.614 46.2046C107.803 46.9562 107.921 47.7493 107.968 48.562C107.97 48.6027 107.965 48.6435 107.951 48.6821C107.938 48.7206 107.917 48.7561 107.89 48.7865C107.863 48.817 107.83 48.8418 107.793 48.8595C107.756 48.8773 107.716 48.8876 107.676 48.8899C107.63 48.8934 107.587 48.8865 107.546 48.8712ZM98.1708 44.8909C98.0972 44.8626 98.0372 44.8073 98.0029 44.7362C97.9687 44.6651 97.9629 44.5837 97.9867 44.5084C98.0113 44.4297 98.0661 44.364 98.1391 44.3257C98.2121 44.2874 98.2974 44.2797 98.3761 44.3042C99.0631 44.52 99.8241 44.6335 100.576 44.6323C100.658 44.6343 100.735 44.668 100.791 44.7262C100.848 44.7844 100.88 44.8625 100.88 44.9437C100.88 45.025 100.848 45.103 100.791 45.161C100.734 45.219 100.657 45.2525 100.576 45.2543C99.7609 45.2554 98.936 45.1312 98.1889 44.8978C98.1833 44.8944 98.1757 44.8928 98.1708 44.8909ZM96.1476 43.7787C96.1108 43.7642 96.0769 43.7432 96.0477 43.7166C95.2851 43.0054 94.9875 42.1576 95.2115 41.3303C95.233 41.251 95.285 41.1833 95.3563 41.1423C95.4275 41.1012 95.5121 41.09 95.5916 41.1112C95.6309 41.1219 95.6678 41.1402 95.7 41.1652C95.7323 41.1902 95.7593 41.2212 95.7795 41.2567C95.7998 41.2921 95.8128 41.3311 95.8179 41.3716C95.823 41.4121 95.8201 41.4531 95.8093 41.4925C95.6035 42.2545 96.0546 42.8756 96.4689 43.2628C96.5216 43.3117 96.5555 43.3774 96.565 43.4487C96.5745 43.5199 96.5589 43.5922 96.5209 43.6532C96.4829 43.7142 96.4249 43.7601 96.3568 43.783C96.2887 43.8058 96.2147 43.8043 96.1476 43.7787ZM102.757 44.8847C102.713 44.868 102.673 44.8415 102.641 44.8072C102.609 44.7729 102.585 44.7318 102.571 44.6869C102.547 44.6082 102.555 44.5231 102.593 44.4501C102.631 44.3771 102.696 44.3221 102.775 44.2971C103.485 44.0748 104.155 43.7385 104.757 43.3013C104.79 43.2772 104.827 43.2599 104.867 43.2504C104.907 43.2408 104.948 43.2392 104.988 43.2456C105.028 43.2519 105.067 43.2662 105.102 43.2876C105.137 43.3089 105.167 43.337 105.191 43.37C105.215 43.4031 105.232 43.4405 105.241 43.4802C105.251 43.52 105.252 43.5611 105.246 43.6015C105.24 43.6418 105.225 43.6805 105.204 43.7153C105.183 43.7501 105.155 43.7803 105.122 43.8043C104.465 44.2815 103.735 44.6483 102.96 44.8902C102.892 44.9127 102.82 44.9088 102.757 44.8847ZM106.404 44.3889C106.331 44.3611 106.271 44.3069 106.237 44.2372C105.904 43.5623 105.493 42.9291 105.012 42.3506C104.986 42.3193 104.966 42.2832 104.954 42.2442C104.942 42.2053 104.937 42.1643 104.941 42.1237C104.945 42.0831 104.956 42.0436 104.975 42.0075C104.994 41.9715 105.02 41.9395 105.052 41.9134C105.083 41.8873 105.119 41.8676 105.158 41.8555C105.197 41.8433 105.237 41.8389 105.278 41.8426C105.318 41.8462 105.358 41.8578 105.394 41.8766C105.43 41.8955 105.462 41.9213 105.488 41.9525C106 42.569 106.438 43.2433 106.792 43.9616C106.869 44.1147 106.806 44.3025 106.652 44.3783C106.571 44.4168 106.481 44.4187 106.404 44.3889ZM96.8817 39.974C96.8272 39.9528 96.7798 39.9167 96.7448 39.8698C96.7099 39.8229 96.6888 39.7671 96.684 39.7088C96.6793 39.6505 96.691 39.592 96.7179 39.5401C96.7448 39.4881 96.7858 39.4448 96.8362 39.415C97.5249 39.0135 98.3248 38.8008 99.2136 38.7836C99.2544 38.7828 99.2949 38.7901 99.3328 38.805C99.3707 38.8199 99.4053 38.8422 99.4346 38.8705C99.4639 38.8988 99.4874 38.9326 99.5036 38.97C99.5198 39.0074 99.5284 39.0476 99.5291 39.0883C99.5298 39.1291 99.5226 39.1696 99.5077 39.2075C99.4928 39.2455 99.4705 39.2801 99.4422 39.3095C99.4139 39.3389 99.3801 39.3624 99.3427 39.3786C99.3054 39.3949 99.2652 39.4037 99.2244 39.4044C98.4433 39.4197 97.7451 39.6031 97.149 39.9511C97.1091 39.9749 97.0643 39.9893 97.018 39.9932C96.9717 39.9972 96.9251 39.9906 96.8817 39.974ZM106.466 42.2006C106.44 42.1904 106.416 42.1773 106.393 42.1616C106.36 42.1375 106.332 42.1071 106.311 42.0721C106.29 42.0372 106.276 41.9984 106.269 41.958C106.263 41.9176 106.265 41.8763 106.275 41.8366C106.285 41.797 106.302 41.7596 106.326 41.7267C106.749 41.1495 107.111 40.4864 107.402 39.757C107.432 39.6812 107.491 39.6204 107.566 39.5876C107.641 39.5548 107.725 39.5526 107.801 39.5815L107.805 39.5829C107.882 39.6134 107.943 39.6731 107.975 39.7487C108.008 39.8244 108.009 39.9098 107.978 39.9863C107.667 40.7649 107.28 41.4743 106.826 42.0937C106.786 42.1486 106.729 42.1887 106.664 42.208C106.599 42.2273 106.529 42.2247 106.466 42.2006ZM103.442 40.8566C103.417 40.8467 103.393 40.8339 103.372 40.8185C102.749 40.3709 102.082 40.0192 101.397 39.7779C101.32 39.7503 101.256 39.693 101.221 39.6186C101.186 39.5442 101.181 39.4588 101.209 39.3812C101.223 39.3427 101.244 39.3073 101.271 39.2769C101.298 39.2466 101.331 39.2219 101.368 39.2043C101.405 39.1868 101.445 39.1766 101.485 39.1745C101.526 39.1724 101.567 39.1784 101.605 39.1921C102.344 39.4531 103.065 39.8321 103.734 40.3144C103.874 40.415 103.905 40.6082 103.806 40.7481C103.721 40.8645 103.57 40.9058 103.442 40.8566ZM108.225 37.9244C108.157 37.8982 108.101 37.8487 108.065 37.7848C108.03 37.7208 108.019 37.6465 108.033 37.5749C108.17 36.8676 108.263 36.1028 108.308 35.3041C108.313 35.2218 108.35 35.1448 108.412 35.0898C108.473 35.0348 108.554 35.0064 108.636 35.0107C108.718 35.0154 108.795 35.0527 108.85 35.1141C108.905 35.1756 108.933 35.2563 108.929 35.3386C108.883 36.1661 108.786 36.9575 108.642 37.6928C108.626 37.7737 108.579 37.8451 108.511 37.8913C108.443 37.9374 108.359 37.9546 108.278 37.939C108.26 37.936 108.242 37.9311 108.225 37.9244ZM108.513 33.2833C108.457 33.2616 108.408 33.2241 108.373 33.1752C108.338 33.1263 108.317 33.0683 108.314 33.008C108.278 32.2401 108.212 31.4738 108.115 30.7111C108.105 30.6293 108.128 30.5469 108.178 30.4818C108.229 30.4166 108.303 30.374 108.385 30.3633C108.466 30.3532 108.549 30.3759 108.614 30.4264C108.679 30.477 108.721 30.5512 108.732 30.6328C108.832 31.4409 108.901 32.2289 108.934 32.9783C108.937 33.0298 108.926 33.081 108.904 33.1275C108.881 33.1739 108.848 33.2141 108.806 33.2443C108.764 33.2746 108.716 33.294 108.665 33.3008C108.613 33.3076 108.561 33.3016 108.513 33.2833ZM107.902 28.6707C107.855 28.6528 107.813 28.6238 107.78 28.5861C107.747 28.5484 107.723 28.5032 107.712 28.4544C107.529 27.7139 107.299 26.9858 107.023 26.2747C106.993 26.1979 106.994 26.1122 107.028 26.0367C107.061 25.9611 107.123 25.9018 107.199 25.8718C107.237 25.8569 107.278 25.8496 107.319 25.8504C107.359 25.8512 107.4 25.8601 107.437 25.8765C107.474 25.8928 107.508 25.9164 107.536 25.9459C107.564 25.9754 107.587 26.0101 107.601 26.0481C107.887 26.7845 108.125 27.5385 108.315 28.3054C108.328 28.3605 108.326 28.4181 108.309 28.4722C108.292 28.5263 108.261 28.5748 108.219 28.6123C108.176 28.6499 108.124 28.6752 108.069 28.6855C108.013 28.6958 107.955 28.6907 107.902 28.6707ZM106.227 24.3423C106.157 24.3156 106.1 24.2649 106.065 24.1993C105.701 23.5267 105.301 22.875 104.865 22.2471C104.842 22.2136 104.825 22.1759 104.816 22.136C104.808 22.0962 104.807 22.055 104.814 22.0148C104.821 21.9747 104.837 21.9363 104.859 21.9021C104.881 21.8678 104.909 21.8382 104.943 21.8149C105.083 21.7169 105.277 21.7509 105.374 21.8925C105.824 22.5394 106.237 23.2112 106.611 23.9047C106.63 23.9406 106.642 23.98 106.647 24.0206C106.651 24.0612 106.647 24.1022 106.635 24.1413C106.623 24.1804 106.604 24.2168 106.578 24.2484C106.552 24.28 106.52 24.3062 106.484 24.3255C106.445 24.3467 106.402 24.3593 106.357 24.3622C106.313 24.3651 106.268 24.3583 106.227 24.3423ZM58.8986 3.60046C58.8403 3.57809 58.79 3.53865 58.7545 3.48729C58.7189 3.43593 58.6996 3.37503 58.6992 3.31256C58.6987 3.23025 58.7308 3.15108 58.7884 3.09231C58.846 3.03355 58.9246 2.99995 59.0069 2.99886C59.68 2.99366 60.4699 3.02086 61.3573 3.07975C61.398 3.08248 61.4377 3.09319 61.4742 3.11128C61.5108 3.12937 61.5434 3.15448 61.5702 3.18517C61.597 3.21587 61.6175 3.25154 61.6305 3.29016C61.6435 3.32878 61.6488 3.36959 61.6461 3.41026C61.6405 3.49244 61.6026 3.56907 61.5407 3.62336C61.4787 3.67764 61.3978 3.70516 61.3156 3.69989C60.4441 3.6429 59.6681 3.6157 59.0114 3.62159C58.9728 3.62165 58.9345 3.61448 58.8986 3.60046ZM103.584 20.5185C103.535 20.5001 103.492 20.4698 103.459 20.4304C102.96 19.848 102.436 19.288 101.887 18.7519C101.858 18.7234 101.835 18.6894 101.819 18.6519C101.803 18.6144 101.795 18.5742 101.794 18.5334C101.794 18.4927 101.802 18.4523 101.817 18.4145C101.832 18.3767 101.855 18.3423 101.883 18.3133C101.912 18.284 101.946 18.2607 101.983 18.2447C102.02 18.2286 102.061 18.2201 102.101 18.2196C102.142 18.2192 102.183 18.2268 102.22 18.242C102.258 18.2573 102.292 18.2798 102.321 18.3084C102.882 18.8577 103.419 19.4309 103.931 20.0264C103.975 20.0789 104.002 20.1449 104.005 20.2139C104.008 20.2828 103.988 20.3509 103.948 20.4073C103.908 20.4638 103.851 20.5053 103.785 20.5255C103.719 20.5456 103.648 20.5432 103.584 20.5185ZM63.546 3.88367C63.482 3.8591 63.428 3.81404 63.3924 3.75553C63.3568 3.69702 63.3415 3.62836 63.349 3.56027C63.3532 3.51968 63.3654 3.48033 63.3849 3.44448C63.4044 3.40864 63.4308 3.377 63.4626 3.3514C63.4943 3.32579 63.5309 3.30673 63.57 3.29531C63.6092 3.28389 63.6502 3.28033 63.6908 3.28485C64.4369 3.3647 65.2171 3.46049 66.0109 3.57118C66.0513 3.57682 66.0902 3.59036 66.1254 3.61103C66.1605 3.6317 66.1913 3.65911 66.2158 3.69167C66.2404 3.72423 66.2583 3.76131 66.2685 3.80079C66.2788 3.84028 66.2811 3.88139 66.2754 3.92178C66.2699 3.96223 66.2564 4.00119 66.2358 4.03642C66.2152 4.07166 66.1878 4.10248 66.1552 4.12713C66.1227 4.15178 66.0856 4.16976 66.0461 4.18006C66.0066 4.19037 65.9655 4.19278 65.925 4.18716C65.1592 4.08083 64.3918 3.98624 63.6231 3.90342C63.5966 3.90006 63.5708 3.89343 63.546 3.88367ZM100.269 17.2575C100.237 17.2452 100.207 17.2276 100.181 17.2055C99.5913 16.7116 98.9859 16.2372 98.3654 15.783C98.299 15.7343 98.2547 15.6613 98.2421 15.58C98.2295 15.4987 98.2497 15.4157 98.2982 15.3493C98.3466 15.2828 98.4194 15.2384 98.5006 15.2257C98.5818 15.2129 98.6648 15.233 98.7312 15.2813C99.3633 15.7435 99.9799 16.2263 100.58 16.7291C100.636 16.7764 100.674 16.842 100.687 16.9145C100.699 16.9869 100.685 17.0614 100.648 17.1248C100.611 17.1881 100.552 17.2362 100.483 17.2605C100.414 17.2848 100.338 17.2837 100.269 17.2575ZM68.1587 4.51819C68.0869 4.49063 68.0278 4.43739 67.993 4.36877C67.9582 4.30016 67.95 4.22106 67.9702 4.1468C67.9904 4.07254 68.0374 4.00842 68.1021 3.96684C68.1669 3.92527 68.2448 3.90921 68.3207 3.92178C69.0787 4.04668 69.8525 4.18456 70.6202 4.33111C70.701 4.34681 70.7723 4.39383 70.8186 4.46191C70.8649 4.52999 70.8824 4.61361 70.8672 4.69453C70.8517 4.77544 70.8047 4.84691 70.7367 4.89335C70.6686 4.9398 70.585 4.95743 70.504 4.94241C69.7438 4.79786 68.982 4.66228 68.2186 4.53568C68.1982 4.5317 68.1781 4.52585 68.1587 4.51819ZM72.7321 5.38967C72.6628 5.36317 72.6053 5.31265 72.5702 5.2473C72.535 5.18195 72.5245 5.10615 72.5405 5.0337C72.558 4.95315 72.6067 4.8828 72.6759 4.83809C72.7451 4.79337 72.8293 4.77794 72.9099 4.79517C73.67 4.95835 74.4356 5.13209 75.1874 5.3131C75.2271 5.32243 75.2646 5.33955 75.2977 5.36349C75.3308 5.38742 75.3588 5.41769 75.3801 5.45253C75.4014 5.48737 75.4155 5.52609 75.4217 5.56645C75.4279 5.6068 75.4261 5.64799 75.4162 5.68761C75.397 5.76767 75.3468 5.83683 75.2767 5.8799C75.2065 5.92297 75.1221 5.93642 75.042 5.9173C74.2896 5.73686 73.5351 5.56513 72.7787 5.40214C72.7628 5.39986 72.7471 5.39567 72.7321 5.38967ZM96.5195 14.5048C96.4997 14.497 96.4806 14.4873 96.4625 14.476C95.8149 14.0586 95.1572 13.657 94.4899 13.2718C94.4186 13.2306 94.3666 13.1629 94.3452 13.0834C94.3238 13.004 94.3348 12.9193 94.3757 12.8479C94.396 12.8125 94.4232 12.7814 94.4555 12.7565C94.4879 12.7316 94.5248 12.7133 94.5643 12.7026C94.6037 12.692 94.6449 12.6893 94.6854 12.6946C94.7259 12.6999 94.7649 12.7132 94.8003 12.7336C95.4773 13.1231 96.1441 13.53 96.8001 13.9539C96.8692 13.9987 96.9178 14.0691 96.9351 14.1495C96.9525 14.23 96.9372 14.3141 96.8926 14.3834C96.8535 14.443 96.7952 14.4875 96.7274 14.5096C96.6596 14.5316 96.5863 14.53 96.5195 14.5048ZM77.2593 6.47594C77.1878 6.44824 77.1291 6.39518 77.0942 6.3269C77.0594 6.25861 77.0509 6.17989 77.0705 6.10577C77.0915 6.02624 77.1433 5.95832 77.2144 5.91692C77.2855 5.87551 77.3701 5.864 77.4497 5.88491C78.2022 6.08435 78.9521 6.29333 79.6993 6.5118C79.7774 6.53587 79.8429 6.58973 79.8817 6.66172C79.9204 6.73371 79.9292 6.81806 79.9063 6.89652C79.8833 6.97497 79.8304 7.04124 79.7589 7.08098C79.6875 7.12073 79.6033 7.13076 79.5245 7.1089C78.7822 6.89246 78.0373 6.68492 77.2899 6.48634C77.2802 6.4827 77.269 6.47976 77.2593 6.47594ZM92.4893 12.1765C92.4783 12.1725 92.4676 12.1679 92.4571 12.1627C91.7716 11.808 91.079 11.4674 90.3797 11.141C90.3426 11.1238 90.3094 11.0994 90.2819 11.0692C90.2543 11.0391 90.233 11.0037 90.2192 10.9653C90.2054 10.9269 90.1993 10.8861 90.2014 10.8453C90.2034 10.8045 90.2135 10.7645 90.231 10.7277C90.2482 10.6906 90.2725 10.6573 90.3026 10.6297C90.3327 10.6021 90.368 10.5808 90.4064 10.5669C90.4447 10.553 90.4855 10.5468 90.5263 10.5488C90.5671 10.5507 90.6071 10.5607 90.644 10.5782C91.3503 10.9091 92.0503 11.2534 92.7435 11.6111C92.8165 11.6491 92.8715 11.7145 92.8964 11.7929C92.9213 11.8714 92.9141 11.9565 92.8763 12.0296C92.8411 12.0974 92.7822 12.1498 92.7109 12.1769C92.6395 12.204 92.5606 12.2039 92.4893 12.1765ZM81.726 7.78135C81.6519 7.75274 81.5916 7.69693 81.5574 7.62532C81.5231 7.5537 81.5175 7.47171 81.5417 7.3961C81.5667 7.31776 81.6218 7.25255 81.6949 7.21478C81.768 7.17701 81.853 7.16977 81.9314 7.19464C82.6729 7.43259 83.4111 7.68067 84.1457 7.93881C84.2231 7.96698 84.2863 8.02437 84.3217 8.09864C84.3572 8.17292 84.3621 8.25815 84.3354 8.33601C84.3082 8.41372 84.2513 8.47747 84.1772 8.51326C84.103 8.54905 84.0177 8.55395 83.9399 8.5269C83.2108 8.27002 82.4778 8.02391 81.7414 7.78862C81.7369 7.7855 81.7321 7.78377 81.726 7.78135ZM88.2747 10.2021L88.2637 10.1978C87.5526 9.89589 86.8364 9.60611 86.1154 9.32857C86.0386 9.29872 85.9767 9.23962 85.9434 9.16422C85.91 9.08883 85.9079 9.00328 85.9375 8.92635C85.9521 8.88835 85.974 8.8536 86.002 8.82408C86.03 8.79457 86.0636 8.77087 86.1008 8.75434C86.138 8.73782 86.1781 8.72879 86.2187 8.72778C86.2594 8.72677 86.2999 8.73379 86.3379 8.74845L86.3391 8.74879C87.0664 9.02924 87.7888 9.32191 88.5063 9.62668C88.5438 9.64259 88.5777 9.66574 88.6063 9.69481C88.6348 9.72388 88.6573 9.75829 88.6725 9.79607C88.6877 9.83386 88.6953 9.87427 88.6949 9.915C88.6944 9.95572 88.686 9.99596 88.67 10.0334C88.6388 10.1073 88.5801 10.1661 88.5064 10.1976C88.4326 10.2291 88.3496 10.2307 88.2747 10.2021Z" fill="#E1E4E5"/>
<path fill-rule="evenodd" clip-rule="evenodd" d="M50.5351 19.3812C49.6423 18.319 47.5264 18.1331 46.1427 19.5047C45.2491 20.3907 45.1023 21.399 45.2797 22.1023C45.2884 22.1369 45.2962 22.1719 45.3029 22.2073L49.026 41.6679C49.8918 45.6337 53.0418 48.7648 57.0625 49.6271L76.6937 53.3182L76.6989 53.3192L76.7116 53.3216C77.731 53.5238 78.8183 53.1075 79.4514 52.4798C80.7532 51.1893 80.7532 49.3482 79.4514 48.0579L50.6491 19.5047C50.6092 19.4652 50.5711 19.4239 50.5351 19.3812ZM41.6691 20.1501L27.4056 34.4135C24.0862 37.733 24.0862 42.7999 27.4056 46.1194L49.9041 68.6178C50.6278 69.3417 51.8012 69.3417 52.5251 68.6178C52.5467 68.5962 52.5677 68.5742 52.588 68.5518L54.2819 70.2274L55.6658 69.2031L63.8348 69.8557L64.7421 68.8477C65.4703 69.477 66.5718 69.446 67.2632 68.7547L79.2384 56.7795C78.2342 57.0873 77.1252 57.1807 76.0007 56.9595L56.3554 53.266C56.3411 53.2633 56.3268 53.2604 56.3126 53.2574C50.8623 52.0995 46.5707 47.8539 45.3984 42.4303C45.3952 42.4159 45.3923 42.4014 45.3895 42.387L41.6713 22.9514C41.4567 22.0619 41.4482 21.1009 41.6691 20.1501Z" fill="url(#paint2_linear_1414_2653)"/>
<path d="M54.8459 3.13309L54.8906 5.23358L43.5664 6.08046L54.8459 3.13309Z" fill="white"/>
<path d="M54.6502 7.58283L53.1307 9.07704L44.0762 6.03387L54.6502 7.58283Z" fill="url(#paint3_linear_1414_2653)"/>
<path d="M43.5664 6.08045L59.9489 9.34829L56.1872 4.92316L43.5664 6.08045Z" fill="url(#paint4_linear_1414_2653)"/>
<path d="M54.8464 3.13325L43.5668 6.08063L52.6045 0.141357L54.8464 3.13325ZM96.1029 70.6651C92.424 70.7337 91.4503 71.0246 87.6313 70.9049C85.8123 70.9218 83.8706 70.8706 82.0925 70.8364C81.247 70.6139 79.7602 70.8364 78.7575 70.6482L78.3726 70.7679C78.0287 70.6994 77.6263 70.6651 77.2766 70.7337L77.2998 70.7679C76.7867 70.6823 76.2038 70.7337 75.953 70.6823L75.9764 70.7166L75.3524 70.6994L75.4574 70.7507C74.5596 70.6482 73.6384 70.6482 72.8222 70.6823L72.892 70.5283C71.1488 70.6994 70.5133 70.3913 68.9449 70.5796L68.9681 70.6139C66.9801 70.2201 65.8314 70.8877 63.785 70.5111C64.0415 70.5626 63.6741 70.5796 63.6975 70.631C62.7529 70.5967 61.7502 70.5626 61.7327 70.2716C61.0446 70.2716 61.173 70.3571 61.0855 70.477C61.0914 70.3571 60.4908 70.2887 59.9544 70.2887L60.1993 70.34L58.66 70.2887L58.9632 70.049C58.147 70.1176 58.7534 70.34 57.9779 70.2887L57.9895 70.0833C56.8642 70.1176 56.1996 70.4256 55.1093 70.5796C50.5733 70.6651 45.699 70.1517 41.4837 70.5111L41.2971 70.6651C41.2155 70.8877 40.131 70.34 39.9735 70.5454L39.4838 70.4427C39.3439 70.4768 39.0523 70.5283 39.2973 70.5796C38.8425 70.5967 38.8308 70.5454 38.5044 70.494L38.0145 70.631C36.2246 70.7337 34.7029 70.477 32.8196 70.5283C30.5575 70.8021 26.2955 70.5454 23.8408 70.4084C20.3894 70.0833 16.3779 70.9561 12.8447 70.5796C12.7281 70.6139 12.4308 70.5454 12.4366 70.5111L9.20076 70.5454C9.20076 70.5454 -6.47723 70.631 5.43422 68.7997L5.35263 68.7483C7.12504 68.6284 8.23869 68.6114 9.45731 68.851C9.64976 68.56 10.9091 68.8167 11.3231 68.7311L11.2822 68.714C12.3609 68.9365 13.5036 68.5258 14.5473 68.7311C14.5064 68.714 14.4832 68.6284 14.2441 68.6284C15.002 68.6627 16.0398 68.7311 16.0981 68.56C17.9114 68.6114 20.436 68.5258 21.5962 68.7997L21.5146 68.7483C22.1734 68.9365 22.3715 68.7826 23.1121 68.8681C23.1529 68.851 23.2054 68.8338 23.1937 68.8167C23.9167 69.005 25.2985 68.851 25.8757 68.9194L25.9106 68.7997L27.3449 68.8338L26.8086 68.851C26.9952 69.159 27.893 68.6455 28.9308 68.851C29.9045 68.8167 30.9074 69.5014 31.9159 69.3473C32.3999 69.5014 31.4903 69.1077 32.2133 69.2276C32.2367 69.0564 31.8752 69.1248 32.0618 68.9878C32.7673 69.0734 33.222 68.8167 34.0966 68.9366L34.1316 68.8167C35.2685 69.0564 36.2771 68.6455 37.0351 68.8681C38.207 68.9708 37.8221 68.4915 39.0466 68.7311L39.5247 68.56C40.0494 68.5258 39.8978 68.7654 40.4809 68.6798C40.4459 68.5771 41.2155 68.5943 40.8715 68.4915C42.1833 68.3204 43.536 68.7311 45.2675 68.4403C45.6408 68.6455 46.5153 68.5258 46.7952 68.6798C46.8418 68.5943 48.5385 68.6627 47.5648 68.4572C47.4832 68.4401 47.3317 68.4403 47.3433 68.4744L47.2267 68.3545C48.212 68.115 49.0166 68.4915 49.996 68.4403C49.7046 68.4744 49.3197 68.4744 49.5763 68.56L50.4859 68.5428L50.2993 68.4403L51.6518 68.3717L51.4653 68.5087C52.1242 68.4403 52.3573 68.2177 53.1038 68.406C53.4419 68.5087 52.4798 68.5771 53.1736 68.6284C54.0598 68.5428 55.3834 68.406 56.5086 68.3717C56.4036 68.5258 56.7068 68.5087 57.0217 68.5428L57.0567 68.4231C58.2519 68.5943 57.4939 68.1493 58.6834 68.2861L58.5785 68.2005L58.8932 68.4744C59.9661 68.7311 59.4705 68.2177 60.6599 68.56C60.1877 68.5428 60.4383 68.8338 61.0155 68.7826L60.8698 68.6627C61.1905 68.697 61.2954 68.7483 61.5111 68.714C61.3187 68.6455 61.412 68.5428 61.8842 68.56L61.5695 68.406L62.4614 68.6284C63.1494 68.4915 64.2397 68.6627 64.5255 68.4915C64.5255 68.4915 66.0064 68.406 66.3445 68.5943C66.0471 68.4744 66.8635 68.4231 66.6302 68.2861C67.0151 68.4231 68.146 68.5258 68.6009 68.3888L68.5134 68.3717C70.1927 68.2177 71.382 68.5771 72.8863 68.3888C72.8163 68.5428 73.615 68.4572 73.4168 68.6455C74.9736 68.8338 76.2561 68.252 76.8217 68.851C77.5331 68.8853 77.6613 68.714 78.0287 68.6798L77.8596 68.6455C79.1889 68.697 79.5737 68.697 80.559 68.6798C81.0488 68.7311 81.1304 69.005 82.0107 68.9366C81.7251 68.8338 82.0866 68.851 82.4131 68.851C82.2032 68.8338 82.1391 68.7997 82.5706 68.714C82.6288 68.7483 82.7279 68.7654 82.8154 68.7826C82.8212 68.7826 82.8387 68.7654 82.8271 68.7483C83.3752 68.7826 83.2819 68.8167 83.0253 68.8338C83.0369 68.851 83.0194 68.8681 82.9378 68.9023C83.5093 68.7654 84.5296 68.9194 84.5996 68.7311C86.2554 68.7826 87.4388 68.9708 88.8149 69.0393C88.9724 68.9365 88.6458 68.851 88.2493 68.8167L89.2289 68.851C89.223 68.714 88.6691 68.7654 88.3659 68.7483C89.5321 68.5258 90.768 68.9708 92.1325 68.7654L92.4181 68.8681L92.4997 68.851C92.4938 68.9023 92.8028 68.9878 93.0012 69.005C93.1934 68.8853 92.9894 68.7311 93.6658 68.7311C94.2021 68.6114 95.1817 68.7826 95.8813 68.851C95.5023 68.8681 95.6248 68.9365 95.788 68.9878C96.1263 68.9878 96.3185 68.8681 96.581 68.9194L96.616 68.7654C96.4819 68.9194 97.4963 68.9365 97.6246 68.9878C97.8171 68.8681 97.0999 68.8853 97.0182 68.7997C98.3709 68.8167 97.6946 68.7995 99.053 68.8167C99.7761 68.9365 98.919 68.9708 99.2689 69.1077C99.9043 69.142 100.528 69.2445 101.263 69.159L101.03 69.296C102.231 69.4157 102.948 69.3987 103.752 69.2445C112.685 70.4084 105.636 70.8364 105.636 70.8364C102.102 71.1957 100.289 70.785 96.1029 70.6651Z" fill="url(#paint5_linear_1414_2653)"/>
<path d="M91.6199 36.3071C90.8503 36.7515 89.8662 36.4878 89.4219 35.7182C88.9775 34.9486 89.2412 33.9645 90.0108 33.5202C90.7804 33.0758 91.7645 33.3395 92.2088 34.1091C92.6532 34.8787 92.3895 35.8628 91.6199 36.3071Z" fill="#31446C"/>
<path d="M14.9972 55.0615C16.0496 55.0615 16.9027 55.9146 16.9027 56.9669C16.9027 58.0193 16.0496 58.8724 14.9972 58.8724C13.9449 58.8724 13.0918 58.0193 13.0918 56.9669C13.0918 55.9146 13.9449 55.0615 14.9972 55.0615Z" fill="#31446C"/>
<path d="M32.2319 18.1651C31.5153 18.1651 30.9344 18.746 30.9344 19.4626C30.9344 20.1791 31.5153 20.76 32.2319 20.76C32.9484 20.76 33.5293 20.1791 33.5293 19.4626C33.5293 18.746 32.9484 18.1651 32.2319 18.1651Z" fill="#E1E4E5"/>
<path d="M24.178 55.0415C23.5127 55.0415 22.9733 55.5809 22.9733 56.2463C22.9733 56.9117 23.5127 57.451 24.178 57.451C24.8434 57.451 25.3828 56.9117 25.3828 56.2463C25.3828 55.5809 24.8434 55.0415 24.178 55.0415Z" fill="#E1E4E5"/>
<path d="M7.31086 35.0252C6.64549 35.0252 6.10611 35.5646 6.10611 36.23C6.10611 36.8953 6.64549 37.4347 7.31086 37.4347C7.97624 37.4347 8.51562 36.8953 8.51562 36.23C8.51562 35.5646 7.97624 35.0252 7.31086 35.0252Z" fill="#E1E4E5"/>
<path d="M16.9713 19.7349C18.7256 19.7349 20.1477 21.157 20.1477 22.9112C20.1477 24.6655 18.7256 26.0876 16.9713 26.0876C15.217 26.0876 13.7949 24.6655 13.7949 22.9112C13.7949 21.157 15.217 19.7349 16.9713 19.7349Z" fill="url(#paint6_linear_1414_2653)"/>
<path d="M67.0277 17.6218C67.6111 18.2052 68.5569 18.2052 69.1403 17.6218C69.7237 17.0384 69.7237 16.0925 69.1403 15.5091C68.5569 14.9257 67.6111 14.9257 67.0277 15.5091C66.4443 16.0925 66.4443 17.0384 67.0277 17.6218Z" fill="#E1E4E5"/>
<path d="M88.9188 50.6983C87.8737 49.6532 87.8737 47.9588 88.9188 46.9137C89.9639 45.8686 91.6583 45.8686 92.7034 46.9137C93.7485 47.9588 93.7485 49.6532 92.7034 50.6983C91.6583 51.7434 89.9639 51.7434 88.9188 50.6983Z" fill="url(#paint7_linear_1414_2653)"/>
<defs>
<linearGradient id="paint0_linear_1414_2653" x1="17.0059" y1="103.718" x2="101.962" y2="-26.4895" gradientUnits="userSpaceOnUse">
<stop stop-color="white"/>
<stop offset="1" stop-color="#EEEEEE"/>
</linearGradient>
<linearGradient id="paint1_linear_1414_2653" x1="67.8676" y1="37.7678" x2="98.9068" y2="7.46331" gradientUnits="userSpaceOnUse">
<stop stop-color="white"/>
<stop offset="1" stop-color="#EEEEEE"/>
</linearGradient>
<linearGradient id="paint2_linear_1414_2653" x1="12.3688" y1="6.84508" x2="100.722" y2="31.6042" gradientUnits="userSpaceOnUse">
<stop stop-color="#7367F0"/>
<stop offset="1" stop-color="#948AFC"/>
</linearGradient>
<linearGradient id="paint3_linear_1414_2653" x1="41.6862" y1="5.34603" x2="51.6468" y2="14.3784" gradientUnits="userSpaceOnUse">
<stop stop-color="#7367F0"/>
<stop offset="1" stop-color="#948AFC"/>
</linearGradient>
<linearGradient id="paint4_linear_1414_2653" x1="39.8635" y1="3.92296" x2="54.4083" y2="17.9756" gradientUnits="userSpaceOnUse">
<stop stop-color="#7367F0"/>
<stop offset="1" stop-color="#948AFC"/>
</linearGradient>
<linearGradient id="paint5_linear_1414_2653" x1="-23.2883" y1="-15.8703" x2="136.021" y2="47.1104" gradientUnits="userSpaceOnUse">
<stop stop-color="#7367F0"/>
<stop offset="1" stop-color="#948AFC"/>
</linearGradient>
<linearGradient id="paint6_linear_1414_2653" x1="12.359" y1="27.5235" x2="22.5687" y2="24.859" gradientUnits="userSpaceOnUse">
<stop stop-color="#7367F0"/>
<stop offset="1" stop-color="#948AFC"/>
</linearGradient>
<linearGradient id="paint7_linear_1414_2653" x1="96.3065" y1="48.806" x2="88.6369" y2="44.311" gradientUnits="userSpaceOnUse">
<stop stop-color="#7367F0"/>
<stop offset="1" stop-color="#948AFC"/>
</linearGradient>
</defs>
</svg>
