<svg width="21" height="20" viewBox="0 0 21 20" fill="none" xmlns="http://www.w3.org/2000/svg">
<circle cx="10.8167" cy="10.0174" r="9.87332" fill="white" fill-opacity="0.22"/>
<path d="M13.5947 7.13634L9.98756 11.4282L8.01377 9.42791C8.01369 9.42783 8.01361 9.42775 8.01353 9.42767C7.95012 9.36303 7.87447 9.31168 7.79099 9.27661C7.70741 9.24149 7.61767 9.22341 7.52701 9.22341C7.43635 9.22341 7.34661 9.24149 7.26303 9.27661C7.17946 9.31172 7.10373 9.36314 7.04028 9.42787C6.91231 9.55838 6.84063 9.73388 6.84063 9.91666C6.84063 10.0994 6.91231 10.2749 7.04028 10.4055L7.04028 10.4055L7.04067 10.4059L9.52682 12.9252C9.52686 12.9252 9.5269 12.9252 9.52694 12.9253C9.59187 12.9914 9.66959 13.0435 9.75536 13.0786C9.84118 13.1137 9.93326 13.1309 10.026 13.1291C10.1186 13.1274 10.21 13.1067 10.2945 13.0685C10.3789 13.0302 10.4547 12.9751 10.5171 12.9066L10.5172 12.9066L10.5213 12.9018L14.6045 8.07485C14.8592 7.80313 14.8544 7.37554 14.5917 7.10976C14.5283 7.04516 14.4527 6.99383 14.3693 6.95877C14.2857 6.92365 14.1959 6.90557 14.1053 6.90557C14.0146 6.90557 13.9249 6.92365 13.8413 6.95877C13.7583 6.99365 13.683 7.04464 13.6198 7.10878C13.6109 7.11751 13.6026 7.12671 13.5947 7.13634Z" fill="white" stroke="white" stroke-width="0.35"/>
</svg>
