<svg width="21" height="20" viewBox="0 0 21 20" fill="none" xmlns="http://www.w3.org/2000/svg">
<circle cx="10.5833" cy="9.96853" r="9.87332" fill="#FF0000" fill-opacity="0.22"/>
<path d="M11.374 9.96808L13.7868 7.56092C13.8924 7.45526 13.9518 7.31195 13.9518 7.16253C13.9518 7.0131 13.8924 6.8698 13.7868 6.76414C13.6811 6.65848 13.5378 6.59912 13.3884 6.59912C13.2389 6.59912 13.0956 6.65848 12.99 6.76414L10.5828 9.17692L8.17564 6.76414C8.06998 6.65848 7.92668 6.59912 7.77725 6.59912C7.62783 6.59912 7.48453 6.65848 7.37887 6.76414C7.27321 6.8698 7.21385 7.0131 7.21385 7.16253C7.21385 7.31195 7.27321 7.45526 7.37887 7.56092L9.79164 9.96808L7.37887 12.3752C7.32627 12.4274 7.28453 12.4895 7.25604 12.5578C7.22756 12.6262 7.21289 12.6996 7.21289 12.7736C7.21289 12.8477 7.22756 12.921 7.25604 12.9894C7.28453 13.0578 7.32627 13.1199 7.37887 13.172C7.43103 13.2246 7.49309 13.2664 7.56146 13.2948C7.62984 13.3233 7.70318 13.338 7.77725 13.338C7.85133 13.338 7.92467 13.3233 7.99305 13.2948C8.06142 13.2664 8.12348 13.2246 8.17564 13.172L10.5828 10.7592L12.99 13.172C13.0421 13.2246 13.1042 13.2664 13.1726 13.2948C13.2409 13.3233 13.3143 13.338 13.3884 13.338C13.4624 13.338 13.5358 13.3233 13.6042 13.2948C13.6725 13.2664 13.7346 13.2246 13.7868 13.172C13.8393 13.1199 13.8811 13.0578 13.9096 12.9894C13.9381 12.921 13.9527 12.8477 13.9527 12.7736C13.9527 12.6996 13.9381 12.6262 13.9096 12.5578C13.8811 12.4895 13.8393 12.4274 13.7868 12.3752L11.374 9.96808Z" fill="#FF0000"/>
</svg>
