<svg width="50" height="50" viewBox="0 0 50 50" fill="none" xmlns="http://www.w3.org/2000/svg">
<path d="M24.5604 11.7503C24.6199 9.90376 25.1286 7.18358 26.8987 5.39654C28.5418 3.73772 30.5421 2.92926 31.788 2.55966C32.2689 2.41697 32.7304 2.77965 32.7067 3.28079C32.6232 5.04846 32.1584 7.68504 30.9592 9.09752C29.8287 10.429 28.0101 12.1947 25.3464 12.4917C24.9104 12.5404 24.5463 12.1888 24.5604 11.7503Z" fill="white"/>
<path d="M29.1216 45.5478C30.4007 46.0378 31.694 46.5332 32.8645 46.5332C35.3683 46.5332 42.6594 40.7562 42.922 34.7562C42.9355 34.448 42.7514 34.1728 42.4822 34.0222C40.6276 32.9844 37.5991 30.4003 37.4937 26.641C37.3709 22.2598 39.5706 18.7801 41.2354 17.3406C41.6101 17.0167 41.7388 16.4455 41.4043 16.0801C39.8896 14.426 36.8423 12.1506 34.062 12.2065C32.0392 12.2471 30.2167 13.0006 28.6528 13.6472C27.453 14.1432 26.4054 14.5763 25.5363 14.5763C24.7132 14.5763 23.725 14.146 22.5908 13.6521C21.0634 12.9869 19.2713 12.2065 17.2609 12.2065C13.537 12.2065 6.17928 15.2945 6.17926 27.2155C6.17925 33.535 12.7031 46.7008 18.2082 46.5332C19.3969 46.5332 20.6673 46.041 21.9279 45.5526C23.1693 45.0716 24.4012 44.5943 25.5363 44.5943C26.6323 44.5943 27.8702 45.0685 29.1216 45.5478Z" fill="white"/>
</svg>
