<svg width="32" height="32" viewBox="0 0 32 32" fill="none" xmlns="http://www.w3.org/2000/svg">
<g clip-path="url(#clip0_596_2304)">
<path d="M17.7885 13.2012C12.8103 13.1855 7.83156 13.1855 2.85232 13.2012C2.42904 13.1942 2.00976 13.2839 1.62648 13.4636C1.24321 13.6432 0.906068 13.9079 0.640809 14.2376C0.282799 14.6642 0.123776 15.1707 0 15.6968V27.5671C0.0179383 27.5909 0.0321914 27.6173 0.0422967 27.6454C0.286715 29.0998 1.39287 30.0595 2.88366 30.0619C7.84201 30.0708 12.7998 30.0708 17.7571 30.0619C19.4023 30.0619 20.6236 28.8478 20.6298 27.2047C20.6439 23.4895 20.6439 19.7744 20.6298 16.0592C20.6236 14.4255 19.4179 13.2059 17.7885 13.2012ZM11.4477 22.3036C11.2816 22.3818 11.2503 22.4703 11.2519 22.6316C11.2581 23.5059 11.2566 24.3803 11.2519 25.2547C11.2519 25.8888 10.8719 26.3131 10.3118 26.3131C9.75166 26.3131 9.3772 25.8896 9.37172 25.2555C9.37172 24.8289 9.37172 24.4023 9.37172 23.9756C9.37172 23.5177 9.36545 23.059 9.37172 22.601C9.37172 22.4445 9.3208 22.3732 9.17587 22.3051C8.10967 21.8018 7.51116 20.9532 7.50567 19.7759C7.50019 18.5986 8.07442 17.7406 9.1273 17.2099C10.738 16.3989 12.8421 17.523 13.0701 19.3094C13.2511 20.6472 12.662 21.7423 11.4477 22.3036Z" fill="#61FFFF"/>
<path d="M28.0157 26.5987C27.8425 26.6832 27.754 26.6707 27.6342 26.5204C27.1727 25.9568 26.6941 25.4057 26.2295 24.846C26.1278 24.7139 25.9961 24.6079 25.8453 24.5366C25.6946 24.4653 25.529 24.4307 25.3623 24.4358C24.4881 24.442 23.613 24.4452 22.738 24.4358C22.5327 24.4358 22.5029 24.5015 22.5029 24.6831C22.5147 25.1528 22.5186 25.6225 22.5029 26.0875C22.4951 26.2926 22.568 26.3223 22.7497 26.3223C23.4054 26.3122 24.0619 26.3223 24.7176 26.3137C24.8086 26.3052 24.9004 26.3202 24.9839 26.3574C25.0675 26.3945 25.1401 26.4525 25.1947 26.5259C25.5864 27.0128 25.9859 27.4926 26.4011 27.9584C26.5382 28.1149 26.5476 28.2433 26.4998 28.4281C26.2154 29.5365 26.5351 30.4712 27.3435 31.2594C27.7752 31.6806 28.3188 31.8653 28.886 32.0015H29.5127C30.2742 31.8387 30.9228 31.5045 31.4156 30.872C32.1755 29.8919 32.199 28.3975 31.4454 27.4511C30.575 26.3568 29.2174 26.0139 28.0157 26.5987Z" fill="#61FFFF"/>
<path d="M2.81394 9.01163C2.81394 9.69815 2.82256 10.3854 2.80846 11.072C2.80454 11.2794 2.86487 11.3279 3.06541 11.3256C4.13866 11.3154 5.21191 11.3131 6.28437 11.3256C6.51939 11.3256 6.57344 11.2692 6.57187 11.0367C6.56012 9.8093 6.54524 8.58031 6.57187 7.35288C6.61887 5.4272 8.23815 3.8256 10.163 3.76376C10.6659 3.74346 11.1678 3.82462 11.6387 4.00238C12.1096 4.18014 12.5398 4.45086 12.9037 4.7984C13.2676 5.14594 13.5577 5.56318 13.7567 6.02519C13.9557 6.48721 14.0595 6.98455 14.0619 7.48753C14.0776 8.67347 14.0705 9.86019 14.0619 11.0469C14.0619 11.2551 14.0971 11.3287 14.3267 11.3256C15.3991 11.3115 16.4724 11.3091 17.5449 11.3256C17.7979 11.3256 17.8253 11.2473 17.8237 11.0281C17.8136 9.89385 17.8237 8.75801 17.8183 7.62452C17.823 6.42562 17.5515 5.24172 17.0247 4.16455C15.5699 1.17348 12.0368 -0.582336 8.80768 0.172281C5.73599 0.889323 3.79396 2.81344 3.00195 5.87105C2.73717 6.90356 2.82334 7.9619 2.81394 9.01163Z" fill="#61FFFF"/>
<path d="M22.5053 18.604C22.4998 18.788 22.5641 18.8232 22.7341 18.8216C23.5872 18.8138 24.4411 18.8091 25.295 18.8216C25.4661 18.8275 25.6365 18.7973 25.7952 18.7331C25.9539 18.6689 26.0974 18.5721 26.2162 18.449C26.7513 17.9245 27.3028 17.4173 27.8363 16.8912C27.9851 16.7449 28.1073 16.701 28.3181 16.773C28.7087 16.9105 29.1253 16.9583 29.537 16.9127C29.9486 16.8672 30.3447 16.7295 30.6957 16.5099C31.0468 16.2904 31.3438 15.9946 31.5648 15.6446C31.7857 15.2945 31.9248 14.8992 31.9718 14.4881C32.1191 13.3248 31.6749 12.3933 30.6988 11.7725C29.6851 11.1275 28.6095 11.1463 27.6209 11.825C26.6463 12.4943 26.152 13.4931 26.4826 14.6344C26.6925 15.357 26.4082 15.6521 25.9891 16.0951C25.3772 16.7378 24.7458 17.1817 23.9906 16.9437C23.4626 16.9437 23.1077 16.9523 22.7544 16.9437C22.5789 16.9374 22.4959 16.9609 22.5037 17.1715C22.5225 17.6466 22.5186 18.1257 22.5053 18.604Z" fill="#61FFFF"/>
<path d="M22.8147 22.5711C23.982 22.5609 25.1484 22.5711 26.3149 22.5641C26.4716 22.5641 26.5679 22.5813 26.6479 22.7527C27.3028 24.1532 28.6847 24.7645 30.1473 24.2534C31.2754 23.862 31.9013 23.0071 31.9906 21.8267C32.0736 20.7206 31.62 19.8251 30.6643 19.2536C29.1594 18.3542 27.3842 18.9162 26.6526 20.4936C26.5797 20.6501 26.5014 20.7034 26.3306 20.7002C25.7368 20.6885 25.143 20.6955 24.5491 20.6955C23.9765 20.6955 23.403 20.7081 22.8304 20.6893C22.5836 20.6814 22.4849 20.7245 22.5029 21.0024C22.5296 21.4283 22.5296 21.8555 22.5029 22.2815C22.4873 22.5429 22.5875 22.5735 22.8147 22.5711Z" fill="#61FFFF"/>
<path d="M10.329 18.8201C10.1435 18.8178 9.96155 18.8706 9.80615 18.9718C9.65075 19.073 9.52894 19.218 9.45616 19.3885C9.38339 19.559 9.36294 19.7472 9.39741 19.9293C9.43188 20.1115 9.5197 20.2792 9.64975 20.4114C9.7798 20.5435 9.94621 20.6341 10.1279 20.6716C10.3095 20.7091 10.4982 20.6918 10.67 20.622C10.8418 20.5522 10.989 20.4329 11.0929 20.2793C11.1967 20.1258 11.2526 19.9448 11.2534 19.7595C11.252 19.5135 11.1547 19.2777 10.9821 19.1023C10.8094 18.9269 10.5751 18.8256 10.329 18.8201Z" fill="#61FFFF"/>
</g>
<defs>
<clipPath id="clip0_596_2304">
<rect width="32" height="32" fill="white"/>
</clipPath>
</defs>
</svg>
