<svg width="36" height="36" viewBox="0 0 36 36" fill="none" xmlns="http://www.w3.org/2000/svg">
<g clip-path="url(#clip0_596_2259)">
<path d="M26.5985 10.3508C25.2416 10.3608 23.8839 10.3508 22.527 10.3599C22.4441 10.3661 22.3609 10.3513 22.2852 10.3168C22.2096 10.2823 22.1439 10.2292 22.0942 10.1626C21.5268 9.45752 20.7674 8.93117 19.9076 8.64681C19.6111 8.54814 19.569 8.45769 19.6687 8.16259C20.1454 6.74186 20.7493 5.36408 21.1482 3.91869C21.6624 2.05485 20.2333 0.1636 18.2991 0.105126C16.0932 0.0375162 14.5735 2.10967 15.2871 4.24121C15.7382 5.5861 16.224 6.92003 16.708 8.25304C16.7858 8.46866 16.751 8.53901 16.5342 8.61028C15.6501 8.89409 14.8661 9.42522 14.2752 10.1406C14.2184 10.2158 14.1435 10.2753 14.0574 10.3137C13.9713 10.352 13.8769 10.3679 13.783 10.3599C12.46 10.3517 11.136 10.3681 9.81304 10.3471C9.48732 10.3416 9.43427 10.4449 9.43427 10.7418C9.44159 18.7253 9.44342 26.7093 9.43976 34.694C9.43976 34.8301 9.43426 34.9681 9.43152 35.1033H26.8895C26.8895 35.0576 26.8986 35.0119 26.8986 34.9672C26.8986 26.8576 26.9007 18.7481 26.905 10.6386C26.905 10.3864 26.8254 10.3489 26.5985 10.3508ZM17.5653 2.3591C17.7427 2.22865 17.9576 2.15879 18.1779 2.15988C18.3982 2.16098 18.6124 2.23295 18.7885 2.36515C18.9647 2.49735 19.0934 2.68273 19.1557 2.89378C19.2181 3.10483 19.2106 3.33032 19.1344 3.53679C18.8462 4.38557 18.5406 5.22978 18.2405 6.07399C18.2152 6.12038 18.1845 6.16361 18.149 6.20281C17.8279 5.28368 17.5186 4.41754 17.2231 3.54684C17.063 3.06535 17.1975 2.63319 17.5653 2.3591ZM17.3238 21.2433C17.5305 21.5621 17.8444 21.6955 18.225 21.7092C19.8179 21.7677 21.0265 22.8696 21.2296 24.4383C21.3058 25.0756 21.1763 25.7205 20.86 26.2792C20.5437 26.8379 20.0572 27.2812 19.4711 27.5447C19.2589 27.6434 19.1967 27.7521 19.2021 27.975C19.2186 28.5324 19.2021 29.0915 19.2113 29.6497C19.2113 29.8252 19.1903 29.9165 18.9771 29.911C18.4409 29.8955 17.9048 29.8964 17.3686 29.911C17.1756 29.9165 17.1481 29.8407 17.1508 29.6744C17.1591 29.1162 17.1435 28.5579 17.1591 27.9997C17.1655 27.7694 17.1005 27.6525 16.8782 27.5429C15.8498 27.0458 15.2542 26.2226 15.1096 25.0815C15.0813 24.8595 15.1096 24.7581 15.3795 24.7709C15.8919 24.7946 16.4061 24.7782 16.9194 24.7773C17.0456 24.7773 17.1353 24.7645 17.1755 24.9499C17.3 25.5328 17.7849 25.8746 18.3137 25.7951C18.5637 25.7553 18.7911 25.6273 18.9546 25.4343C19.1181 25.2413 19.207 24.9962 19.2049 24.7435C19.1793 24.1761 18.7364 23.7823 18.107 23.7485C16.8626 23.6827 15.9276 23.1089 15.3951 21.9788C14.8809 20.8943 15.0007 19.8326 15.7043 18.8513C16.0023 18.4281 16.4149 18.0985 16.8938 17.9012C17.1197 17.8098 17.1682 17.6892 17.16 17.4727C17.1463 16.9144 17.16 16.3553 17.1518 15.7979C17.1518 15.6152 17.1801 15.5375 17.3878 15.5439C17.9121 15.5586 18.4372 15.5567 18.9624 15.5439C19.1518 15.5439 19.225 15.5869 19.214 15.787C19.1976 16.083 19.214 16.3799 19.214 16.6759C19.2149 16.6872 19.2149 16.6985 19.214 16.7097C19.117 17.3785 19.2506 17.8463 19.9524 18.2136C20.7758 18.6439 21.151 19.4872 21.2553 20.4219C21.2763 20.6046 21.2498 20.685 21.0375 20.6796C20.5242 20.6649 20.01 20.6576 19.4977 20.6796C19.2515 20.6914 19.2076 20.5809 19.1536 20.3835C19.0384 19.9578 18.7282 19.7111 18.2973 19.6572C18.1042 19.6361 17.909 19.6702 17.7347 19.7556C17.5603 19.8411 17.4139 19.9743 17.3125 20.1398C17.2111 20.3052 17.1589 20.496 17.162 20.69C17.1652 20.8839 17.2235 21.073 17.3302 21.2351L17.3238 21.2433Z" fill="#FFCB46"/>
<path d="M35.5136 24.5652C35.1623 24.2235 34.8055 23.8854 34.4761 23.5236C34.3068 23.3409 34.2108 23.3646 34.0525 23.5291C33.7926 23.8032 33.5035 24.0489 33.1888 24.3514V21.1344C33.1888 18.3542 33.1888 15.5739 33.1943 12.7937C33.1943 12.5543 33.1604 12.4538 32.8868 12.4712C32.4539 12.4972 32.0197 12.4972 31.5867 12.4712C31.2894 12.4538 31.1933 12.5233 31.1942 12.8476C31.2079 16.5506 31.2034 20.2527 31.2034 23.9557V24.2828L31.1174 24.3386C30.8649 24.0645 30.605 23.8032 30.3616 23.5236C30.2207 23.3619 30.1265 23.3409 29.9682 23.5163C29.637 23.8772 29.2884 24.2235 28.9288 24.556C28.7458 24.7205 28.7212 24.8119 28.9169 25.0019C29.9539 26.013 30.9789 27.036 31.9921 28.0708C32.1668 28.2481 32.2519 28.2618 32.4349 28.0708C33.5218 26.9653 34.6243 25.8781 35.7213 24.7817V24.7141C35.606 24.7296 35.5731 24.6236 35.5136 24.5652Z" fill="#FFCB46"/>
<path d="M6.38661 22.453C6.25577 22.315 6.18441 22.3388 6.0673 22.4603C5.79281 22.7399 5.51283 23.0085 5.18712 23.3255V22.9162C5.18712 19.5339 5.18926 16.1513 5.19353 12.7683C5.19353 12.529 5.13771 12.4595 4.89617 12.4705C4.43899 12.4934 3.98095 12.4934 3.52377 12.4705C3.25569 12.4568 3.19074 12.5354 3.19165 12.8021C3.20172 15.8546 3.19804 18.9071 3.19804 21.9596V23.3301C2.85311 23.0039 2.5576 22.7344 2.27763 22.4566C2.17699 22.358 2.1102 22.3022 1.98119 22.4375C1.59601 22.8404 1.19799 23.2332 0.797248 23.6252C0.685626 23.733 0.698435 23.797 0.797248 23.8993C1.88175 24.9756 2.96262 26.0549 4.0398 27.1373C4.14685 27.2451 4.20448 27.2332 4.30696 27.1309C5.3756 26.0558 6.44851 24.985 7.5257 23.9185C7.66294 23.7833 7.63733 23.7147 7.51473 23.5969C7.13595 23.2177 6.75258 22.8413 6.38661 22.453Z" fill="#FFCB46"/>
</g>
<defs>
<clipPath id="clip0_596_2259">
<rect width="35" height="35" fill="white" transform="translate(0.721313 0.103271)"/>
</clipPath>
</defs>
</svg>
