<svg width="32" height="31" viewBox="0 0 32 31" fill="none" xmlns="http://www.w3.org/2000/svg">
<path d="M31.1091 10.8844C30.3327 8.49353 28.9894 6.3263 27.194 4.56796C25.3986 2.80962 23.2046 1.51244 20.7993 0.787272C19.7979 0.491069 18.7669 0.306356 17.725 0.236495H17.5706C17.5536 0.343027 17.4812 0.313199 17.4163 0.303611H17.2513H17.0916C17.0011 0.312133 16.9074 0.33345 16.8478 0.234375H16.2091C16.1431 0.292716 16.0582 0.324912 15.9701 0.324912C15.8821 0.324912 15.7971 0.292716 15.7311 0.234375H15.4118C15.3319 0.334515 15.2521 0.378194 15.1723 0.234375H14.9338C14.9029 0.340907 14.8092 0.307871 14.7379 0.316394C12.998 0.510648 11.3017 0.989305 9.71661 1.73328C3.12194 4.80887 -0.447393 12.4302 1.43041 19.4517C2.38905 23.1015 4.64956 26.2738 7.78525 28.3699C10.9209 30.466 14.7149 31.3409 18.451 30.8294C25.0339 29.9569 30.397 24.7656 31.519 18.1947C31.5839 17.8143 31.5424 17.4095 31.7404 17.0537V16.7341C31.6425 16.716 31.6637 16.6446 31.6733 16.5796V16.422C31.6627 16.3303 31.6414 16.2366 31.7404 16.1759V14.8975C31.6403 14.8368 31.6573 14.743 31.6722 14.6503C31.6872 14.5576 31.6052 14.4628 31.7404 14.4192V14.1805C31.6693 13.0596 31.4571 11.9522 31.1091 10.8844ZM23.7246 16.8129C22.3577 16.8002 20.992 16.8129 19.6251 16.8129C18.2583 16.8129 16.8659 16.8066 15.4863 16.8129C15.2372 16.8129 15.1478 16.7639 15.1488 16.4933C15.1595 13.7185 15.1595 10.9441 15.1488 8.16997C15.1488 7.91429 15.2244 7.85995 15.4618 7.86741C16.0452 7.88339 16.6328 7.88978 17.2129 7.86741C17.5099 7.85463 17.5536 7.97395 17.5525 8.23282C17.5419 10.1504 17.5525 12.0563 17.5397 13.9675C17.5397 14.3105 17.5972 14.4362 17.9815 14.4319C19.904 14.4085 21.8276 14.4266 23.7512 14.4149C24.0152 14.4149 24.1206 14.4575 24.1078 14.7515C24.0822 15.3215 24.078 15.8946 24.1078 16.4635C24.127 16.781 23.9971 16.8151 23.7246 16.8129Z" fill="#FF8345"/>
</svg>
