<svg width="38" height="32" viewBox="0 0 38 32" fill="none" xmlns="http://www.w3.org/2000/svg">
<g clip-path="url(#clip0_596_2293)">
<path d="M0.775418 21.0204C0.974142 20.2569 1.33374 19.5463 1.82936 18.9379C2.40417 18.2966 3.07173 17.748 3.8091 17.3109C4.04712 17.1621 4.33269 17.1129 4.60573 17.1735C4.87877 17.2342 5.11799 17.4001 5.27308 17.6363C5.42939 17.8727 5.48748 18.1623 5.43468 18.442C5.38189 18.7217 5.2225 18.9689 4.99118 19.1298C4.58703 19.3941 4.20069 19.6854 3.83473 20.0019C3.73862 20.0962 3.64252 20.1874 3.55282 20.285C2.74555 21.1831 2.73594 22.0161 3.55282 22.9076C4.37258 23.7301 5.35543 24.3657 6.43594 24.7721C8.52282 25.6403 10.7121 26.2288 12.9486 26.5227C13.8648 26.6627 14.7842 26.7765 15.7196 26.8481C15.7196 26.7115 15.6043 26.6691 15.5434 26.5878C15.3834 26.3862 15.2985 26.1337 15.3038 25.8747C15.309 25.6158 15.4041 25.3671 15.5722 25.1724C15.735 24.9706 15.9658 24.8375 16.2198 24.7991C16.4738 24.7606 16.7328 24.8194 16.9465 24.9641C17.9812 25.719 19.0063 26.4934 20.0026 27.3004C20.1213 27.4003 20.2162 27.5261 20.2802 27.6685C20.3442 27.8108 20.3757 27.9661 20.3723 28.1225C20.3689 28.279 20.3307 28.4327 20.2606 28.5721C20.1905 28.7114 20.0902 28.8329 19.9674 28.9274C19.0063 29.7018 17.9972 30.4534 16.9913 31.2051C16.7631 31.3707 16.4795 31.4377 16.2027 31.3913C15.9259 31.345 15.6784 31.1891 15.5146 30.9578C15.3484 30.7285 15.2763 30.4428 15.3134 30.1606C15.3504 29.8784 15.4937 29.6218 15.7132 29.4447C15.8285 29.3439 15.9534 29.2528 16.1296 29.1193C15.3448 29.0413 14.6208 28.9859 13.8872 28.8948C10.6036 28.4848 7.38737 27.8308 4.41455 26.2657C3.35022 25.7408 2.4087 24.9908 1.65317 24.066C1.25273 23.5089 0.952328 22.8843 0.765808 22.2211L0.775418 21.0204Z" fill="#FFCB46"/>
<path d="M20.3614 22.6993V22.3446C20.3614 18.9063 20.3614 15.4691 20.3614 12.0329C20.3502 11.9207 20.3754 11.8078 20.4333 11.7114C20.4911 11.6151 20.5784 11.5406 20.6817 11.4993C23.2637 10.0415 25.8415 8.5762 28.4149 7.10326L28.7609 6.91455V7.27573C28.7609 10.5557 28.7609 13.8324 28.7609 17.109C28.7802 17.3775 28.7189 17.6457 28.5851 17.8781C28.4512 18.1104 28.2512 18.2961 28.0113 18.4106C25.5638 19.787 23.126 21.1862 20.6849 22.5756C20.5925 22.6502 20.4793 22.6935 20.3614 22.6993Z" fill="#FFCB46"/>
<path d="M9.8156 6.91138L12.2566 8.3008C14.1488 9.38544 16.0453 10.4701 17.946 11.5547C18.0227 11.5824 18.0886 11.6343 18.1341 11.7028C18.1796 11.7713 18.2024 11.8528 18.1991 11.9354C18.1991 15.4822 18.1991 19.0289 18.1991 22.5757C18.1991 22.6213 18.1991 22.6668 18.1991 22.7579L15.7548 21.3718C14.0057 20.3761 12.2598 19.3739 10.5075 18.3847C10.3032 18.2918 10.1298 18.1405 10.0086 17.9493C9.88746 17.758 9.82373 17.5351 9.82521 17.3076V7.09034C9.80599 7.04478 9.8124 7.00249 9.8156 6.91138Z" fill="#FFCB46"/>
<path d="M27.6621 4.99793L25.4709 6.24744C23.504 7.36896 21.536 8.49155 19.5669 9.61523C19.4938 9.67312 19.4053 9.70746 19.3128 9.71384C19.2204 9.72022 19.1281 9.69833 19.048 9.65102C16.4126 8.13253 13.7751 6.62705 11.1354 5.13459C11.0617 5.09229 10.972 5.07277 10.9368 4.9719L17.9268 0.985856C18.167 0.849191 18.4137 0.722286 18.6507 0.57586C18.8431 0.452766 19.0665 0.388808 19.2938 0.391695C19.5212 0.394582 19.7428 0.464205 19.9321 0.592145C22.3251 1.9653 24.7373 3.32542 27.1239 4.69206L27.6621 4.99793Z" fill="#FFCB46"/>
<path d="M37.7786 21.671C37.7286 22.7052 37.2989 23.6827 36.5741 24.4108C35.59 25.4213 34.4125 26.2164 33.1144 26.7472C31.2007 27.5706 29.1972 28.1593 27.1463 28.501C26.4384 28.6312 25.881 28.2667 25.7785 27.6452C25.6631 26.9619 26.0732 26.4543 26.8452 26.3111C28.601 26.0134 30.3196 25.5224 31.9708 24.8469C32.8913 24.4826 33.7547 23.9838 34.5335 23.3663C35.9687 22.1722 35.9815 21.0886 34.5688 19.8619C34.2777 19.6294 33.9751 19.4122 33.6622 19.2111C33.5364 19.1358 33.4269 19.0354 33.3403 18.916C33.2537 18.7966 33.1918 18.6607 33.1582 18.5164C33.1247 18.372 33.1202 18.2223 33.1451 18.0762C33.17 17.93 33.2237 17.7905 33.3031 17.666C33.3824 17.5415 33.4857 17.4346 33.6067 17.3517C33.7278 17.2688 33.8641 17.2116 34.0075 17.1836C34.1509 17.1556 34.2983 17.1573 34.441 17.1887C34.5837 17.2201 34.7187 17.2804 34.8378 17.3661C35.6733 17.8592 36.4057 18.5136 36.9938 19.2924C37.5016 19.9783 37.777 20.8129 37.7786 21.671Z" fill="#FFCB46"/>
</g>
<defs>
<clipPath id="clip0_596_2293">
<rect width="37" height="31" fill="white" transform="translate(0.778625 0.387207)"/>
</clipPath>
</defs>
</svg>
