<svg width="31" height="32" viewBox="0 0 31 32" fill="none" xmlns="http://www.w3.org/2000/svg">
<g clip-path="url(#clip0_596_2248)">
<path d="M3.8399 31.9999C3.87645 31.8906 3.88621 31.7743 3.86838 31.6605C3.86838 29.6268 3.86838 27.5931 3.86838 25.5594C3.86838 25.2931 3.94194 25.2389 4.19821 25.2389C6.60191 25.2389 9.00561 25.2389 11.4093 25.2389C11.4993 25.2505 11.5906 25.2311 11.6679 25.1839C11.7452 25.1367 11.8038 25.0646 11.8341 24.9796C12.6313 23.33 13.4405 21.6663 14.3018 20.012V31.9881L3.8399 31.9999Z" fill="#48B774"/>
<path d="M16.1883 31.9999V20.0285L16.2333 20.012C16.3022 20.1463 16.371 20.2759 16.435 20.4102C17.1777 21.9373 17.9205 23.4596 18.6537 24.9914C18.6839 25.0764 18.7425 25.1485 18.8198 25.1957C18.8972 25.2429 18.9884 25.2623 19.0784 25.2506C21.4821 25.2506 23.8858 25.2506 26.2895 25.2506C26.5458 25.2506 26.6241 25.3048 26.6217 25.5711C26.6098 27.6049 26.6217 29.6386 26.6217 31.6723C26.603 31.7859 26.612 31.9022 26.6478 32.0117L16.1883 31.9999Z" fill="#48B774"/>
<path d="M16.7554 16.7388H20.5685C22.6045 16.7388 24.6404 16.7388 26.6763 16.7388C26.7666 16.7273 26.8581 16.747 26.9354 16.7947C27.0127 16.8423 27.0712 16.9149 27.101 17.0004C28.0976 19.027 29.1084 21.0442 30.1122 23.0662C30.1795 23.1547 30.2176 23.2617 30.2213 23.3725H29.9152C26.704 23.3725 23.4927 23.3725 20.2814 23.3725C20.1868 23.3844 20.091 23.3638 20.0098 23.314C19.9287 23.2643 19.8671 23.1885 19.8353 23.0992C18.864 21.082 17.8864 19.0702 16.9025 17.064C16.8574 16.9721 16.8171 16.8778 16.7554 16.7388Z" fill="#48B774"/>
<path d="M0.221313 23.3585L1.37927 21.0349C2.05158 19.6838 2.72309 18.3327 3.39382 16.9816C3.465 16.8355 3.5267 16.7318 3.73077 16.7459C7.05276 16.7459 10.3684 16.7459 13.6778 16.7459C13.73 16.8543 13.6493 16.925 13.6113 17.0004C12.6179 19.0428 11.6237 21.093 10.6287 23.1511C10.6066 23.2242 10.5599 23.2875 10.4964 23.3304C10.4328 23.3733 10.3564 23.3932 10.2798 23.3868C6.98633 23.3773 3.69201 23.3773 0.39691 23.3868L0.221313 23.3585Z" fill="#48B774"/>
<path d="M10.5717 7.95829C10.2466 7.95829 9.92154 7.95829 9.59646 7.95829C9.45172 7.95829 9.35918 7.95828 9.41612 7.76033C9.76181 6.15172 10.4449 4.63349 11.4208 3.30453C12.3967 1.97557 13.6435 0.865712 15.0801 0.0472469C15.129 0.0116381 15.188 -0.00756836 15.2486 -0.00756836C15.3092 -0.00756836 15.3682 0.0116381 15.4171 0.0472469C16.8484 0.86471 18.0906 1.97194 19.0631 3.29708C20.0356 4.62222 20.7167 6.13565 21.0621 7.73913C21.1001 7.90173 21.0906 7.95593 20.9031 7.95357C20.2648 7.95357 19.6241 7.95357 18.9835 7.95357C18.7936 7.95357 18.7201 7.8923 18.656 7.71791C18.1316 6.32753 17.1279 5.5098 15.6425 5.31891C14.8342 5.22432 14.0175 5.40625 13.3273 5.83468C12.637 6.2631 12.1145 6.91242 11.8459 7.67549C11.7724 7.88287 11.6893 7.97714 11.4544 7.95829C11.1602 7.94179 10.8659 7.95829 10.5717 7.95829Z" fill="#48B774"/>
<path d="M15.2439 14.8606C13.4286 14.8606 11.611 14.8606 9.7863 14.8606C9.568 14.8606 9.48257 14.8205 9.46834 14.5825C9.36868 13.1049 9.18597 11.6368 9.13614 10.1545C9.13614 9.90468 9.18597 9.81277 9.45885 9.8222C10.1399 9.84341 10.8232 9.83634 11.5066 9.8222C11.5761 9.81125 11.6471 9.82784 11.7043 9.8684C11.7616 9.90895 11.8005 9.97023 11.8127 10.039C12.0549 10.7486 12.5148 11.3649 13.1279 11.8014C13.741 12.238 14.4764 12.4727 15.2308 12.4727C15.9852 12.4727 16.7206 12.238 17.3337 11.8014C17.9468 11.3649 18.4067 10.7486 18.6489 10.039C18.6611 9.96992 18.6999 9.90823 18.757 9.86691C18.8141 9.8256 18.885 9.80789 18.955 9.81749C19.6669 9.81749 20.3621 9.83163 21.0645 9.81749C21.2828 9.81749 21.3279 9.88819 21.3279 10.0814C21.3279 11.0641 21.1997 12.0374 21.1262 13.0154C21.0882 13.5432 21.0241 14.0735 20.9933 14.6037C20.9814 14.8064 20.9102 14.8535 20.7133 14.8511C18.8957 14.8582 17.071 14.8606 15.2439 14.8606Z" fill="#48B774"/>
<path d="M15.2367 10.6069C15.0111 10.6075 14.7875 10.5639 14.5788 10.4786C14.3701 10.3932 14.1804 10.2678 14.0206 10.1096C13.8608 9.95128 13.734 9.76325 13.6475 9.55623C13.561 9.3492 13.5164 9.12726 13.5164 8.90312C13.5066 8.67274 13.5437 8.44276 13.6255 8.22693C13.7072 8.0111 13.8319 7.81385 13.9921 7.64696C14.1523 7.48007 14.3448 7.34697 14.5579 7.25561C14.7711 7.16426 15.0007 7.11653 15.2328 7.11526C15.465 7.11399 15.6951 7.15921 15.9092 7.24824C16.1234 7.33726 16.3173 7.46825 16.4794 7.63338C16.6414 7.79851 16.7683 7.99438 16.8524 8.20931C16.9365 8.42423 16.9762 8.65379 16.9689 8.88426C16.9715 9.11099 16.9284 9.33593 16.8423 9.54592C16.7562 9.7559 16.6287 9.9467 16.4674 10.1071C16.3061 10.2676 16.1141 10.3944 15.9028 10.4802C15.6915 10.5661 15.465 10.6091 15.2367 10.6069Z" fill="#48B774"/>
</g>
<defs>
<clipPath id="clip0_596_2248">
<rect width="30" height="32" fill="white" transform="translate(0.221313)"/>
</clipPath>
</defs>
</svg>
