<svg width="32" height="24" viewBox="0 0 32 24" fill="none" xmlns="http://www.w3.org/2000/svg">
<g clip-path="url(#clip0_596_2273)">
<path d="M21.9468 23.3819H13.7622C12.6521 23.3819 12.0996 22.8122 12.1179 21.686C12.186 17.5878 15.2991 13.9524 19.305 13.4441C21.3211 13.1766 23.3712 13.1285 25.3794 13.5779C27.0077 13.9721 28.4832 14.8554 29.6158 16.1141C30.7484 17.3728 31.4861 18.9491 31.7338 20.64C31.781 21.0038 31.8176 21.373 31.8333 21.7421C31.8752 22.7453 31.2783 23.3819 30.2964 23.3819H21.9468Z" fill="#61FFFF"/>
<path d="M9.28239 11.8818C8.17135 11.8781 7.08625 11.5384 6.16389 10.9056C5.24153 10.2727 4.5232 9.37502 4.09945 8.32567C3.67571 7.27632 3.56553 6.12227 3.7828 5.00904C4.00006 3.8958 4.53505 2.87319 5.32032 2.07015C6.10558 1.2671 7.10597 0.719565 8.19537 0.496554C9.28477 0.273543 10.4144 0.385046 11.4419 0.817007C12.4693 1.24897 13.3486 1.98205 13.9689 2.92383C14.5892 3.86561 14.9227 4.97394 14.9273 6.10908C14.9294 6.86731 14.7848 7.61849 14.502 8.31948C14.2191 9.02047 13.8034 9.65745 13.2789 10.1939C12.7544 10.7303 12.1313 11.1555 11.4455 11.4452C10.7596 11.7348 10.0245 11.8832 9.28239 11.8818Z" fill="#61FFFF"/>
<path d="M16.3412 6.12505C16.3407 4.98664 16.6704 3.87361 17.2887 2.92654C17.9069 1.97948 18.7861 1.24087 19.815 0.803999C20.8439 0.367131 21.9765 0.251608 23.0697 0.472019C24.1628 0.692429 25.1675 1.2389 25.9569 2.04238C26.7462 2.84586 27.2848 3.87032 27.5046 4.98636C27.7244 6.1024 27.6155 7.25996 27.1917 8.31282C26.768 9.36569 26.0483 10.2666 25.1236 10.9018C24.199 11.537 23.1108 11.878 21.9966 11.8817C20.4997 11.8839 19.0631 11.2787 18.0027 10.1993C16.9423 9.11986 16.3446 7.65444 16.3412 6.12505Z" fill="#61FFFF"/>
<path d="M12.5997 13.8266C11.3759 15.059 10.4529 16.5682 9.90552 18.2324C9.38187 19.8989 9.06506 21.5949 9.51278 23.3524C9.43162 23.4113 9.33213 23.3791 9.25096 23.3791H2.44353C1.39623 23.3791 0.851636 22.7987 0.838545 21.7286C0.80189 18.8102 1.88584 16.4562 4.24226 14.7468C5.37199 13.9152 6.71124 13.4315 8.10155 13.3531C9.59657 13.2648 11.1021 13.2354 12.5997 13.8266Z" fill="#61FFFF"/>
</g>
<defs>
<clipPath id="clip0_596_2273">
<rect width="31" height="23" fill="white" transform="translate(0.835938 0.387207)"/>
</clipPath>
</defs>
</svg>
