<svg width="36" height="31" viewBox="0 0 36 31" fill="none" xmlns="http://www.w3.org/2000/svg">
<g clip-path="url(#clip0_596_2315)">
<path d="M35.1639 10.3464C35.0778 10.7395 34.9956 11.1326 34.9017 11.5257C34.5145 13.1238 33.6729 14.5743 32.4794 15.7004C31.7868 16.3609 31.0746 17.0016 30.378 17.666C30.2215 17.8193 30.1354 17.8271 29.9867 17.666C29.3136 16.9715 28.6301 16.2835 27.9362 15.6022C27.5167 15.1659 26.9881 14.8512 26.4057 14.6912C25.8234 14.5311 25.2089 14.5315 24.6268 14.6924C24.0447 14.8532 23.5164 15.1686 23.0975 15.6054C22.6787 16.0422 22.3846 16.5842 22.2463 17.1746C22.1054 17.7682 21.9176 17.9608 21.3189 18.0905C20.6367 18.2452 20.0223 18.6167 19.5669 19.15C19.1115 19.6832 18.8394 20.3497 18.7909 21.0506C18.7635 21.2707 18.697 21.3257 18.4935 21.3493C17.8661 21.4086 17.2678 21.643 16.7661 22.0261C16.2644 22.4092 15.8794 22.9256 15.6547 23.517C15.43 24.1084 15.3744 24.7512 15.4944 25.3726C15.6143 25.9941 15.9049 26.5694 16.3334 27.0336C16.8852 27.6468 17.4839 28.2129 18.067 28.7868C18.2039 28.9205 18.2196 28.9912 18.067 29.1249C17.6326 29.518 17.2139 29.9111 16.7834 30.3042C16.326 30.7478 15.7189 31.002 15.0832 31.0161C14.4475 31.0301 13.8298 30.8029 13.3534 30.3799C12.877 29.9568 12.5768 29.369 12.5126 28.7335C12.4484 28.098 12.625 27.4615 13.0072 26.951C13.0346 26.9156 13.058 26.8763 13.1285 26.7663C12.5808 27.1147 11.9268 27.2542 11.2853 27.1594C10.664 27.0564 10.1047 26.7207 9.72005 26.2198C9.00392 25.3157 9.01175 24.2543 9.77092 22.965C9.29468 23.2617 8.73714 23.3993 8.17824 23.3581C7.70101 23.3391 7.24059 23.1759 6.85726 22.8898C6.47392 22.6036 6.18554 22.2078 6.02987 21.7542C5.85817 21.3137 5.82234 20.8314 5.92702 20.3702C6.03169 19.9089 6.27205 19.4899 6.61685 19.1676C8.98827 16.7736 11.3714 14.3954 13.735 11.9975C13.9737 11.7577 14.0833 11.7773 14.2985 11.9975C14.7877 12.5281 15.3042 13.0273 15.813 13.5344C16.4689 14.2168 17.3195 14.6779 18.2474 14.8542C19.1753 15.0304 20.1347 14.9131 20.9934 14.5185C21.8521 14.1239 22.5678 13.4713 23.0417 12.6508C23.5156 11.8303 23.7245 10.8823 23.6394 9.9376C23.5672 8.86484 23.1097 7.85487 22.352 7.09544C21.4598 6.18344 20.5584 5.27672 19.6479 4.37521C19.4992 4.22583 19.464 4.14721 19.6479 3.9821C20.5989 3.16838 21.4989 2.29175 22.6259 1.70209C27.7522 -0.974928 34.1621 2.25244 35.0739 7.99172C35.1052 8.18827 35.0739 8.38482 35.1952 8.57744V9.05706C35.1365 9.28125 35.1365 9.51687 35.1952 9.74105L35.1639 10.3464Z" fill="#FF8345"/>
<path d="M35.1639 9.72525C35.1126 9.61861 35.086 9.5017 35.086 9.38326C35.086 9.26482 35.1126 9.14791 35.1639 9.04126V9.72525Z" fill="#FF8345"/>
<path d="M0.16394 9.02959C0.16394 4.1512 3.61542 0.381351 8.05303 0.0314908C9.29341 -0.0950784 10.5463 0.0588475 11.7197 0.481936C12.8932 0.905024 13.9575 1.58654 14.8347 2.47657C16.8461 4.44208 18.8183 6.46656 20.7984 8.47531C21.046 8.70867 21.2441 8.98983 21.381 9.30191C21.5179 9.614 21.5907 9.95062 21.5951 10.2916C21.5994 10.6326 21.5353 10.971 21.4064 11.2865C21.2776 11.602 21.0867 11.8882 20.8452 12.1279C20.6037 12.3675 20.3166 12.5559 20.0009 12.6815C19.6853 12.8071 19.3477 12.8674 19.0083 12.8589C18.669 12.8504 18.3348 12.7733 18.0258 12.632C17.7168 12.4907 17.4393 12.2883 17.21 12.0368C16.2082 11.0384 15.2064 10.0359 14.2203 9.02172C14.0246 8.82124 13.9307 8.85269 13.7507 9.02172C11.0427 11.7734 8.32304 14.4741 5.619 17.2101C5.39985 17.4341 5.29811 17.4105 5.09462 17.2101C4.25328 16.3413 3.38063 15.504 2.54711 14.6234C1.07896 13.1274 0.227722 11.1294 0.16394 9.02959Z" fill="#FF8345"/>
<path d="M26.4179 24.392C26.3956 24.6327 26.3092 24.8629 26.1679 25.0586C26.0266 25.2543 25.8356 25.4082 25.6147 25.5043C25.3939 25.6003 25.1514 25.6349 24.9127 25.6046C24.674 25.5742 24.4478 25.4798 24.2578 25.3315C24.0112 25.131 23.796 24.8913 23.5691 24.6672C22.7864 23.881 22.0038 23.1183 21.2524 22.3361C21.1174 22.2138 21.0086 22.0653 20.9324 21.8995C20.8563 21.7337 20.8144 21.5541 20.8095 21.3716C20.8045 21.1891 20.8365 21.0075 20.9034 20.8378C20.9704 20.668 21.071 20.5137 21.1992 20.3842C21.3273 20.2547 21.4803 20.1527 21.6488 20.0843C21.8173 20.016 21.9979 19.9828 22.1797 19.9866C22.3614 19.9905 22.5404 20.0314 22.7059 20.1069C22.8714 20.1823 23.02 20.2908 23.1425 20.4256C24.0973 21.373 25.0443 22.3322 25.9953 23.2874C26.1409 23.43 26.2541 23.6025 26.327 23.7932C26.4 23.9839 26.431 24.1881 26.4179 24.392Z" fill="#FF8345"/>
<path d="M23.0721 27.7137C23.0553 27.97 22.9662 28.2162 22.8152 28.4235C22.6642 28.6308 22.4575 28.7906 22.2194 28.8842C21.9813 28.9778 21.7216 29.0014 21.4706 28.9522C21.2197 28.9029 20.9879 28.7828 20.8024 28.6061C20.188 28.0086 19.5893 27.3953 18.9866 26.79C18.5953 26.3968 18.2392 26.0509 17.8753 25.6696C17.7408 25.5468 17.6325 25.3978 17.557 25.2317C17.4816 25.0656 17.4405 24.8858 17.4362 24.7033C17.432 24.5207 17.4647 24.3392 17.5324 24.1698C17.6001 24.0003 17.7013 23.8464 17.83 23.7175C17.9586 23.5885 18.112 23.4871 18.2809 23.4194C18.4497 23.3518 18.6304 23.3193 18.8122 23.3239C18.9939 23.3286 19.1727 23.3702 19.3379 23.4464C19.5031 23.5225 19.6512 23.6316 19.7732 23.767C20.7359 24.7222 21.6907 25.6932 22.6494 26.6523C22.7897 26.7898 22.8997 26.9553 22.9725 27.1381C23.0453 27.3209 23.0792 27.517 23.0721 27.7137Z" fill="#FF8345"/>
<path d="M29.7676 20.9523C29.766 21.2042 29.6911 21.4501 29.552 21.6597C29.4129 21.8693 29.2158 22.0333 28.9849 22.1316C28.7437 22.2547 28.4697 22.297 28.2029 22.2524C27.936 22.2079 27.6904 22.0788 27.5018 21.884C26.9892 21.3926 26.5 20.8816 25.9991 20.3823C25.4982 19.8831 25.0599 19.4468 24.5982 18.975C24.4632 18.8528 24.3543 18.7043 24.2782 18.5385C24.202 18.3727 24.1602 18.1931 24.1552 18.0106C24.1502 17.8281 24.1822 17.6464 24.2492 17.4767C24.3162 17.3069 24.4168 17.1527 24.5449 17.0232C24.673 16.8937 24.826 16.7916 24.9946 16.7233C25.1631 16.655 25.3437 16.6217 25.5254 16.6255C25.7071 16.6294 25.8862 16.6703 26.0517 16.7458C26.2172 16.8213 26.3657 16.9297 26.4883 17.0646C27.447 18.0119 28.394 18.9711 29.341 19.9263C29.4781 20.059 29.5867 20.2185 29.6601 20.3949C29.7334 20.5714 29.77 20.7611 29.7676 20.9523Z" fill="#FF8345"/>
</g>
<defs>
<clipPath id="clip0_596_2315">
<rect width="35" height="31" fill="white" transform="translate(0.16394)"/>
</clipPath>
</defs>
</svg>
