<svg width="35" height="31" viewBox="0 0 35 31" fill="none" xmlns="http://www.w3.org/2000/svg">
<g clip-path="url(#clip0_596_2283)">
<path d="M33.7898 14.7413C33.1983 11.4191 32.6068 8.09609 32.0152 4.77218C31.8866 4.04717 31.7783 3.31687 31.6133 2.59981C31.3329 1.37939 30.0162 0.437147 28.9134 0.627892C25.6051 1.19895 22.2967 1.77 18.9884 2.34106C14.8538 3.05989 10.7197 3.78195 6.58622 4.50726C6.02048 4.5999 5.49991 4.87189 5.102 5.28272C4.70408 5.69356 4.45009 6.22129 4.37781 6.78737C4.29352 7.40553 4.51534 7.98394 4.56591 8.58267C4.59608 8.94209 4.7549 8.98712 5.06722 8.98712C11.6182 8.97829 18.1686 8.97535 24.7184 8.97829C25.3918 8.97829 26.0493 9.0666 26.6544 9.3536C28.499 10.227 29.4457 11.6902 29.4564 13.7266C29.4679 15.9838 29.4626 18.2418 29.4564 20.499C29.4564 20.7365 29.483 20.8239 29.7571 20.7683C30.4812 20.6199 31.2123 20.5034 31.9416 20.3771C33.1293 20.1763 33.8844 19.4993 34.2068 18.346C34.2192 18.3027 34.2254 18.2577 34.276 18.2471V17.3888C34.0693 16.5145 33.9468 15.6252 33.7898 14.7413Z" fill="#48B774"/>
<path d="M27.1069 21.9111C22.6919 21.9223 18.2771 21.925 13.8627 21.9191C9.44825 21.9132 5.03351 21.9108 0.618476 21.912C0.339875 21.912 0.276872 21.9782 0.278646 22.252C0.291955 24.1126 0.284865 25.9733 0.286639 27.834C0.282868 27.999 0.292059 28.164 0.314139 28.3276C0.544828 29.7211 1.61487 30.6024 3.08684 30.6024C10.2441 30.6024 17.4014 30.6024 24.5587 30.6024C26.3793 30.6024 27.4698 29.5197 27.4716 27.7121C27.4733 25.9044 27.4645 24.1003 27.4787 22.2944C27.4849 22.0003 27.4201 21.9103 27.1069 21.9111ZM8.04933 28.2207C7.33153 28.2207 6.61284 28.2207 5.89504 28.2207C5.17724 28.2207 4.48163 28.2207 3.77448 28.2207C3.13298 28.2207 2.68314 27.8119 2.67693 27.2396C2.67072 26.6524 3.125 26.24 3.78779 26.2391C5.21274 26.2391 6.63739 26.2391 8.06175 26.2391C8.72631 26.2391 9.18325 26.6506 9.17881 27.2361C9.17438 27.8216 8.72276 28.2207 8.04933 28.2207Z" fill="#48B774"/>
<path d="M27.1069 15.4399C22.7031 15.4517 18.2996 15.4544 13.8964 15.4479C9.46007 15.4479 5.02375 15.4458 0.587418 15.4417C0.340758 15.4417 0.27598 15.4956 0.279529 15.7455C0.293725 17.0548 0.293725 18.365 0.279529 19.6761C0.279529 19.9066 0.357613 19.941 0.561684 19.941C9.43434 19.9363 18.307 19.9363 27.1796 19.941C27.4458 19.941 27.4822 19.8474 27.4804 19.6169C27.4707 18.3515 27.4662 17.0851 27.4804 15.8197C27.4875 15.5256 27.4165 15.4399 27.1069 15.4399Z" fill="#48B774"/>
<path d="M0.627348 13.4732C5.04179 13.4614 9.45623 13.4587 13.8707 13.4652H26.815C27.563 13.4652 27.5763 13.4458 27.3225 12.7234C26.9241 11.5913 25.9552 10.9573 24.6181 10.9573H3.1463C3.03539 10.9573 2.92448 10.9573 2.81446 10.9652C2.21847 10.9899 1.64844 11.2148 1.19729 11.6032C0.746144 11.9916 0.440481 12.5206 0.330116 13.104C0.274218 13.3849 0.301722 13.4732 0.627348 13.4732Z" fill="#48B774"/>
</g>
<defs>
<clipPath id="clip0_596_2283">
<rect width="34" height="30" fill="white" transform="translate(0.278648 0.603271)"/>
</clipPath>
</defs>
</svg>
