<svg width="62" height="70" viewBox="0 0 62 70" fill="none" xmlns="http://www.w3.org/2000/svg">
<g clip-path="url(#clip0_596_1835)">
<path d="M41.953 7.42342C38.7141 5.09194 35.2668 11.5654 38.8053 12.5379C42.3437 13.5105 45.8041 7.64485 41.8444 6.20776C38.3103 4.92696 35.7661 10.6493 38.5708 12.8114C40.0774 13.975 42.5739 13.5712 43.9979 12.4511C45.587 11.2007 45.4263 9.17746 44.3453 7.62748C43.325 6.15999 41.4884 5.11365 39.6997 5.82569C38.9177 6.15406 38.2665 6.73219 37.8479 7.46976C37.4292 8.20733 37.2666 9.06279 37.3856 9.90252C37.5421 10.8282 37.9778 11.684 38.6343 12.3552C39.2907 13.0264 40.1366 13.481 41.0586 13.6581C42.7692 13.9403 44.4581 12.9113 44.2411 11.027C44.0413 9.29035 42.3481 7.55367 40.5376 7.55367C40.1196 7.55136 39.7073 7.64966 39.3353 7.84026C38.9633 8.03086 38.6426 8.30818 38.4004 8.64878C38.1581 8.98939 38.0014 9.38329 37.9434 9.79722C37.8854 10.2111 37.9279 10.633 38.0672 11.027C38.3766 11.7951 38.9618 12.4198 39.7079 12.7789C40.454 13.1379 41.3074 13.2052 42.1006 12.9678C43.5681 12.4337 43.6419 10.5625 42.8213 9.43797C41.9052 8.1919 39.0831 7.92706 39.2351 10.0762C39.348 11.6783 41.8965 12.4077 42.7649 11.0053C43.5724 9.7028 41.927 7.99219 40.8285 9.3164C39.6649 10.7188 42.131 11.2919 43.0601 10.3627C43.1077 10.2949 43.1348 10.2149 43.1384 10.1322C43.142 10.0494 43.1218 9.96739 43.0803 9.89573C43.0387 9.82407 42.9776 9.76579 42.904 9.72776C42.8304 9.68973 42.7475 9.67354 42.665 9.6811C42.3493 9.71037 42.0563 9.85765 41.8444 10.0936C41.445 10.4322 42.0225 11.0053 42.4175 10.6667L42.8821 10.4669C42.7475 10.2412 42.6173 10.0328 42.487 9.78964C40.5246 11.2861 40.3596 11.26 41.9921 9.71149L42.4262 10.4539C42.5174 10.6546 42.5561 10.8752 42.5388 11.0949C42.5215 11.3147 42.4487 11.5264 42.3272 11.7104C42.2058 11.8943 42.0396 12.0444 41.8443 12.1467C41.649 12.2489 41.431 12.2998 41.2106 12.2948C39.8777 12.3946 38.1453 10.9185 38.8096 9.49006C40.7807 5.22654 46.1297 12.9373 41.5883 12.8896C39.2438 12.8679 37.3248 10.0588 38.4883 7.92706C39.8603 5.42625 42.83 6.45523 43.9675 8.58266C45.4003 11.3092 42.131 13.4019 39.704 12.4902C37.3812 11.6218 37.8718 8.32215 39.7431 7.23239C41.1194 6.43352 42.7475 7.23239 42.7432 8.86486C42.7432 10.1674 41.6187 11.2528 40.4594 11.6479C38.9963 12.1472 37.7633 11.2441 38.2886 9.65505C38.7228 8.30479 40.1729 7.13687 41.5449 8.12243C41.979 8.42635 42.3741 7.723 41.953 7.41908V7.42342Z" fill="#22292F"/>
<path d="M20.7655 1.71815C15.6578 19.258 9.04701 36.3247 1.00656 52.7285C0.944471 52.8473 0.909091 52.9783 0.902899 53.1123C0.896707 53.2462 0.919846 53.3799 0.970711 53.5039C1.02158 53.628 1.09895 53.7394 1.19739 53.8305C1.29582 53.9215 1.41296 53.99 1.54061 54.031L26.8005 64.3295C30.9989 66.0444 35.1669 67.92 39.426 69.483C42.17 70.486 43.8546 69.5221 44.8271 66.8129C47.8663 58.338 50.328 49.6025 53.0763 41.0233C55.881 32.2474 58.6828 23.4714 61.4818 14.6954C61.516 14.5622 61.5195 14.423 61.492 14.2883C61.4645 14.1535 61.4068 14.0268 61.3232 13.9177C61.2395 13.8085 61.1322 13.7198 61.0092 13.6582C60.8863 13.5967 60.7509 13.5638 60.6134 13.5622C47.4234 12.2009 34.7527 7.69398 23.6658 0.419989C22.6976 -0.209554 21.8032 1.33608 22.7627 1.96129C34.1268 9.38829 47.107 13.9801 60.6134 15.351L59.7451 14.2178C54.7117 29.9897 49.6782 45.7645 44.6448 61.5421C44.3408 62.5016 44.0326 63.4611 43.7287 64.4206C43.4899 65.1587 43.2207 66.9605 42.5955 67.4946C41.6143 68.3325 40.1077 67.8462 39.1222 67.4468C38.1366 67.0473 37.0164 66.5784 35.9657 66.1443L24.9162 61.6376L2.01818 52.2943L2.5522 53.5968C10.659 37.0648 17.3292 19.8663 22.4892 2.19139C22.8105 1.08861 21.0868 0.61536 20.7525 1.71815H20.7655Z" fill="#22292F"/>
<path d="M24.9292 18.2688C32.9352 22.0085 41.0397 25.5107 49.2426 28.7757C49.7288 28.9711 49.9416 28.1852 49.4597 27.9942C41.3205 24.7524 33.2782 21.2791 25.333 17.5742C24.8597 17.3527 24.4646 18.0518 24.9205 18.2732L24.9292 18.2688Z" fill="#22292F"/>
<path d="M21.8596 24.4253C25.207 26.6787 29.171 27.5904 32.9786 28.8495C37.6506 30.4223 42.2284 32.2619 46.6897 34.3591C47.1586 34.5762 47.558 33.8772 47.0978 33.6557C43.0741 31.7641 38.9573 30.0774 34.7631 28.602C30.569 27.1345 26.0103 26.2315 22.2894 23.709C21.8553 23.4181 21.4471 24.1214 21.8813 24.4123L21.8596 24.4253Z" fill="#22292F"/>
<path d="M17.2662 41.5314L28.6023 45.643L34.2812 47.7009C36.3131 48.4347 38.497 49.0034 40.2337 50.358C40.6418 50.675 41.2192 50.1019 40.8068 49.7849C37.9109 47.5446 33.8601 46.6806 30.4475 45.4433L17.4963 40.7456C17.0013 40.5675 16.7929 41.3491 17.2792 41.5271L17.2662 41.5314Z" fill="#22292F"/>
<path d="M13.8232 48.4479C19.1088 50.4316 24.2514 52.7774 29.2144 55.4683C29.6486 55.7158 30.0828 55.0342 29.6226 54.765C24.5965 52.0461 19.3902 49.6743 14.0403 47.6663C13.5497 47.4797 13.3369 48.2655 13.8232 48.4479Z" fill="#22292F"/>
<path d="M33.0394 57.6348C34.2121 58.1667 35.3242 58.8232 36.3565 59.5929C36.7906 59.9055 37.177 59.2022 36.7646 58.8939C35.7339 58.1228 34.6233 57.4649 33.4519 56.9315C32.9786 56.7187 32.5836 57.4177 33.0177 57.6348H33.0394Z" fill="#22292F"/>
<path d="M21.3039 32.4663C26.8998 36.021 32.8001 39.0721 38.9354 41.5838C39.4173 41.7836 39.6301 40.9977 39.1525 40.8023C33.0834 38.3068 27.2472 35.2789 21.712 31.7543C21.2778 31.4721 20.8437 32.1885 21.3039 32.4533V32.4663Z" fill="#22292F"/>
</g>
<defs>
<clipPath id="clip0_596_1835">
<rect width="60.6141" height="69.5971" fill="white" transform="translate(0.89801 0.272598)"/>
</clipPath>
</defs>
</svg>
