<svg width="130" height="150" viewBox="0 0 132 164" fill="none" xmlns="http://www.w3.org/2000/svg">
<path fill-rule="evenodd" clip-rule="evenodd" d="M20.0604 31.0904C25.4957 20.2124 32.1584 10.1284 39.1999 0.313988C40.0046 0.520805 39.2977 1.022 39.5845 1.3384C40.0406 1.54898 40.5482 0.449896 41.1349 1.42757C41.6742 2.32575 41.3546 3.00099 40.9748 3.69772C38.9759 7.36509 36.089 10.4625 34.3469 14.3302C33.7506 15.6528 33.4901 17.2724 32.0198 18.3027C31.1147 18.9366 31.3279 20.5396 30.528 21.5951C30.0274 22.2564 29.7491 23.1814 29.1921 23.9276C26.9724 26.8982 25.6933 30.2583 25.3286 33.9515C25.2631 34.6165 24.9859 35.2187 24.3692 35.2391C22.6878 35.2955 21.0177 35.9923 19.3696 34.5209C18.1732 33.4524 18.062 32.485 18.4005 31.1968C19.2165 28.0935 20.835 25.3549 22.4235 22.6185C24.2816 19.4179 26.3917 16.3683 28.36 13.2387C31.0072 9.02929 33.9709 5.05412 36.782 0.967743C37.0495 0.579358 37.3058 -0.223734 37.8924 0.129734C38.3339 0.395641 37.8687 1.03167 37.6168 1.41844C36.0278 3.85727 34.3265 6.21336 32.5839 8.54905C30.9138 10.7875 29.5138 13.2398 28.1193 15.6689C25.8658 19.5957 23.3829 23.391 21.3437 27.4403C20.7625 28.5947 20.1872 29.7641 20.0604 31.0904Z" fill="#22292F"/>
<path fill-rule="evenodd" clip-rule="evenodd" d="M11.4696 78.0362C10.4484 78.857 9.70976 77.5796 9.38691 77.3201C8.51344 76.6185 7.14414 77.3421 6.80303 76.5116C6.28679 75.2541 5.1732 74.1899 5.63518 72.5053C6.52799 69.2467 7.88117 66.1793 9.13926 63.0685C10.0514 60.8134 10.9206 58.5362 12.2528 56.4745C12.8469 55.5553 13.5297 54.7447 14.538 54.2827C15.5721 53.8084 16.48 53.7746 17.4759 54.6271C18.2129 55.2577 19.1632 55.6719 19.8454 56.4132C20.4949 57.118 21.0106 57.8556 20.2446 58.8161C19.7069 59.4897 19.8041 60.3729 19.5333 61.141C18.445 64.2277 18.0308 67.5519 16.285 70.4059C14.9903 72.523 14.0336 74.8012 13.0355 77.0617C12.7497 77.709 12.4731 78.4912 11.4696 78.0362Z" fill="#22292F"/>
<path fill-rule="evenodd" clip-rule="evenodd" d="M75.8527 54.9189C75.6126 55.4604 75.4579 55.8085 75.3086 56.1448C75.4858 56.3763 75.6497 56.2383 75.8259 56.1889C76.1874 56.0868 76.3115 55.3944 76.7493 55.671C77.279 56.0057 76.5978 56.4064 76.6386 56.8029C77.2183 56.9377 77.3724 56.2216 77.8452 56.2018C78.5779 57.3288 78.1933 58.2361 77.511 59.2471C75.6572 61.9943 74.0505 64.8817 72.9686 68.0414C72.5603 69.2345 71.032 69.8174 71.0025 71.2022C70.9649 72.9588 70.1451 74.4839 69.2238 75.7399C67.6327 77.909 67.2926 80.4612 66.3456 82.8189C66.0791 83.4824 66.4444 84.2994 65.789 84.8431C65.5774 85.0187 65.2449 85.4189 65.1068 85.0816C64.633 83.9288 63.7096 84.4842 62.9452 84.293C61.5264 83.9379 61.2471 82.5466 61.1085 81.3229C60.8904 79.3944 61.4469 77.5292 62.2296 75.8102C65.225 69.2281 68.7087 62.9134 73.0185 57.0887C73.675 56.2012 74.2637 55.0876 75.8527 54.9189Z" fill="#22292F"/>
<path fill-rule="evenodd" clip-rule="evenodd" d="M56.005 28.7826C55.6763 29.807 55.3588 30.8792 54.9892 31.9337C52.6487 38.6185 49.6125 44.9901 46.3238 51.2516C45.063 53.6518 43.6099 55.9552 42.6559 58.5165C42.383 59.2503 41.8926 59.8294 41.0175 59.0489C40.8112 58.8646 40.505 58.7814 40.2321 58.6847C38.4169 58.0422 37.7078 56.6509 38.2773 54.7627C38.8607 52.8256 39.9399 51.1291 40.9858 49.4284C45.4111 42.2349 49.5738 34.906 52.7513 27.0566C53.1542 26.0617 53.2708 26.0628 53.9772 26.8202C54.054 26.9024 54.2098 26.962 54.3215 26.9518C55.6392 26.8342 55.759 27.8001 56.005 28.7826Z" fill="#22292F"/>
<path fill-rule="evenodd" clip-rule="evenodd" d="M11.6311 103.862C10.4246 106.831 8.45205 109.103 7.30246 111.792C6.14052 114.509 4.73363 117.129 4.00412 120.03C5.06185 117.705 6.11367 115.376 7.17837 113.053C8.40102 110.388 9.95135 107.912 11.4754 105.413C12.2403 104.159 13.0993 104.223 13.9604 104.914C14.8011 105.588 14.9757 106.724 14.1839 107.516C12.5707 109.129 11.6634 111.191 11.0741 113.215C10.048 116.741 8.24416 120.01 7.70052 123.692C7.57536 124.541 6.96135 125.265 6.83511 126.21C6.69329 127.274 6.63796 128.185 7.16548 129.176C7.47114 129.752 8.22536 130.509 7.55548 131.152C7.00755 131.677 6.20499 132.063 5.29177 131.584C4.94313 131.401 4.43495 131.521 3.99929 131.506C1.45194 131.42 -0.0516557 129.76 0.328137 127.191C0.837392 123.745 2.13148 120.523 3.49809 117.34C5.28854 113.17 7.23532 109.081 9.88527 105.366C10.2763 104.819 10.604 104.213 11.6311 103.862Z" fill="#22292F"/>
<path fill-rule="evenodd" clip-rule="evenodd" d="M81.0862 136.356C77.6364 136.349 76.5969 134.838 77.7642 131.978C78.6769 129.741 80.2294 127.897 81.7282 126.05C85.2269 121.74 88.8685 117.553 92.7454 113.57C93.6935 112.595 94.8447 112.246 96.0265 111.885C96.4391 111.759 97.3587 111.511 97.3238 111.87C97.2508 112.605 97.9883 113.273 97.3243 114.059C94.3591 117.571 91.7129 121.33 88.9711 125.016C87.7624 126.641 86.4248 128.173 85.2607 129.828C84.4737 130.947 83.669 132.157 84.4673 133.665C84.5629 133.844 84.5135 134.317 84.4286 134.345C83.0663 134.799 82.2428 136.25 81.0862 136.356Z" fill="#22292F"/>
<path fill-rule="evenodd" clip-rule="evenodd" d="M116.351 58.2382C118.123 56.248 119.225 53.8274 120.972 51.8495C121.487 51.2672 122.103 50.7617 122.543 50.13C123.269 49.0863 124.017 49.8818 124.497 50.2106C124.963 50.5291 125.182 51.2694 124.682 51.9699C122.639 54.8303 120.997 57.9616 119.617 61.1481C118.634 63.4199 117.002 65.4096 116.662 68.053C116.532 69.0538 115.848 70.2088 115.469 71.3293C114.962 72.8275 113.92 71.5872 113.117 71.5324C112.99 71.5238 112.878 71.151 112.762 71.1531C112.267 71.1601 111.976 72.4198 111.396 71.5458C110.61 70.3597 109.77 69.2408 110.32 67.4874C111.194 64.7043 112.536 62.1935 114.006 59.7294C115.998 56.3887 117.835 52.9303 120.669 50.1735C120.878 49.9705 121.07 49.7475 121.294 49.5617C121.524 49.3699 121.834 49.2061 122.081 49.4419C122.395 49.7422 122.229 50.1053 121.954 50.3309C119.55 52.2991 118.353 55.1381 116.668 57.6242C116.54 57.8133 116.456 58.033 116.351 58.2382Z" fill="#22292F"/>
<path fill-rule="evenodd" clip-rule="evenodd" d="M57.053 107.682C57.7943 106.982 58.6313 106.358 59.2517 105.565C59.9759 104.639 60.7822 104.436 61.8023 104.84C62.4088 105.08 62.2799 105.716 62.2213 106.122C62.0704 107.166 61.4526 107.97 60.4438 108.341C60.2026 108.43 59.8394 108.247 59.84 108.684C59.8453 110.815 57.9765 111.949 57.1734 113.656C56.9268 114.18 56.4675 114.676 56.1441 115.213C55.1997 116.78 54.4272 118.482 52.4257 119.082C51.9594 119.222 51.2202 119.64 51.4722 120.348C52.2409 122.509 50.7271 123.953 49.8681 125.555C48.4564 128.188 46.6654 130.606 45.3563 133.303C45.2085 133.607 45.1172 134.04 44.6928 133.935C44.1626 133.802 44.8653 133.332 44.4973 133.055C43.8366 133.407 43.2564 134.357 42.3351 133.236C42.0064 132.835 41.5234 133.512 41.2871 133.937C41.1071 134.26 40.9094 134.564 40.5038 134.326C40.0134 134.039 40.4361 133.738 40.5656 133.475C42.9249 128.666 45.8392 124.195 48.8636 119.79C51.527 115.91 54.1898 112.03 56.8527 108.152C56.9187 107.996 56.9859 107.839 57.053 107.682Z" fill="#22292F"/>
<path fill-rule="evenodd" clip-rule="evenodd" d="M82.8413 90.6142C84.4744 88.0874 86.1198 85.5637 87.9371 83.155C85.8641 84.7096 83.3651 88.3173 82.8413 90.6142ZM86.0371 94.4501C85.5289 94.5983 86.8246 92.8321 85.4397 93.9167C85.4026 93.9457 85.3296 93.9903 85.3129 93.9774C84.4002 93.2688 83.5966 93.3086 82.7613 94.1745C82.5421 94.4017 80.8414 92.4958 80.8048 91.9328C80.75 91.083 80.9649 90.2783 81.3388 89.5343C83.4489 85.3325 86.4174 81.8414 90.168 79.0163C92.0052 77.632 93.9327 77.783 95.8563 78.8138C96.8894 79.3676 96.8845 80.0332 96.0256 80.8621C95.1215 81.7339 94.2614 82.6584 93.4519 83.6189C92.5177 84.7271 91.7356 85.9438 90.7074 86.9983C89.3569 88.3826 88.8917 90.346 87.9097 91.9898C87.3666 92.8971 86.8885 93.8178 86.0371 94.4501Z" fill="#22292F"/>
<path fill-rule="evenodd" clip-rule="evenodd" d="M128.839 96.9753C128.624 97.7086 128.494 98.1496 128.297 98.8222C128.625 98.5686 128.825 98.4918 128.885 98.3538C129.374 97.2364 130.272 97.5254 130.979 97.887C131.737 98.2737 131.933 99.1472 131.63 99.9003C131.136 101.129 130.565 102.347 129.867 103.471C128.905 105.022 127.817 106.522 127.161 108.216C126.477 109.986 125.478 111.707 125.905 113.788C126.107 114.77 125.287 115.347 124.39 114.945C123.902 114.726 123.464 114.75 122.982 114.775C119.929 114.927 118.352 112.762 119.538 109.846C121.21 105.737 123.909 102.264 126.72 98.8856C127.257 98.2399 127.627 97.3809 128.839 96.9753Z" fill="#22292F"/>
<path fill-rule="evenodd" clip-rule="evenodd" d="M17.5316 161.146C17.5133 162.243 18.4389 162.776 18.5667 163.652C17.2141 163.837 16.3616 163.103 16.0656 161.593C15.7444 159.952 16.2574 158.441 17.0556 157.133C18.7542 154.35 20.1719 151.407 22.5446 149.004C23.4729 148.064 24.1148 146.542 25.0178 145.405C27.5915 142.162 30.278 139.007 32.9317 135.828C33.4646 135.189 34.0969 134.652 34.8264 134.236C35.1997 134.023 35.5677 133.974 35.9153 134.254C36.2886 134.554 36.2473 134.938 36.0388 135.308C35.7289 135.858 35.4506 136.44 35.0633 136.932C31.4775 141.488 27.7946 145.97 24.3098 150.601C22.9524 152.406 21.8925 154.479 21.1619 156.645C20.8246 157.646 21.1861 158.744 21.3005 159.796C21.3311 160.083 21.7313 160.473 21.2242 160.688C20.2503 161.102 19.4343 161.511 20.2911 162.779C20.4861 163.068 20.0429 163.22 19.7346 163.227C19.1834 163.24 18.549 163.232 18.484 162.547C18.4249 161.918 18.0688 161.599 17.5316 161.146Z" fill="#22292F"/>
<path fill-rule="evenodd" clip-rule="evenodd" d="M40.881 86.3278C40.5651 86.1038 40.3879 86.0609 40.2498 86.3966C39.747 87.6198 39.328 88.8945 38.6715 90.0307C38.2746 90.7172 38.36 92.1332 36.8397 91.7201C36.598 91.6546 36.6474 91.9592 36.757 92.1316C37.0132 92.5345 36.8542 92.83 36.5765 93.1689C36.1027 93.7464 35.9722 94.3873 36.0952 95.1791C36.3235 96.6413 35.3061 97.3542 33.9685 96.7541C33.8078 96.6816 33.5226 96.4377 33.5081 96.5387C33.1664 98.9217 31.875 95.762 31.348 96.9164C30.9527 96.5876 30.7668 96.1691 30.7217 95.6524C30.6185 94.4679 31.1031 93.466 31.6526 92.4824C33.7348 88.7559 36.7173 85.7815 39.776 82.8866C40.5125 82.1888 41.6223 82.1512 42.5769 81.8702C43.1372 81.7053 43.4676 82.1695 43.6798 82.6132C43.9704 83.2213 43.6502 83.2847 43.1528 83.1224C43.0867 84.2135 42.3733 84.9688 41.7878 85.7971C41.5299 86.1618 41.3629 86.6029 40.881 86.3278Z" fill="#22292F"/>
<path fill-rule="evenodd" clip-rule="evenodd" d="M84.4244 26.4267C84.3041 26.3375 84.1843 26.2483 84.0645 26.1592C83.3736 27.2534 82.6764 28.3433 82.0022 29.4477C81.9238 29.5766 81.7701 29.8092 82.0033 29.9499C82.1655 30.0477 82.4438 30.0756 82.4991 29.8704C82.8499 28.5624 84.0774 27.7304 84.4244 26.4267ZM79.3334 39.7094C78.9064 40.3266 79.211 41.3816 77.8653 41.4665C76.8924 41.5283 77.0681 41.0583 77.0676 40.5576C76.2312 40.6328 76.5658 41.6266 75.8251 41.8237C75.5199 40.4792 76.0158 39.1921 75.9556 37.9001C75.9647 37.862 75.9706 37.8201 75.9744 37.775C77.0133 36.8832 77.2529 35.5489 77.8288 34.4025C78.0662 33.9287 78.1495 33.3636 78.4412 32.9344C80.7887 29.4808 82.6989 25.7517 85.2275 22.4055C87.2092 19.783 88.9642 16.9907 91.0807 14.4643C91.5674 13.8836 91.9977 13.2471 93.042 12.6384C92.2362 14.0974 91.6227 15.2073 91.0098 16.3171C91.0248 16.273 91.0383 16.2279 91.0501 16.1812C89.4347 17.4602 88.7767 19.4349 87.3934 20.9089C87.8662 21.3091 88.008 20.8918 88.2352 20.8445C88.6241 20.7644 88.8643 21.0083 89.0147 21.343C89.0888 21.5068 89.2365 21.7486 88.9749 21.8157C87.8146 22.1139 88.0928 23.0765 88.059 23.8398C88.0214 24.6838 87.5626 25.1473 86.903 25.5244C85.8866 26.1051 85.2823 26.9287 85.3913 28.1583C85.213 28.422 85.0352 28.6863 84.8568 28.9501C83.7459 29.4948 82.1569 32.148 82.2697 33.2691C81.6358 33.3018 81.3855 34.503 80.5228 33.8444C80.2671 33.1342 80.122 32.7979 79.4581 33.6822C78.619 34.7984 78.7538 36.3187 77.7417 37.3162C77.5913 37.4639 77.6015 37.682 77.8078 37.8083C78.0759 37.9727 78.3246 37.8523 78.3654 37.5891C78.5438 36.4514 79.4522 35.6515 79.7272 34.5691C79.8438 34.1124 79.9668 33.7128 80.5636 33.803C80.9262 35.9115 79.3028 37.3517 78.7463 39.1518C78.6727 39.3903 77.7783 38.7478 78.1027 39.5504C78.2607 39.942 78.8564 40.1364 79.3334 39.7094Z" fill="#22292F"/>
<path fill-rule="evenodd" clip-rule="evenodd" d="M112.56 137.098C112.262 137.917 112.493 138.658 112.755 139.368C112.893 139.742 112.997 140.026 112.549 140.181C112.141 140.323 111.889 140.035 111.744 139.723C111.374 138.928 111.466 138.042 111.686 137.284C112.523 134.391 114.093 131.879 116.03 129.589C116.605 128.91 117.286 128.295 117.736 127.541C118.554 126.172 119.946 125.781 121.274 125.348C121.894 125.146 122.012 125.977 122.14 126.425C122.212 126.681 122.024 127.178 121.795 127.327C119.589 128.77 119.234 131.459 117.737 133.392C117.244 134.029 117.471 135.321 116.833 136.167C116.33 136.835 116.059 137.67 115.123 137.989C114.583 138.172 114.992 138.867 114.748 139.28C114.623 139.492 114.546 139.747 114.28 139.782C114.014 139.816 113.68 139.59 113.727 139.42C114.049 138.279 112.702 137.989 112.56 137.098Z" fill="#22292F"/>
<path fill-rule="evenodd" clip-rule="evenodd" d="M57.0531 107.682C56.9859 107.839 56.9188 107.996 56.8527 108.152C54.9151 109.859 53.3518 111.918 51.8348 113.968C49.7478 116.787 47.8607 119.765 46.0434 122.769C44.5054 125.311 42.5436 127.596 41.4649 130.428C41.0271 131.578 40.3008 132.627 39.0331 133.412C38.7344 131.681 39.8367 130.572 40.4722 129.352C42.1461 126.137 44.2605 123.191 46.3399 120.234C50.0916 114.9 53.6161 109.386 58.2918 104.763C58.5594 104.499 58.7732 104.135 59.4167 104.332C58.9966 105.732 57.6537 106.466 57.0531 107.682Z" fill="#22292F"/>
<path fill-rule="evenodd" clip-rule="evenodd" d="M113.835 87.2594C113.26 87.6811 113.938 88.82 113.057 88.6346C112.306 88.4762 112.577 87.5602 112.766 86.979C113.936 83.3796 116.243 80.7161 119.584 78.9718C120.09 78.7075 120.825 78.3041 121.292 79.0524C121.708 79.7159 121.065 80.1193 120.698 80.5346C119.16 82.2773 117.701 84.0565 117.317 86.4584C117.221 87.0617 116.732 87.2793 116.233 87.4834C116.059 87.5548 115.884 87.6714 115.761 87.8116C114.784 88.9215 114.048 89.0386 113.835 87.2594Z" fill="#22292F"/>
<path fill-rule="evenodd" clip-rule="evenodd" d="M83.7144 22.676C83.5532 24.4686 82.0206 25.4581 81.1875 26.8537C80.5702 27.8873 80.0669 29.06 79.0806 29.8808C78.8351 30.0849 78.7368 30.5351 78.3318 30.3073C78.0095 30.1258 77.9439 29.7583 78.1615 29.4129C79.4717 27.3356 80.7459 25.233 82.3113 23.3309C82.6809 22.8818 83.2637 22.8941 83.7563 22.7115L83.7144 22.676Z" fill="#22292F"/>
<path fill-rule="evenodd" clip-rule="evenodd" d="M83.7561 22.7122C83.573 22.3152 83.3602 21.9461 83.6933 21.4933C85.5804 18.9249 87.4284 16.3264 89.6158 13.9954C89.785 13.8149 89.8785 13.3873 90.261 13.6548C90.5032 13.8246 90.4431 14.0873 90.2771 14.2973C88.1385 17.0011 86.0634 19.7511 84.1209 22.6004C84.0661 22.6805 83.8534 22.6536 83.7142 22.6767L83.7561 22.7122Z" fill="#22292F"/>
<path fill-rule="evenodd" clip-rule="evenodd" d="M75.9743 37.7745C75.9711 37.8196 75.9646 37.8621 75.956 37.9002C75.6976 38.554 75.1336 39.0831 75.1819 39.8642C75.1991 40.1424 75.2362 40.5378 74.8124 40.5013C74.4336 40.4685 74.4847 40.1166 74.518 39.8169C74.815 37.1519 75.7207 34.6599 76.7301 32.2054C76.9036 31.7843 77.4113 31.332 77.8749 31.5479C78.4239 31.8036 78.0092 32.3462 77.8147 32.6642C76.8472 34.2462 76.4255 36.013 75.9743 37.7745Z" fill="#22292F"/>
<path fill-rule="evenodd" clip-rule="evenodd" d="M91.0505 16.1811C91.0387 16.2273 91.0252 16.2724 91.0097 16.3164C91.6274 15.6885 92.7023 15.5026 92.8065 14.3445C92.8237 14.1532 93.3104 13.4538 93.8025 13.8852C94.2704 14.2951 93.7708 14.728 93.5 14.9842C92.2763 16.1429 91.3051 17.452 90.7491 19.2096C90.2791 18.6606 89.577 18.3023 90.5117 17.6357C91.0139 17.2774 90.813 16.6452 91.0505 16.1811Z" fill="#22292F"/>
<path fill-rule="evenodd" clip-rule="evenodd" d="M84.8568 28.9499C85.0351 28.6861 85.2135 28.4218 85.3913 28.1581C85.6056 27.9894 85.82 27.8213 86.0338 27.6526C86.1095 27.7047 86.1842 27.7568 86.2594 27.8089C85.7668 28.6883 85.2736 29.5671 84.781 30.4465C84.6758 30.4121 84.5705 30.3772 84.4652 30.3423C84.5957 29.8787 84.7263 29.414 84.8568 28.9499Z" fill="#22292F"/>
<path fill-rule="evenodd" clip-rule="evenodd" d="M79.904 38.9501C79.6171 37.9408 80.3525 37.271 80.7382 36.4926C81.1164 35.7293 81.5569 34.9966 81.9706 34.25C82.1167 34.6298 82.0823 34.966 81.8706 35.3377C81.1922 36.5291 80.5561 37.7442 79.904 38.9501Z" fill="#22292F"/>
</svg>
