<svg width="12" height="22" viewBox="0 0 12 22" fill="none" xmlns="http://www.w3.org/2000/svg">
<path d="M3.62259 21.7857C3.62259 21.7026 3.61233 21.6162 3.61233 21.5399C3.61233 18.5061 3.61233 15.4718 3.61233 12.4369C3.61233 12.2504 3.56619 12.1996 3.3765 12.2013C2.4332 12.2114 1.49675 12.2013 0.544911 12.2097C0.39624 12.2097 0.350098 12.1826 0.350098 12.0215C0.359212 10.9014 0.359212 9.7807 0.350098 8.65943C0.350098 8.50684 0.387694 8.46615 0.543201 8.46785C1.50017 8.46785 2.45712 8.46785 3.41409 8.46785C3.56618 8.46785 3.61233 8.43394 3.61233 8.27626C3.61233 7.27254 3.58669 6.26713 3.6277 5.26342C3.67726 4.08846 4.031 3.01185 4.87005 2.1353C5.49827 1.49581 6.3108 1.06519 7.19582 0.902693C7.94333 0.775148 8.70392 0.740409 9.46008 0.799272C10.024 0.821313 10.5862 0.875565 11.1484 0.902693C11.3091 0.902693 11.3518 0.963734 11.3501 1.11972C11.3501 2.11156 11.3501 3.10172 11.3501 4.09356C11.3501 4.24107 11.3074 4.26311 11.1672 4.26311C10.417 4.26311 9.66515 4.22919 8.91667 4.29022C8.02976 4.36313 7.5359 4.84126 7.50856 5.71951C7.48122 6.59776 7.50854 7.45566 7.48974 8.32374C7.48974 8.48311 7.57691 8.45768 7.6726 8.45768C8.77995 8.45768 9.89413 8.45768 10.9981 8.45768C11.1689 8.45768 11.2117 8.49498 11.1877 8.66962C11.0374 9.77845 10.8944 10.889 10.7588 12.0012C10.7383 12.1707 10.6734 12.2013 10.5127 12.1996C9.56945 12.1911 8.62445 12.1996 7.68116 12.1996C7.54957 12.1996 7.48974 12.2148 7.48974 12.3691C7.48974 15.4718 7.48974 18.5745 7.48974 21.6772C7.48974 21.7111 7.48975 21.745 7.50001 21.7789L3.62259 21.7857Z" fill="#22292F"/>
</svg>
