<svg width="23" height="38" viewBox="0 0 23 38" fill="none" xmlns="http://www.w3.org/2000/svg">
<g clip-path="url(#clip0_596_2237)">
<path d="M1.13433 37.3494C0.471693 37.0919 0.229803 36.6023 0.255355 35.9077C0.28772 34.981 0.268982 34.0543 0.255355 33.1276C0.255355 32.9108 0.280908 32.8142 0.541535 32.8142C7.67102 32.8221 14.7988 32.8221 21.9249 32.8142C22.1855 32.8142 22.2502 32.8905 22.2468 33.1395C22.2315 34.0425 22.2162 34.9454 22.2468 35.8501C22.2707 36.543 22.0629 37.0648 21.3951 37.3494H1.13433Z" fill="white"/>
<path d="M11.2426 16.9164C9.86452 16.9164 8.48472 16.9164 7.10493 16.9164C6.84601 16.9164 6.7898 16.8469 6.7915 16.5996C6.80172 14.6123 6.7915 12.6268 6.80342 10.6413C6.80342 10.377 6.75062 10.3024 6.47296 10.3024C5.63827 10.3245 4.80188 10.3024 3.96719 10.3126C3.41357 10.3126 2.95875 10.1432 2.7373 9.60277C2.51585 9.06234 2.71515 8.65067 3.08991 8.2644C5.49745 5.79096 7.90044 3.31413 10.2989 0.833912C10.936 0.17828 11.5629 0.176586 12.2033 0.833912C14.5984 3.30736 16.9934 5.78023 19.3885 8.25254C19.6849 8.55749 19.9097 8.89293 19.8416 9.34018C19.7496 9.94837 19.2897 10.3126 18.6032 10.3194C17.7515 10.3194 16.8861 10.3313 16.0259 10.3194C15.7755 10.3194 15.7056 10.3753 15.7056 10.6328C15.7176 12.6065 15.7056 14.5802 15.721 16.5623C15.721 16.8605 15.6494 16.9452 15.3462 16.9418C13.9783 16.9079 12.6105 16.9164 11.2426 16.9164Z" fill="white"/>
<path d="M11.2613 23.7642C7.71646 23.7642 4.17159 23.7642 0.626724 23.7726C0.323511 23.7726 0.250262 23.7032 0.255372 23.4033C0.273542 22.1045 0.273542 20.8056 0.255372 19.5068C0.255372 19.2103 0.345655 19.168 0.618207 19.168C7.70908 19.1747 14.7994 19.1747 21.8891 19.168C22.177 19.168 22.2537 19.2425 22.2503 19.5271C22.2355 20.826 22.2355 22.1248 22.2503 23.4236C22.2503 23.7015 22.1889 23.7828 21.8976 23.7828C18.3528 23.7608 14.8062 23.7642 11.2613 23.7642Z" fill="white"/>
<path d="M11.2494 26.007C14.796 26.007 18.342 26.007 21.8874 26.007C22.1617 26.007 22.2554 26.0612 22.252 26.356C22.2338 27.6571 22.2338 28.9559 22.252 30.2525C22.252 30.5354 22.1617 30.5829 21.9113 30.5829C14.8068 30.5761 7.70285 30.5761 0.599478 30.5829C0.326927 30.5829 0.258789 30.5185 0.258789 30.244C0.273552 28.9316 0.273552 27.6192 0.258789 26.3068C0.258789 26.0493 0.328631 25.9951 0.579038 25.9951C4.13583 26.0087 7.69263 26.0126 11.2494 26.007Z" fill="white"/>
</g>
<defs>
<clipPath id="clip0_596_2237">
<rect width="22" height="37" fill="white" transform="translate(0.253662 0.349365)"/>
</clipPath>
</defs>
</svg>
