<svg width="83" height="90" viewBox="0 0 83 90" fill="none" xmlns="http://www.w3.org/2000/svg">
<g clip-path="url(#clip0_596_1784)">
<path d="M47.7402 25.1194C47.3329 22.0391 47.5669 18.7321 48.8897 15.8754C49.1029 15.4133 49.513 14.401 50.072 14.1982C51.5849 13.6471 51.5547 15.5757 51.615 16.2684C51.7285 17.8186 51.6478 19.3768 51.3746 20.907C51.2542 21.6208 52.1663 22.2791 52.7527 21.7803C53.8771 20.8546 55.0737 20.0202 56.331 19.285C57.0947 18.8442 59.7812 17.0774 60.7683 17.2953C63.0719 17.8405 59.8012 20.1737 59.1871 20.6503C57.8561 21.7124 56.4495 22.6762 54.9785 23.5339C53.4379 24.4332 51.5911 25.1009 51.4913 27.1493C51.3612 29.7062 53.7612 32.2764 54.8129 34.4335C60.2606 45.5814 60.1221 58.4502 57.3546 70.3055C56.7031 73.0968 56.1798 76.5267 54.8437 79.0828C54.2754 80.16 54.1191 80.2208 52.933 80.424C52.0577 80.5711 51.0505 80.3866 50.1282 80.3267C48.3582 80.2446 46.5903 80.1097 44.8246 79.922C38.6167 79.3212 32.5165 77.8962 26.6849 75.6845C20.8281 73.3906 15.1489 70.1149 10.6896 65.6257C8.60793 63.5915 7.39187 60.8322 7.29508 57.9232C7.19666 56.0778 6.99492 54.1372 8.15345 52.563C9.30186 51.122 10.5332 49.749 11.8411 48.4511C16.9257 43.0126 22.4248 37.977 28.2891 33.39C33.2614 29.5099 39.0145 25.6671 45.5994 26.0124C46.7316 26.0599 47.0302 24.3216 45.8953 24.2492C39.8224 23.9264 34.4195 26.6912 29.6137 30.1589C23.5757 34.6064 17.9278 39.5605 12.7314 44.9673C11.4165 46.3143 10.1293 47.6835 8.86988 49.075C7.77335 50.2884 6.39221 51.5319 5.83397 53.1123C4.92767 55.6531 5.39288 59.4108 6.21667 61.9281C7.15616 64.8123 9.41391 66.9701 11.6641 68.887C14.3887 71.1923 17.3617 73.1868 20.528 74.8337C26.8274 78.1344 33.7628 80.1185 40.7875 81.1987C44.3711 81.7348 47.9838 82.0551 51.6058 82.1579C52.7067 82.1909 54.4058 82.5331 55.3907 81.8192C56.4698 81.0347 56.6964 79.154 57.0703 77.9729C61.2858 64.6675 63.0012 49.9663 57.7469 36.6801C57.0801 34.9981 56.3042 33.3614 55.4243 31.7804C54.9866 30.9895 54.4769 30.2414 54.0373 29.4544C53.1679 27.8801 53.1298 26.9127 54.7339 25.7008C57.3803 23.7017 61.146 22.447 62.9252 19.4351C63.8539 17.8546 63.7876 15.3733 61.4141 15.3706C59.8705 15.3708 58.1535 16.3643 56.8087 17.0452C55.0069 17.9559 53.3095 19.0598 51.7465 20.3376L53.1303 21.2088C53.5011 19.0052 54.304 10.2757 49.6868 12.3772C47.8815 13.2018 47.1092 15.3389 46.564 17.0868C45.78 19.7492 45.575 22.5485 45.9629 25.2967C46.1103 26.4286 47.8882 26.2705 47.727 25.1275L47.7402 25.1194Z" fill="#22292F"/>
<path d="M45.5829 23.7632L45.5317 23.6683C45.4818 23.5945 45.4086 23.5397 45.3237 23.5126C45.2388 23.4855 45.1473 23.4878 45.0639 23.519L44.9308 23.5811C44.8351 23.6235 44.7581 23.6994 44.7142 23.7946C44.6703 23.8897 44.6625 23.9975 44.6923 24.0979C45.1494 25.2587 47.7777 25.8825 48.8483 26.3622C51.3628 27.4796 53.9328 28.4564 56.5422 29.3374C56.6371 29.3698 56.7406 29.3659 56.8328 29.3264C56.925 29.2869 56.9993 29.2147 57.0413 29.1236C57.0833 29.0326 57.0901 28.9292 57.0603 28.8334C57.0305 28.7376 56.9663 28.6563 56.88 28.6051C51.9557 25.9579 46.2927 25.1688 41.4153 22.4198L41.0775 23.152C46.1233 24.8662 51.0648 26.8734 55.8768 29.1634L56.2074 28.4468C51.6868 26.9404 47.3826 24.8491 43.4045 22.2261C43.2629 22.4506 43.1196 22.6789 42.9741 22.9015L57.7449 29.4791L58.0828 28.7468C55.6415 27.9766 53.2698 27.0014 50.9927 25.8318C49.9084 25.2792 48.8384 24.6953 47.7778 24.1015C46.6464 23.4655 44.5557 22.7573 44.0932 21.4848L43.6469 22.0198C46.5548 22.6348 49.1766 24.1579 51.8204 25.4585C53.9193 26.4887 58.201 27.7185 59.26 29.9217C59.4829 30.3855 60.2443 30.1146 60.0154 29.6433C58.9055 27.3549 55.7663 26.5002 53.6339 25.4498C50.4473 23.8846 47.2667 21.9564 43.7646 21.2192C43.6952 21.2081 43.6241 21.2152 43.5584 21.2399C43.4926 21.2645 43.4343 21.3059 43.3893 21.3598C43.3443 21.4137 43.3141 21.4784 43.3017 21.5476C43.2892 21.6167 43.2949 21.6879 43.3183 21.7542C44.0233 23.6848 47.1794 24.7088 48.8439 25.6098C51.6712 27.1868 54.6474 28.4804 57.7292 29.4719C58.2085 29.617 58.5563 28.9558 58.0671 28.7396L43.2963 22.162C42.9047 21.9813 42.4777 22.5775 42.8699 22.8391C46.9046 25.5077 51.2709 27.6372 55.8578 29.1736C55.9527 29.206 56.0563 29.2021 56.1485 29.1626C56.2407 29.1231 56.3149 29.0509 56.3569 28.9598C56.399 28.8688 56.4057 28.7654 56.3759 28.6696C56.3462 28.5738 56.2819 28.4925 56.1957 28.4414C51.3837 26.1514 46.4422 24.1442 41.3964 22.43C41.3015 22.3976 41.1979 22.4015 41.1057 22.441C41.0136 22.4805 40.9393 22.5527 40.8973 22.6438C40.8553 22.7348 40.8485 22.8382 40.8783 22.934C40.9081 23.0298 40.9723 23.1111 41.0585 23.1623C45.9449 25.8917 51.6061 26.6847 56.5232 29.3476L56.8611 28.6154C54.905 27.9551 52.9685 27.2421 51.0624 26.4529C50.176 26.0819 49.2931 25.6967 48.4135 25.2972C47.9162 25.0677 47.415 24.8365 46.9137 24.6052C46.6275 24.3967 46.2977 24.2557 45.9492 24.1928C45.6007 24.1298 45.2425 24.1466 44.9014 24.2419C45.1629 24.7045 45.808 24.2327 45.5603 23.7813L45.5829 23.7632Z" fill="#22292F"/>
<path d="M44.3876 47.1679C43.1874 45.3223 41.1592 43.7786 38.8253 44.1741C37.0898 44.4562 35.4849 45.8245 35.1875 47.6013C34.7691 50.0727 37.0039 51.498 37.8683 53.5259C38.0648 53.9613 38.1729 54.4313 38.1866 54.9088C38.2002 55.3863 38.1191 55.8618 37.9478 56.3078C37.4438 57.4003 35.7646 57.5089 34.7335 57.2422C32.6362 56.6924 30.7098 54.64 31.0333 52.405C31.2121 51.2764 29.4624 50.9821 29.27 52.1092C28.8526 54.7947 30.4022 56.9536 32.6882 58.2268C34.6443 59.3193 37.2149 60.3153 38.8411 58.273C40.2301 56.5391 40.181 54.0515 39.1422 52.1854C38.4306 50.9072 36.644 49.4987 36.9077 47.8773C37.131 46.508 38.645 45.7485 39.9083 45.9134C41.2511 46.0912 42.2108 47.0992 42.9043 48.1696C43.5306 49.1283 44.9844 48.1082 44.3602 47.1553L44.3876 47.1679Z" fill="#22292F"/>
<path d="M42.5315 40.959C41.1714 42.3214 40.3039 44.0679 39.2935 45.6915C37.8794 47.9742 36.3773 50.2004 34.7872 52.3703C33.4137 54.2696 31.978 56.1291 30.4798 57.9487C29.6043 59.0124 27.9542 60.1698 28.1288 61.6752L28.5046 60.8607L28.4136 60.9137L29.4919 60.9648L29.3931 60.8907C29.3028 61.3952 29.2183 61.8976 29.128 62.4022L29.1719 62.3892C30.2713 62.0653 29.6479 60.4003 28.5582 60.7239L28.5142 60.7369C28.3695 60.7918 28.2416 60.8834 28.143 61.0027C28.0444 61.1219 27.9785 61.2648 27.9518 61.4172C27.925 61.5696 27.9384 61.7264 27.9905 61.8721C28.0426 62.0178 28.1317 62.1474 28.249 62.2483L28.3478 62.3224C28.5035 62.4407 28.6925 62.5071 28.888 62.512C29.0834 62.517 29.2755 62.4603 29.437 62.35L29.5279 62.297C29.6593 62.2087 29.7638 62.0861 29.83 61.9424C29.8963 61.7988 29.9218 61.6397 29.9037 61.4825C29.8338 60.9753 31.5101 59.4832 31.8537 59.0576C32.5628 58.2069 33.2529 57.3427 33.9239 56.4649C35.1096 54.9381 36.2564 53.379 37.3642 51.7877C38.3662 50.3503 39.3287 48.9025 40.2516 47.4444C41.4026 45.6292 42.3671 43.5903 43.8955 42.0585C44.6999 41.2518 43.3404 40.1116 42.5261 40.909L42.5315 40.959Z" fill="#22292F"/>
</g>
<defs>
<clipPath id="clip0_596_1784">
<rect width="57.3352" height="71.4328" fill="white" transform="translate(30.0223 0.616066) rotate(24.7682)"/>
</clipPath>
</defs>
</svg>
