<svg width="83" height="90" viewBox="0 0 83 90" fill="none" xmlns="http://www.w3.org/2000/svg">
<g clip-path="url(#clip0_596_1790)">
<path d="M48.2263 24.8848C47.8204 21.8148 48.0535 18.519 49.3719 15.6718C49.5844 15.2113 49.9931 14.2023 50.5503 14.0002C52.0581 13.451 52.028 15.3731 52.0881 16.0635C52.2013 17.6085 52.1208 19.1615 51.8485 20.6865C51.7285 21.398 52.6376 22.0541 53.222 21.5569C54.3427 20.6343 55.5352 19.8027 56.7883 19.07C57.5495 18.6307 60.227 16.8698 61.2107 17.087C63.5067 17.6303 60.2469 19.9557 59.6348 20.4307C58.3083 21.4892 56.9064 22.4498 55.4403 23.3046C53.9049 24.2009 52.0643 24.8663 51.9648 26.9079C51.8352 29.4563 54.2271 32.0178 55.2753 34.1676C60.7047 45.2783 60.5667 58.1039 57.8085 69.9195C57.1592 72.7014 56.6376 76.1197 55.306 78.6673C54.7396 79.7409 54.5838 79.8015 53.4017 80.004C52.5294 80.1506 51.5255 79.9667 50.6063 79.9071C48.8422 79.8252 47.0803 79.6908 45.3205 79.5037C39.1334 78.9049 33.0536 77.4847 27.2416 75.2804C21.4044 72.9942 15.7442 69.7294 11.3 65.2553C9.22522 63.2279 8.01324 60.4779 7.91677 57.5787C7.81869 55.7394 7.61762 53.8053 8.77226 52.2364C9.91683 50.8002 11.144 49.4319 12.4476 48.1383C17.5151 42.718 22.9958 37.6993 28.8404 33.1277C33.7961 29.2606 39.5299 25.4307 46.0927 25.7748C47.2211 25.8221 47.5187 24.0897 46.3875 24.0175C40.3351 23.6958 34.9503 26.4513 30.1606 29.9074C24.1428 34.34 18.5139 39.2775 13.3348 44.6662C12.0244 46.0086 10.7415 47.3732 9.48629 48.7601C8.39344 49.9694 7.01693 51.2087 6.46057 52.7839C5.5573 55.3161 6.02095 59.0612 6.84198 61.5701C7.77832 64.4446 10.0285 66.5953 12.2712 68.5057C14.9866 70.8032 17.9496 72.7911 21.1053 74.4325C27.3836 77.7221 34.2957 79.6995 41.2969 80.7761C44.8685 81.3104 48.4691 81.6297 52.079 81.7321C53.1762 81.7649 54.8696 82.1061 55.8511 81.3945C56.9266 80.6127 57.1525 78.7382 57.5251 77.5611C61.7265 64.3003 63.4361 49.6484 58.1995 36.4067C57.5349 34.7304 56.7616 33.0992 55.8847 31.5235C55.4484 30.7352 54.9404 29.9896 54.5023 29.2053C53.6358 27.6363 53.5978 26.6721 55.1965 25.4642C57.8341 23.4718 61.5872 22.2214 63.3604 19.2196C64.286 17.6443 64.2199 15.1714 61.8544 15.1687C60.3159 15.1689 58.6047 16.1591 57.2644 16.8377C55.4686 17.7453 53.777 18.8456 52.2192 20.1191L53.5984 20.9874C53.9679 18.7911 54.7681 10.0909 50.1664 12.1853C48.3672 13.0071 47.5974 15.1371 47.054 16.8792C46.2727 19.5326 46.0684 22.3226 46.4549 25.0615C46.6018 26.1896 48.3739 26.0321 48.2131 24.8929L48.2263 24.8848Z" fill="#22292F"/>
<path d="M46.0762 23.533L46.0251 23.4384C45.9754 23.3649 45.9024 23.3102 45.8178 23.2832C45.7333 23.2562 45.6421 23.2584 45.5589 23.2896L45.4263 23.3514C45.3308 23.3938 45.2541 23.4694 45.2103 23.5642C45.1666 23.659 45.1589 23.7665 45.1886 23.8666C45.6441 25.0235 48.2636 25.6451 49.3306 26.1232C51.8367 27.2369 54.398 28.2104 56.9987 29.0885C57.0933 29.1208 57.1965 29.1169 57.2884 29.0775C57.3802 29.0382 57.4543 28.9662 57.4961 28.8754C57.538 28.7846 57.5447 28.6816 57.5151 28.5862C57.4854 28.4907 57.4214 28.4097 57.3354 28.3587C52.4276 25.7203 46.7836 24.9339 41.9226 22.194L41.5859 22.9238C46.6148 24.6323 51.5397 26.6328 56.3356 28.915L56.6651 28.2008C52.1596 26.6995 47.8698 24.6152 43.905 22.001C43.764 22.2247 43.6211 22.4523 43.4761 22.6741L58.1974 29.2297L58.5341 28.4999C56.1011 27.7322 53.7373 26.7603 51.4679 25.5946C50.3871 25.0439 49.3208 24.462 48.2637 23.8701C47.1361 23.2362 45.0524 22.5305 44.5915 21.2622L44.1466 21.7954C47.0448 22.4083 49.6578 23.9264 52.2927 25.2226C54.3846 26.2493 58.652 27.475 59.7074 29.6708C59.9296 30.1331 60.6884 29.8631 60.4602 29.3933C59.3541 27.1126 56.2254 26.2608 54.1002 25.2139C50.9243 23.6539 47.7543 21.7322 44.2639 20.9975C44.1948 20.9864 44.124 20.9935 44.0584 21.0181C43.9928 21.0427 43.9348 21.0839 43.8899 21.1376C43.8451 21.1914 43.815 21.2559 43.8026 21.3248C43.7901 21.3937 43.7958 21.4646 43.8191 21.5307C44.5218 23.4548 47.6673 24.4754 49.3263 25.3733C52.1441 26.9451 55.1103 28.2344 58.1818 29.2225C58.6594 29.3672 59.006 28.7082 58.5185 28.4927L43.7973 21.9371C43.407 21.757 42.9814 22.3512 43.3723 22.612C47.3935 25.2716 51.7451 27.394 56.3167 28.9252C56.4112 28.9575 56.5144 28.9536 56.6063 28.9143C56.6982 28.8749 56.7722 28.8029 56.8141 28.7122C56.856 28.6214 56.8627 28.5184 56.833 28.4229C56.8033 28.3275 56.7393 28.2464 56.6534 28.1954C51.8575 25.9132 46.9326 23.9127 41.9037 22.2042C41.8091 22.1719 41.7059 22.1758 41.614 22.2152C41.5221 22.2545 41.4481 22.3265 41.4062 22.4173C41.3644 22.5081 41.3576 22.6111 41.3873 22.7065C41.417 22.802 41.481 22.883 41.5669 22.934C46.437 25.6544 52.0792 26.4447 56.9798 29.0987L57.3165 28.3689C55.367 27.7108 53.437 27.0002 51.5373 26.2136C50.6539 25.8439 49.7739 25.4599 48.8973 25.0618C48.4016 24.8331 47.9021 24.6026 47.4025 24.3721C47.1172 24.1643 46.7886 24.0238 46.4412 23.9611C46.0939 23.8984 45.7369 23.9151 45.3969 24.01C45.6575 24.4711 46.3005 24.0009 46.0537 23.551L46.0762 23.533Z" fill="#22292F"/>
<path d="M44.8849 46.8591C43.6887 45.0197 41.6673 43.4812 39.3412 43.8753C37.6115 44.1565 36.012 45.5202 35.7156 47.291C35.2986 49.7541 37.5259 51.1747 38.3874 53.1957C38.5832 53.6297 38.691 54.0982 38.7047 54.5741C38.7183 55.05 38.6374 55.5239 38.4667 55.9683C37.9643 57.0572 36.2908 57.1654 35.2632 56.8996C33.1729 56.3517 31.2529 54.3061 31.5753 52.0787C31.7535 50.9538 30.0097 50.6605 29.818 51.7838C29.402 54.4604 30.9464 56.6119 33.2247 57.8809C35.1743 58.9697 37.7362 59.9624 39.357 57.9269C40.7413 56.1989 40.6923 53.7196 39.6571 51.8597C38.9479 50.5858 37.1672 49.1821 37.43 47.5661C37.6526 46.2014 39.1616 45.4444 40.4206 45.6088C41.7589 45.786 42.7154 46.7907 43.4066 47.8574C44.0308 48.8129 45.4797 47.7963 44.8576 46.8465L44.8849 46.8591Z" fill="#22292F"/>
<path d="M43.0349 40.6709C41.6794 42.0288 40.8148 43.7695 39.8079 45.3876C38.3984 47.6626 36.9014 49.8814 35.3166 52.044C33.9478 53.9369 32.5168 55.7902 31.0237 57.6037C30.1511 58.6638 28.5065 59.8173 28.6805 61.3177L29.0551 60.5059L28.9644 60.5588L30.0391 60.6097L29.9406 60.5358C29.8506 61.0387 29.7663 61.5394 29.6763 62.0422L29.7202 62.0293C30.8158 61.7065 30.1945 60.0471 29.1085 60.3696L29.0647 60.3825C28.9205 60.4373 28.793 60.5286 28.6947 60.6474C28.5964 60.7663 28.5308 60.9087 28.5041 61.0606C28.4775 61.2125 28.4908 61.3687 28.5427 61.5139C28.5946 61.6591 28.6834 61.7884 28.8004 61.8889L28.8988 61.9627C29.054 62.0807 29.2423 62.1468 29.4371 62.1517C29.632 62.1567 29.8234 62.1002 29.9843 61.9902L30.075 61.9374C30.2059 61.8494 30.31 61.7272 30.3761 61.584C30.4421 61.4409 30.4675 61.2823 30.4495 61.1256C30.3798 60.6201 32.0505 59.1331 32.393 58.7089C33.0997 57.861 33.7874 56.9997 34.4562 56.1249C35.6379 54.6032 36.7809 53.0493 37.885 51.4634C38.8836 50.0308 39.8429 48.5878 40.7627 47.1346C41.9098 45.3255 42.8711 43.2934 44.3943 41.7667C45.1961 40.9627 43.8411 39.8264 43.0295 40.6211L43.0349 40.6709Z" fill="#22292F"/>
</g>
<defs>
<clipPath id="clip0_596_1790">
<rect width="57.1429" height="71.1934" fill="white" transform="translate(30.5676 0.463379) rotate(24.7682)"/>
</clipPath>
</defs>
</svg>
