<svg width="19" height="19" viewBox="0 0 19 19" fill="none" xmlns="http://www.w3.org/2000/svg">
<g clip-path="url(#clip0_596_2461)">
<path d="M18.4831 5.60496C18.4688 4.87257 18.3355 4.14738 18.0884 3.45781C17.8129 2.70079 17.3882 2.04514 16.7682 1.52372C15.8165 0.725865 14.6822 0.402505 13.4747 0.331637C12.4244 0.270155 11.3703 0.284705 10.3177 0.284705C8.94312 0.287051 7.56854 0.280011 6.1935 0.302069C5.57871 0.311925 4.96722 0.356042 4.36323 0.4959C3.24676 0.755437 2.31802 1.3144 1.60797 2.22161C0.965496 3.04199 0.690017 3.99987 0.572223 5.01549C0.54031 5.29286 0.560489 5.57399 0.517782 5.85089V5.99169C0.577853 6.01234 0.545002 6.0588 0.546879 6.09588C0.546879 6.11934 0.546879 6.14281 0.546879 6.16627C0.549695 6.20523 0.566591 6.24841 0.516846 6.27234V6.41314C0.54303 6.44198 0.557534 6.47955 0.557534 6.5185C0.557534 6.55746 0.54303 6.59502 0.516846 6.62387V7.6423C0.583956 7.71646 0.538433 7.80657 0.551104 7.88823V8.20455C0.551104 8.30968 0.551104 8.41528 0.551104 8.52088C0.551104 8.66136 0.551104 8.80216 0.551104 8.94327V9.78382V10.1706C0.551104 10.3226 0.551104 10.4747 0.551104 10.6267V11.4358C0.536555 11.5297 0.588649 11.6301 0.517315 11.7174V11.823C0.543699 11.8518 0.558336 11.8894 0.558336 11.9284C0.558336 11.9674 0.543699 12.005 0.517315 12.0338V12.2445C0.557206 12.2558 0.552513 12.2853 0.546412 12.3154V12.3858V12.4557C0.551105 12.4853 0.562838 12.5172 0.517315 12.5251V12.6659C0.550166 12.7072 0.533741 12.7556 0.534679 12.8011C0.539628 13.4324 0.62366 14.0605 0.784814 14.6709C1.03917 15.5903 1.50285 16.3825 2.22416 17.0114C3.09471 17.7703 4.13749 18.1096 5.2671 18.2288C5.53272 18.257 5.80116 18.2382 6.06491 18.2847H6.2409C6.26155 18.2251 6.30754 18.2565 6.34508 18.2556H6.41501C6.44551 18.25 6.47508 18.2448 6.48634 18.2852H6.66186C6.6907 18.259 6.72826 18.2445 6.76722 18.2445C6.80617 18.2445 6.84373 18.259 6.87257 18.2852H7.96135C8.10918 18.2082 8.26687 18.2687 8.41892 18.2509H8.87602L9.33264 18.2533H10.8067H11.5792C11.65 18.2584 11.7275 18.2162 11.789 18.2838H11.9997C12.0353 18.2199 12.0935 18.2565 12.1405 18.2537H12.2456C12.2831 18.2537 12.3296 18.2227 12.3507 18.2833H12.5262C12.6201 18.2453 12.7219 18.2683 12.82 18.2659C13.4343 18.2504 14.0463 18.2218 14.6503 18.0838C15.7682 17.8276 16.7072 17.2799 17.406 16.3633C18.1198 15.4275 18.3972 14.3367 18.4784 13.1831C18.5192 12.6049 18.5061 12.0258 18.5089 11.4466C18.5201 9.50082 18.5347 7.55266 18.4831 5.60496ZM16.848 12.4824C16.8236 13.0376 16.7804 13.591 16.6443 14.1326C16.3252 15.4026 15.518 16.1699 14.2467 16.4553C13.4193 16.643 12.5746 16.6486 11.7331 16.6538C10.0249 16.6651 8.31661 16.6716 6.60836 16.6336C5.92975 16.6181 5.25067 16.5801 4.59037 16.4093C3.28994 16.0723 2.55642 15.1994 2.27625 13.912C2.15976 13.3503 2.10282 12.7778 2.10636 12.2041C2.09979 10.3084 2.1012 8.41262 2.11059 6.51686C2.11481 5.80959 2.17441 5.10466 2.34242 4.41241C2.67093 3.06263 3.54007 2.30749 4.88509 2.05969C5.75376 1.89965 6.63276 1.92546 7.50942 1.91185C8.07258 1.90293 8.63573 1.88369 9.19373 1.90387C10.4449 1.95081 11.697 1.86679 12.9481 1.95456C13.5915 2.00149 14.227 2.08597 14.8342 2.31641C15.8484 2.70172 16.4275 3.45686 16.6734 4.49266C16.8025 5.03661 16.8307 5.59135 16.849 6.14656C16.8813 7.10586 16.886 8.06516 16.8823 9.02493C16.8771 10.1776 16.8982 11.3302 16.848 12.4824Z" fill="#22292F"/>
<path d="M10.7982 18.2661H9.33496C9.33496 18.2722 9.33496 18.2783 9.33496 18.2844H10.81C10.81 18.2783 10.81 18.2722 10.81 18.2661H10.7982Z" fill="#22292F"/>
<path d="M0.540251 9.78112V8.94385H0.521606V9.78863H0.540251V9.78112Z" fill="#22292F"/>
<path d="M0.540251 11.4131V10.6279H0.521606V11.4356H0.540251C0.540251 11.4286 0.540251 11.4206 0.540251 11.4131Z" fill="#22292F"/>
<path d="M9.32238 18.2661H8.87842C8.87842 18.2722 8.87842 18.2783 8.87842 18.2844H9.33457C9.32425 18.2779 9.3205 18.2717 9.32238 18.2661Z" fill="#22292F"/>
<path d="M9.32328 18.2633C9.32307 18.2642 9.32307 18.2652 9.32328 18.2661H9.33653C9.33653 18.2619 9.33653 18.2577 9.33653 18.2539C9.33653 18.2501 9.3277 18.2581 9.32328 18.2633Z" fill="#22292F"/>
<path d="M0.540251 10.6168V10.1714H0.521606V10.628C0.526022 10.6201 0.532401 10.6163 0.540251 10.6168Z" fill="#22292F"/>
<path d="M0.539429 10.628H0.556111C0.554242 10.6252 0.551798 10.6228 0.548931 10.6209C0.546063 10.6191 0.542829 10.6178 0.539429 10.6172V10.628Z" fill="#22292F"/>
<path d="M8.86519 18.2661H8.42358C8.42358 18.2717 8.42358 18.2778 8.42358 18.2839H8.88021C8.86801 18.2778 8.86425 18.2717 8.86519 18.2661Z" fill="#22292F"/>
<path d="M8.86661 18.2619C8.8664 18.2633 8.8664 18.2647 8.86661 18.2661H8.88035C8.88035 18.2614 8.88035 18.2567 8.88035 18.2515C8.88035 18.2464 8.87103 18.2553 8.86661 18.2619Z" fill="#22292F"/>
<path d="M8.40856 18.267C8.26073 18.2726 8.11149 18.2472 7.9646 18.2843H8.42358C8.41231 18.2782 8.40809 18.2726 8.40856 18.267Z" fill="#22292F"/>
<path d="M8.40997 18.2606C8.40957 18.2627 8.40957 18.2647 8.40997 18.2667H8.42419C8.42419 18.2611 8.42419 18.2559 8.42419 18.2503C8.42419 18.2447 8.41438 18.2536 8.40997 18.2606Z" fill="#22292F"/>
<path d="M0.540251 8.93216V8.52197H0.521606V8.94436C0.526513 8.93404 0.532891 8.93075 0.540251 8.93216Z" fill="#22292F"/>
<path d="M0.539429 8.93213V8.94386H0.554147C0.552716 8.94101 0.550662 8.93848 0.548122 8.93646C0.545582 8.93444 0.542618 8.93296 0.539429 8.93213Z" fill="#22292F"/>
<path d="M11.5609 18.2661H11.1963C11.1963 18.2722 11.1963 18.2783 11.1963 18.2844H11.5825C11.5825 18.2788 11.5825 18.2732 11.5825 18.2675L11.5609 18.2661Z" fill="#22292F"/>
<path d="M11.1836 18.2661H10.8213C10.822 18.2673 10.8224 18.2687 10.8224 18.2701C10.8224 18.2715 10.822 18.2729 10.8213 18.2741C10.8176 18.2807 10.8138 18.2844 10.8101 18.2844H11.1963C11.1855 18.2779 11.1817 18.2717 11.1836 18.2661Z" fill="#22292F"/>
<path d="M10.8218 18.2661C10.8198 18.2604 10.8156 18.2557 10.8101 18.2529C10.8103 18.2573 10.8103 18.2617 10.8101 18.2661H10.8218Z" fill="#22292F"/>
<path d="M11.184 18.2633C11.1838 18.2642 11.1838 18.2652 11.184 18.2661H11.1973V18.2534C11.1928 18.2534 11.1884 18.2581 11.184 18.2633Z" fill="#22292F"/>
<path d="M0.540251 10.1606V9.79691C0.534363 9.79691 0.527985 9.79691 0.521606 9.78564V10.1719C0.526022 10.1635 0.532401 10.1597 0.540251 10.1606Z" fill="#22292F"/>
<path d="M0.539429 9.79687C0.54265 9.79596 0.545631 9.7944 0.54817 9.79229C0.550709 9.79019 0.552745 9.78759 0.554147 9.78467H0.539429V9.79687Z" fill="#22292F"/>
<path d="M0.539429 10.1714H0.55562C0.553899 10.1686 0.551558 10.1662 0.548763 10.1643C0.545968 10.1625 0.542783 10.1612 0.539429 10.1606V10.1714Z" fill="#22292F"/>
<path d="M0.540123 7.90608C0.540123 7.90045 0.540123 7.89481 0.540123 7.88965H0.522461V8.20597H0.540123V7.90608Z" fill="#22292F"/>
<path d="M0.540251 8.51016V8.2173C0.533872 8.2173 0.527494 8.21401 0.521606 8.20557V8.52142C0.526513 8.51297 0.532401 8.50922 0.540251 8.51016Z" fill="#22292F"/>
<path d="M0.539429 8.51025V8.52199H0.556111C0.554421 8.51897 0.552044 8.51634 0.549158 8.51431C0.546272 8.51228 0.542947 8.5109 0.539429 8.51025Z" fill="#22292F"/>
<path d="M0.539429 8.21456V8.21878C0.542948 8.21814 0.54629 8.21681 0.549245 8.21487C0.5522 8.21293 0.554703 8.21043 0.5566 8.20752H0.539429V8.21456Z" fill="#22292F"/>
<path d="M0.536566 11.4478C0.533128 11.4472 0.529869 11.4458 0.527028 11.4438C0.524186 11.4417 0.521834 11.4391 0.520142 11.436V11.7176C0.552523 11.6289 0.535158 11.5379 0.536566 11.4478Z" fill="#22292F"/>
<path d="M0.536621 11.4478C0.542509 11.4478 0.548887 11.4445 0.554774 11.4365H0.539565C0.539565 11.4403 0.536621 11.444 0.536621 11.4478Z" fill="#22292F"/>
<path d="M0.536096 7.87773C0.536096 7.79935 0.55487 7.71957 0.520142 7.64307V7.88853C0.521838 7.88566 0.524148 7.8832 0.526907 7.88134C0.529666 7.87947 0.532804 7.87824 0.536096 7.87773Z" fill="#22292F"/>
<path d="M0.536133 7.87793C0.536133 7.88168 0.536133 7.88591 0.536133 7.88966H0.554286C0.55263 7.88634 0.550072 7.88349 0.54688 7.88143C0.543688 7.87937 0.539978 7.87816 0.536133 7.87793Z" fill="#22292F"/>
<path d="M0.520142 11.8228V12.0335C0.534302 12.0002 0.541599 11.9643 0.541599 11.9281C0.541599 11.8919 0.534302 11.8561 0.520142 11.8228Z" fill="#22292F"/>
<path d="M6.66516 18.2843H6.87494C6.84181 18.2701 6.80612 18.2627 6.77005 18.2627C6.73398 18.2627 6.69829 18.2701 6.66516 18.2843Z" fill="#22292F"/>
<path d="M0.520142 6.41455V6.62528C0.534302 6.59195 0.541599 6.55612 0.541599 6.51991C0.541599 6.48371 0.534302 6.44787 0.520142 6.41455Z" fill="#22292F"/>
<path d="M11.5943 18.2677C11.5949 18.2699 11.5949 18.2722 11.5943 18.2743C11.59 18.2809 11.5863 18.2842 11.5825 18.2842H11.7932C11.7285 18.2527 11.6618 18.2677 11.5943 18.2677Z" fill="#22292F"/>
<path d="M11.5948 18.268C11.5939 18.2649 11.5923 18.2621 11.5902 18.2597C11.5881 18.2573 11.5855 18.2553 11.5825 18.2539C11.5828 18.2584 11.5828 18.263 11.5825 18.2675L11.5948 18.268Z" fill="#22292F"/>
<path d="M12.1437 18.266C12.0968 18.273 12.0461 18.2495 12.0029 18.2843H12.1437V18.266Z" fill="#22292F"/>
<path d="M6.34598 18.2657C6.31172 18.2699 6.27371 18.254 6.24414 18.284H6.34926C6.34926 18.2779 6.34926 18.2718 6.34926 18.2657H6.34598Z" fill="#22292F"/>
<path d="M0.540251 6.16797H0.521606V6.2731C0.551535 6.24306 0.534363 6.20364 0.540251 6.16797Z" fill="#22292F"/>
<path d="M0.520142 5.99316V6.09829H0.539382C0.534219 6.06262 0.550177 6.02414 0.520142 5.99316Z" fill="#22292F"/>
<path d="M12.2405 18.2661H12.1556C12.1561 18.2674 12.1564 18.2689 12.1564 18.2703C12.1564 18.2718 12.1561 18.2732 12.1556 18.2746C12.1518 18.2811 12.148 18.2844 12.1443 18.2844H12.2494C12.2494 18.2783 12.2494 18.2727 12.2494 18.2666L12.2405 18.2661Z" fill="#22292F"/>
<path d="M12.1561 18.2656C12.1534 18.2607 12.1493 18.2566 12.1443 18.2539C12.1445 18.2578 12.1445 18.2617 12.1443 18.2656H12.1561Z" fill="#22292F"/>
<path d="M12.2611 18.267C12.2617 18.2682 12.262 18.2695 12.262 18.2708C12.262 18.2721 12.2617 18.2733 12.2611 18.2745C12.2574 18.2811 12.2536 18.2844 12.2499 18.2844H12.3555C12.3264 18.2581 12.2931 18.2661 12.2611 18.267Z" fill="#22292F"/>
<path d="M12.2617 18.2666C12.2591 18.2613 12.2548 18.257 12.2494 18.2544V18.2661L12.2617 18.2666Z" fill="#22292F"/>
<path d="M0.540251 12.4551H0.521606V12.525C0.54025 12.5048 0.540251 12.4795 0.540251 12.4551Z" fill="#22292F"/>
<path d="M0.540251 12.3844V12.3149H0.521606V12.3853H0.540251V12.3844Z" fill="#22292F"/>
<path d="M6.41037 18.2661H6.3611C6.3618 18.2673 6.36217 18.2687 6.36217 18.2701C6.36217 18.2715 6.3618 18.2729 6.3611 18.2741C6.35734 18.2807 6.35312 18.2844 6.34937 18.2844H6.41976C6.41976 18.2783 6.41976 18.2722 6.41976 18.2666L6.41037 18.2661Z" fill="#22292F"/>
<path d="M6.36157 18.2657C6.35844 18.2608 6.35381 18.2571 6.34833 18.2549C6.34808 18.2585 6.34808 18.2621 6.34833 18.2657H6.36157Z" fill="#22292F"/>
<path d="M6.43143 18.266C6.43201 18.2672 6.43232 18.2686 6.43232 18.27C6.43232 18.2713 6.43201 18.2727 6.43143 18.274C6.42767 18.2805 6.42392 18.2843 6.42017 18.2843H6.49009C6.48237 18.2769 6.47307 18.2715 6.46289 18.2683C6.45272 18.2651 6.44196 18.2643 6.43143 18.266Z" fill="#22292F"/>
<path d="M6.43207 18.2657C6.42905 18.2605 6.42418 18.2565 6.41833 18.2544C6.41859 18.2583 6.41859 18.2622 6.41833 18.2661L6.43207 18.2657Z" fill="#22292F"/>
<path d="M0.53944 12.3037C0.541093 12.2931 0.540351 12.2822 0.537266 12.2719C0.534181 12.2616 0.528829 12.2521 0.521606 12.2441V12.3141C0.526299 12.3047 0.531931 12.3019 0.53944 12.3037Z" fill="#22292F"/>
<path d="M0.539429 12.3037V12.315H0.551203C0.548806 12.31 0.544631 12.306 0.539429 12.3037Z" fill="#22292F"/>
<path d="M0.540251 12.4444V12.3946C0.533872 12.3946 0.527494 12.3946 0.521606 12.3843V12.4547C0.526513 12.4444 0.532891 12.4415 0.540251 12.4444Z" fill="#22292F"/>
<path d="M0.539429 12.4443V12.4551H0.551203C0.548649 12.4504 0.544504 12.4466 0.539429 12.4443Z" fill="#22292F"/>
<path d="M0.539429 12.3946C0.544358 12.3929 0.548512 12.3896 0.551203 12.3853H0.539429V12.3946Z" fill="#22292F"/>
<path d="M0.540251 6.15785V6.11092C0.534363 6.11092 0.527985 6.11091 0.521606 6.10059V6.17099C0.526022 6.15925 0.532401 6.15597 0.540251 6.15785Z" fill="#22292F"/>
<path d="M0.539429 6.15771V6.16804H0.552186C0.549266 6.16332 0.544772 6.15969 0.539429 6.15771Z" fill="#22292F"/>
<path d="M0.539429 6.09951V6.10843C0.544631 6.10614 0.548806 6.10214 0.551203 6.09717H0.539429V6.09951Z" fill="#22292F"/>
<path d="M9.5204 4.67876C6.97585 4.66656 4.90295 6.73769 4.90295 9.29175C4.90342 10.2032 5.17403 11.0942 5.6806 11.8519C6.18717 12.6097 6.90696 13.2003 7.74904 13.5491C8.59111 13.8979 9.51767 13.9893 10.4117 13.8117C11.3056 13.6341 12.1269 13.1955 12.7717 12.5513C13.4166 11.9071 13.856 11.0862 14.0345 10.1923C14.213 9.29849 14.1226 8.37179 13.7746 7.52932C13.4267 6.68685 12.8368 5.96642 12.0796 5.45905C11.3224 4.95169 10.4318 4.68016 9.5204 4.67876ZM9.51148 12.2818C8.91961 12.2815 8.34113 12.1056 7.84927 11.7764C7.35741 11.4472 6.97429 10.9794 6.74841 10.4323C6.52254 9.88516 6.46406 9.28333 6.58039 8.70297C6.69671 8.12261 6.98261 7.58982 7.40188 7.17204C7.82115 6.75426 8.35495 6.47027 8.93569 6.35604C9.51644 6.24181 10.118 6.30246 10.6643 6.53033C11.2105 6.75819 11.6769 7.14301 12.0044 7.63608C12.3318 8.12915 12.5056 8.7083 12.5037 9.3002C12.5034 9.69258 12.4256 10.081 12.275 10.4433C12.1244 10.8057 11.9038 11.1347 11.6259 11.4117C11.348 11.6887 11.0182 11.9081 10.6554 12.0575C10.2925 12.2069 9.90384 12.2833 9.51148 12.2823V12.2818Z" fill="#22292F"/>
<path d="M14.3077 3.42091C14.0951 3.42091 13.8873 3.4839 13.7105 3.60194C13.5337 3.71997 13.3958 3.88775 13.3143 4.08409C13.2328 4.28043 13.2113 4.49652 13.2525 4.70508C13.2937 4.91364 13.3957 5.10532 13.5458 5.2559C13.6958 5.40649 13.8871 5.50923 14.0955 5.55116C14.304 5.59309 14.5201 5.57232 14.7167 5.49148C14.9133 5.41064 15.0816 5.27335 15.2002 5.09695C15.3189 4.92055 15.3826 4.71295 15.3833 4.50036C15.3844 4.3586 15.3574 4.21804 15.3038 4.08682C15.2502 3.9556 15.1711 3.83632 15.071 3.73591C14.9709 3.6355 14.8519 3.55595 14.7209 3.50188C14.5899 3.44781 14.4494 3.42028 14.3077 3.42091Z" fill="#22292F"/>
</g>
<defs>
<clipPath id="clip0_596_2461">
<rect width="18" height="18" fill="white" transform="translate(0.520142 0.28418)"/>
</clipPath>
</defs>
</svg>
