<svg width="18" height="19" viewBox="0 0 18 19" fill="none" xmlns="http://www.w3.org/2000/svg">
<g clip-path="url(#clip0_596_2449)">
<path d="M10.1173 8.4025C10.3759 7.91611 10.7378 7.50012 11.1745 7.18743C12.0719 6.54175 13.0742 6.40321 14.1258 6.50829C14.7217 6.56698 15.2971 6.71021 15.8232 7.02425C16.6852 7.53904 17.1447 8.36434 17.3964 9.34403C17.6375 10.2832 17.6791 11.2488 17.6813 12.2156C17.6863 14.3234 17.6813 16.4319 17.6874 18.5398C17.6874 18.7159 17.6375 18.7534 17.4807 18.7523C16.4433 18.7444 15.4063 18.7444 14.3697 18.7523C14.2034 18.7523 14.1518 18.72 14.1529 18.531C14.1607 16.679 14.1579 14.8271 14.1574 12.9751C14.1574 12.404 14.1524 11.834 14.0465 11.2729C13.8098 10.0232 13.0487 9.6293 11.9954 9.7602C11.0037 9.88229 10.4655 10.5033 10.3047 11.6339C10.2484 12.0467 10.2213 12.4635 10.2238 12.8806C10.2238 14.776 10.2238 16.672 10.2276 18.568C10.2276 18.7347 10.1955 18.7875 10.0275 18.7857C8.98371 18.7769 7.93988 18.7787 6.89606 18.7857C6.7547 18.7857 6.69427 18.7705 6.69427 18.5908C6.70056 14.7116 6.70056 10.8322 6.69427 6.95264C6.69427 6.81352 6.72144 6.7648 6.86058 6.76539C7.8765 6.77243 8.89279 6.77243 9.90946 6.76539C10.058 6.76539 10.0758 6.82409 10.0758 6.95733C10.0697 7.36822 10.0719 7.77911 10.0758 8.18707C10.0791 8.25046 10.0508 8.32619 10.1173 8.4025Z" fill="#22292F"/>
<path d="M0.967934 12.7805C0.967934 10.8493 0.967931 8.91814 0.96405 6.98695C0.96405 6.80557 1.00618 6.75861 1.17914 6.75979C2.2152 6.76918 3.25182 6.76742 4.28789 6.75979C4.44089 6.75979 4.49854 6.78561 4.49854 6.96993C4.49225 10.8394 4.49225 14.709 4.49854 18.5788C4.49854 18.7467 4.45474 18.7825 4.30285 18.7813C3.25219 18.7743 2.20208 18.7743 1.15253 18.7813C0.986225 18.7813 0.965161 18.7226 0.965715 18.5712C0.96978 16.6404 0.970521 14.7102 0.967934 12.7805Z" fill="#22292F"/>
<path d="M4.76464 2.93736C4.77462 4.12719 3.85884 5.12037 2.74462 5.128C1.63039 5.13563 0.689117 4.14773 0.6869 2.95086C0.685209 2.37827 0.898396 1.82843 1.27956 1.42228C1.66073 1.01614 2.17865 0.786957 2.7194 0.785167C3.26014 0.783377 3.7794 1.00912 4.16296 1.41273C4.54652 1.81635 4.76295 2.36477 4.76464 2.93736Z" fill="#22292F"/>
</g>
<defs>
<clipPath id="clip0_596_2449">
<rect width="17" height="18" fill="white" transform="translate(0.68689 0.78418)"/>
</clipPath>
</defs>
</svg>
