<svg width="23" height="22" viewBox="0 0 23 22" fill="none" xmlns="http://www.w3.org/2000/svg">
<circle cx="11.534" cy="11.2577" r="10.7245" fill="#009045" fill-opacity="0.22"/>
<path d="M10.6344 12.7888L14.5525 8.12699C14.561 8.11654 14.5701 8.10655 14.5797 8.09707C14.6484 8.02739 14.7302 7.972 14.8203 7.93411C14.9111 7.89597 15.0086 7.87632 15.1071 7.87632C15.2056 7.87632 15.303 7.89597 15.3938 7.93411C15.4845 7.97219 15.5666 8.02794 15.6355 8.09812C15.9208 8.38681 15.926 8.85126 15.6493 9.14641L11.2141 14.3894L11.2096 14.3947L11.2095 14.3947C11.1417 14.4691 11.0595 14.5289 10.9677 14.5705C10.876 14.6121 10.7768 14.6345 10.6761 14.6364C10.5754 14.6383 10.4754 14.6196 10.3822 14.5815C10.2891 14.5435 10.2047 14.4868 10.1342 14.4151C10.1341 14.415 10.134 14.4149 10.1339 14.4149L7.43346 11.6784L7.43303 11.6779L7.43303 11.6779C7.29403 11.5362 7.21616 11.3455 7.21616 11.147C7.21616 10.9485 7.29402 10.7579 7.433 10.6161L10.6344 12.7888ZM10.6344 12.7888L8.49044 10.6161C8.49034 10.616 8.49025 10.6159 8.49016 10.6158C8.42129 10.5456 8.33912 10.4899 8.24846 10.4518L8.17484 10.627L8.24846 10.4518C8.15768 10.4136 8.06019 10.394 7.96172 10.394C7.86325 10.394 7.76576 10.4136 7.67498 10.4518L7.7486 10.627L7.67498 10.4518C7.58421 10.4899 7.50195 10.5458 7.43303 10.6161L10.6344 12.7888Z" fill="#009045" stroke="#009045" stroke-width="0.380172"/>
</svg>
