<svg width="97" height="78" viewBox="0 0 97 78" fill="none" xmlns="http://www.w3.org/2000/svg">
<g opacity="0.1">
<path fill-rule="evenodd" clip-rule="evenodd" d="M13.5659 16.1404C13.5676 15.2329 13.7013 14.5445 12.8522 14.2947C11.9634 14.0334 11.7956 14.7185 11.4999 15.2814C11.3537 15.5593 11.2281 15.9511 10.7949 15.8989C10.3463 15.8455 10.1989 15.5096 10.1347 15.1041C10.0953 14.856 10.1289 14.5263 9.81407 14.4401C9.44833 14.3403 9.30336 14.6667 9.11862 14.897C7.55667 16.8425 6.31945 18.9885 5.31004 21.2591C4.68584 22.6641 4.12916 24.1125 3.96182 25.6612C3.73028 27.8068 5.35561 28.9985 7.33756 28.1477C8.50892 27.6448 9.45081 26.8276 10.1483 25.7843C12.1543 22.7838 13.0933 19.4018 13.5659 16.1404ZM16.9648 15.2379C16.6467 20.8064 15.197 26.0344 12.2177 30.7944C11.4286 32.0548 10.3128 33.0088 9.11282 33.8591C8.37223 34.3843 7.51732 34.1109 6.70466 34.1557C6.45531 34.1693 5.72756 33.4569 5.89158 34.5276C5.90152 34.5943 5.47987 34.5355 5.27939 34.444C3.94981 33.8351 2.85507 32.9922 2.18821 31.6274C0.285368 27.7327 0.489155 23.8504 2.18614 19.9685C3.67478 16.5637 5.57182 13.4502 8.412 10.9612C9.84803 9.7029 11.6432 9.44029 13.353 9.07041C14.7981 8.75769 16.2541 10.1241 16.6293 11.7511C16.8928 12.8931 16.9358 14.0599 16.9648 15.2379Z" fill="#FF9F43"/>
<path fill-rule="evenodd" clip-rule="evenodd" d="M86.0337 10.149C85.1871 12.9196 85.2782 15.438 86.5701 17.8374C87.5265 19.6139 88.8068 19.6959 90.1103 18.1282C91.0629 16.9825 91.625 15.6281 92.0682 14.2206C92.7338 12.1074 91.9767 10.6514 89.9106 9.89263C89.0797 9.58737 88.5997 9.78411 88.4406 10.6216C88.3031 11.3465 88.0318 12.0204 87.2345 11.9864C86.3431 11.9479 86.4106 11.0648 86.2383 10.4369C86.2292 10.4033 86.1965 10.3756 86.0337 10.149ZM82.607 15.8849C82.5428 11.4347 83.7328 7.85642 86.0536 4.64305C86.5622 3.93766 87.1338 3.28032 87.8873 2.82553C88.9451 2.18642 90.1119 2.53352 90.4354 3.69163C90.6168 4.34275 90.9349 4.48068 91.5045 4.57843C94.0684 5.01831 96.0114 6.88512 96.0918 9.43867C96.2587 14.7301 94.6126 19.51 90.9992 23.3898C88.3744 26.2076 85.4965 25.537 83.8459 22.0155C82.8667 19.9258 82.6091 17.6908 82.607 15.8849Z" fill="#FF9F43"/>
<path fill-rule="evenodd" clip-rule="evenodd" d="M57.1108 24.9428C57.1634 25.8433 57.3684 26.8821 58.324 27.3389C59.2013 27.7585 59.8938 26.9898 60.453 26.4115C62.7547 24.0328 64.1858 21.164 64.9856 17.9738C65.1935 17.1459 64.6778 16.7399 63.953 16.496C63.2671 16.2649 62.8176 16.3887 62.5381 17.1264C62.3591 17.5982 62.1056 18.1694 61.4437 18.0757C60.8672 17.9941 60.9844 17.3886 60.8191 17.0054C60.735 16.8112 60.803 16.5154 60.5184 16.4686C60.2662 16.4272 60.0881 16.643 59.9924 16.8282C58.6806 19.3656 57.3912 21.9133 57.1108 24.9428ZM68.7051 16.3175C68.515 20.3799 66.9779 24.0481 65.3099 27.674C64.3208 29.8233 63.0678 31.7282 60.8813 32.9021C58.9573 33.9351 57.1704 33.5867 56.1043 31.6342C54.4272 28.5617 53.7694 25.304 54.8058 21.8545C55.71 18.8441 57.0913 16.0863 59.1805 13.7047C59.5003 13.3406 59.9071 12.9674 60.3059 13.078C61.1733 13.3182 61.5042 12.7023 61.8091 12.2206C62.6346 10.9138 63.8345 10.6011 65.2138 10.8376C66.7376 11.0989 67.96 11.8366 68.4802 13.4168C68.7921 14.3637 68.8451 15.3304 68.7051 16.3175Z" fill="#FF9F43"/>
<path fill-rule="evenodd" clip-rule="evenodd" d="M83.743 37.6262C83.4075 37.9597 83.3918 38.308 83.3276 38.6361C83.2547 39.0076 82.988 39.2176 82.6856 39.0387C81.9404 38.5967 81.5805 39.1298 81.1704 39.549C80.0637 40.6793 79.0659 41.9256 78.3249 43.3016C77.5213 44.7927 76.6706 46.3327 76.888 48.1626C77.023 49.3004 77.1283 50.55 78.3895 50.9265C79.6818 51.3122 80.6585 50.4668 81.5055 49.5638C81.5565 49.5096 81.5896 49.4392 81.6377 49.3816C83.4846 47.1511 84.3093 44.4468 84.9707 41.7239C85.3274 40.2547 84.9331 38.774 83.743 37.6262ZM88.6281 38.8013C88.5486 42.3071 87.3859 45.5135 86.0767 48.7177C85.1733 50.9291 83.9638 52.8846 82.4197 54.6715C81.0677 56.2351 78.2984 56.8597 76.3972 55.743C75.6852 55.3247 75.5588 54.3993 74.7814 54.0845C75.6852 53.1025 74.3208 52.6924 74.2396 51.9452C73.9087 48.9136 74.0031 45.9993 75.4259 43.1538C76.8184 40.3674 78.6405 38.0214 81.1199 36.1699C81.3958 35.9636 81.4678 35.7358 81.4985 35.4152C81.5412 34.972 81.5996 34.509 81.7681 34.1031C82.737 31.7674 84.3577 31.3867 86.2485 33.0638C87.9609 34.5827 88.6903 36.5357 88.6281 38.8013Z" fill="#FF9F43"/>
<path fill-rule="evenodd" clip-rule="evenodd" d="M23.872 40.9593C23.9175 41.5351 23.8252 42.1957 24.4121 42.4836C24.9588 42.7516 25.3966 42.2657 25.8046 41.953C26.3758 41.5148 26.8447 40.9664 27.2253 40.3591C28.7388 37.9439 29.7362 35.3332 30.1736 32.5084C30.2842 31.7918 30.2987 30.9037 29.5938 30.7687C28.849 30.6262 27.78 30.4523 27.3243 31.5673C27.1976 31.878 27.039 32.1874 26.8372 32.4541C24.9348 34.9774 24.4978 37.9994 23.872 40.9593ZM33.0946 31.9886C32.8473 35.8842 31.6991 39.8038 29.5917 43.4401C29.3282 43.8936 29.0089 44.3145 28.7446 44.7676C27.6756 46.5996 25.9881 47.3241 23.9685 47.3738C23.271 47.3907 22.882 46.8382 22.5672 46.2567C21.4282 44.1521 21.1378 41.9054 21.603 39.5967C22.525 35.0222 24.2402 30.7584 26.8269 26.8566C27.2891 26.1587 27.8831 25.5862 28.4916 25.0382C29.1791 24.4194 29.7644 24.6535 29.9972 25.563C30.0767 25.8749 30.0539 26.237 30.4888 26.3562C32.2235 26.8326 32.4551 28.4032 32.8854 29.7825C33.0706 30.3773 33.0146 31.0471 33.0946 31.9886Z" fill="#FF9F43"/>
<path fill-rule="evenodd" clip-rule="evenodd" d="M40.3947 59.11C41.3184 58.2891 41.634 57.2962 42.1277 56.3875C43.0348 54.7157 43.4453 52.9405 43.6951 51.0981C43.7365 50.7916 43.7195 50.4636 43.3562 50.3554C43.0013 50.2498 42.8165 50.5451 42.6583 50.7812C42.515 50.9958 42.5042 51.3868 42.3249 51.4738C41.7189 51.7687 42.1298 53.2573 40.8338 52.7259C40.6681 52.6584 40.514 52.9575 40.7112 53.1037C41.5719 53.7403 41.023 54.4378 40.7882 55.0811C40.328 56.3431 39.9975 57.6015 40.3947 59.11ZM39.4992 64.1666C40.7352 63.5888 40.2282 62.9894 39.5125 62.7169C37.8768 62.0931 37.7745 60.5875 37.4746 59.2815C37.2828 58.4465 37.4444 57.4693 37.6635 56.6111C38.6546 52.7267 40.4399 49.1866 42.5875 45.8266C42.9408 45.2732 43.5629 44.9124 43.9171 44.3201C44.0703 44.0646 44.3669 43.8993 44.6999 44.012C45.0288 44.1234 45.1249 44.3557 45.0884 44.7169C45.0209 45.3904 45.3142 45.8986 45.8096 46.3862C47.1739 47.7273 47.0464 49.5295 46.9022 51.1747C46.5348 55.376 45.1183 59.2699 42.8248 62.8092C42.1265 63.8874 41.1523 64.715 39.4992 64.1666Z" fill="#FF9F43"/>
<path fill-rule="evenodd" clip-rule="evenodd" d="M36.9411 8.9099C36.8529 8.60339 36.7647 8.29647 36.6363 7.84913C35.6538 9.09298 34.9923 10.3824 34.5914 11.7861C34.3259 12.716 35.0507 13.5204 36.0224 13.469C37.0016 13.4177 37.726 12.8742 38.2508 12.1022C39.6351 10.0651 40.2518 7.717 40.6072 5.34363C40.7128 4.63617 40.6283 3.67896 40.1885 2.89819C39.8082 2.22428 40.5774 0.525642 41.3714 0.27008C42.3655 -0.050098 42.8373 0.668541 43.1757 1.39339C43.843 2.82114 43.6098 4.37067 43.4731 5.84026C43.1633 9.16339 42.1634 12.3047 40.4482 15.1908C39.6848 16.4757 38.8088 17.6566 37.1826 17.8902C34.412 18.2874 33.2759 17.9962 32.556 15.2128C31.607 11.545 33.6188 6.45659 36.746 4.25677C37.0923 4.0128 37.4423 3.80694 37.8925 3.98132C38.4062 4.17972 38.3316 4.6515 38.349 5.03754C38.4136 6.47481 37.7699 7.70002 37.2253 8.95091C37.1304 8.93724 37.036 8.92357 36.9411 8.9099Z" fill="#FF9F43"/>
<path fill-rule="evenodd" clip-rule="evenodd" d="M56.1073 77.1274C55.2205 77.2041 54.5718 76.8561 54.5325 76.0095C54.4637 74.5138 54.1307 73.1196 54.5664 71.4823C55.2996 68.7274 56.4258 66.2488 57.9745 63.9446C58.6583 62.9278 58.3796 61.7974 58.8112 60.781C59.1707 59.9343 59.594 59.1619 60.2596 58.529C60.6908 58.1189 61.1498 57.8116 61.7644 58.1649C62.3414 58.4962 62.5825 58.8607 62.6185 59.6589C62.8438 64.6525 60.9534 69.1043 59.2697 73.6191C58.8969 74.6174 58.3021 75.4768 57.6821 76.3317C57.2658 76.905 56.7625 77.1966 56.1073 77.1274Z" fill="#FF9F43"/>
</g>
</svg>
