<svg width="154" height="100" viewBox="0 0 154 167" fill="none" xmlns="http://www.w3.org/2000/svg">
<path d="M11.5789 153.46V155.329H0.858154V153.46H11.5789ZM7.21753 148.895V160.281H5.23022V148.895H7.21753Z" fill="#E5E5E5"/>
<path d="M46.5789 118.46V120.329H35.8582V118.46H46.5789ZM42.2175 113.895V125.281H40.2302V113.895H42.2175Z" fill="#E5E5E5"/>
<path d="M81.5789 13.46V15.3291H70.8582V13.46H81.5789ZM77.2175 8.89453V20.2812H75.2302V8.89453H77.2175Z" fill="#E5E5E5"/>
<path d="M81.5789 48.46V50.3291H70.8582V48.46H81.5789ZM77.2175 43.8945V55.2812H75.2302V43.8945H77.2175Z" fill="#E5E5E5"/>
<path d="M81.5789 83.46V85.3291H70.8582V83.46H81.5789ZM77.2175 78.8945V90.2812H75.2302V78.8945H77.2175Z" fill="#6246E5"/>
<path d="M81.5789 118.46V120.329H70.8582V118.46H81.5789ZM77.2175 113.895V125.281H75.2302V113.895H77.2175Z" fill="#E5E5E5"/>
<path d="M81.5789 153.46V155.329H70.8582V153.46H81.5789ZM77.2175 148.895V160.281H75.2302V148.895H77.2175Z" fill="#E5E5E5"/>
<path d="M116.579 13.46V15.3291H105.858V13.46H116.579ZM112.218 8.89453V20.2812H110.23V8.89453H112.218Z" fill="#E5E5E5"/>
<path d="M116.579 48.46V50.3291H105.858V48.46H116.579ZM112.218 43.8945V55.2812H110.23V43.8945H112.218Z" fill="#E5E5E5"/>
<path d="M116.579 83.46V85.3291H105.858V83.46H116.579ZM112.218 78.8945V90.2812H110.23V78.8945H112.218Z" fill="#E5E5E5"/>
<path d="M116.579 118.46V120.329H105.858V118.46H116.579ZM112.218 113.895V125.281H110.23V113.895H112.218Z" fill="#E5E5E5"/>
<path d="M116.579 153.46V155.329H105.858V153.46H116.579ZM112.218 148.895V160.281H110.23V148.895H112.218Z" fill="#E5E5E5"/>
<path d="M151.579 13.46V15.3291H140.858V13.46H151.579ZM147.218 8.89453V20.2812H145.23V8.89453H147.218Z" fill="#FF7152"/>
<path d="M151.579 48.46V50.3291H140.858V48.46H151.579ZM147.218 43.8945V55.2812H145.23V43.8945H147.218Z" fill="#E5E5E5"/>
<path d="M151.579 83.46V85.3291H140.858V83.46H151.579ZM147.218 78.8945V90.2812H145.23V78.8945H147.218Z" fill="#E5E5E5"/>
<path d="M151.579 118.46V120.329H140.858V118.46H151.579ZM147.218 113.895V125.281H145.23V113.895H147.218Z" fill="#E5E5E5"/>
<path d="M151.579 153.46V155.329H140.858V153.46H151.579ZM147.218 148.895V160.281H145.23V148.895H147.218Z" fill="#E5E5E5"/>
</svg>
