<svg width="72" height="53" viewBox="0 0 72 53" fill="none" xmlns="http://www.w3.org/2000/svg">
<g clip-path="url(#clip0_596_1796)">
<path d="M41.1815 23.1607C40.9704 22.5443 40.6272 21.9815 40.176 21.5115C39.7248 21.0415 39.1764 20.6756 38.5692 20.4395C38.3054 20.3407 38.0317 20.2707 37.7529 20.2309L37.6667 18.317C37.6714 18.2885 37.6714 18.2593 37.6667 18.2308C38.347 17.546 39.0772 16.8702 39.3402 15.9314C39.3646 15.824 39.3491 15.7114 39.2965 15.6145C39.2439 15.5177 39.1579 15.4434 39.0545 15.4053C38.5617 15.2323 38.0502 15.1181 37.5306 15.0652C37.5306 14.3531 37.5306 13.6411 37.4989 12.9291C37.4989 12.3758 37.3719 11.7363 36.8004 11.4868C36.694 11.4304 36.5775 11.3957 36.4576 11.3848C36.3376 11.3739 36.2167 11.3869 36.1019 11.4232C35.987 11.4595 35.8806 11.5184 35.7887 11.5962C35.6969 11.6741 35.6214 11.7695 35.5668 11.8769C35.5359 11.934 35.5197 11.9979 35.5197 12.0628C35.5197 12.1278 35.5359 12.1917 35.5668 12.2488H35.5441L35.4897 11.7726C35.4398 11.2964 34.6507 11.3871 34.6552 11.8587C34.6552 13.1468 34.6991 14.4333 34.7868 15.7183L34.746 15.7455C34.2725 16.1014 33.9119 16.5865 33.7075 17.1424C33.5032 17.6984 33.4638 18.3015 33.594 18.8794C33.7072 19.271 33.9161 19.6282 34.2019 19.9188C34.4878 20.2094 34.8415 20.4242 35.2312 20.5438C35.2251 20.641 35.2505 20.7377 35.3036 20.8193C35.3567 20.901 35.4347 20.9634 35.526 20.9973C35.7392 21.0654 35.9796 21.1425 36.2109 21.2286C36.0967 22.5076 36.0845 23.7937 36.1745 25.0746C36.0157 24.7957 35.9168 24.4868 35.8843 24.1675C35.721 23.2605 35.5714 21.4055 34.2561 21.4463C32.9409 21.4872 33.1677 23.6414 33.3491 24.485C33.5985 25.6097 34.2562 27.442 35.585 27.6597C35.7954 27.6915 36.0095 27.6915 36.2199 27.6597C36.2193 28.2036 36.2632 28.7466 36.3514 29.2833C36.3597 29.4 36.3931 29.5136 36.4493 29.6162C36.5055 29.7188 36.5831 29.808 36.677 29.8778C36.7709 29.9476 36.8788 29.9962 36.9932 30.0204C37.1077 30.0446 37.226 30.0438 37.3401 30.018C37.9524 29.8956 38.1474 29.3196 38.1746 28.7618C38.1934 28.2264 38.1828 27.6905 38.1429 27.1563C38.7424 26.9553 39.3175 26.6875 39.8572 26.3581C41.0046 25.6687 41.6351 24.5394 41.1815 23.1607ZM38.8776 24.7707C38.6218 25.0245 38.3116 25.2168 37.9706 25.3331L37.8617 22.9657C37.8617 22.8251 37.8617 22.6845 37.8617 22.5393C38.0839 22.5756 38.3152 22.5938 38.5012 22.6391C38.7774 22.9114 38.962 23.2629 39.0295 23.6448C39.0969 24.0268 39.0439 24.4203 38.8776 24.7707ZM36.3787 18.4213C36.3197 18.4893 36.2607 18.5574 36.2063 18.6299C36.1111 17.7637 36.0158 16.8929 35.9251 16.0267H36.0022C36.0929 16.8294 36.2154 17.6367 36.3787 18.4394V18.4213ZM36.9547 22.1357L36.9955 22.1674C36.9955 22.1947 36.9955 22.2219 36.9955 22.2491V22.6301C37.0055 23.0004 36.9812 23.3708 36.9229 23.7367C36.932 23.2332 36.9274 22.6845 36.9547 22.1538V22.1357ZM35.644 26.671C35.7766 26.7273 35.913 26.7743 36.0521 26.8116C35.8146 26.8198 35.5803 26.7549 35.3809 26.6256C35.4666 26.6577 35.5545 26.6835 35.644 26.7027V26.671ZM38.3651 16.0357C38.136 16.4947 37.8292 16.9106 37.4581 17.2648C37.4581 16.8113 37.4581 16.3305 37.4581 15.8634C37.7675 15.9033 38.0727 15.9717 38.3697 16.0675L38.3651 16.0357ZM35.8299 12.9744C35.8299 13.6955 35.8616 14.4121 35.9161 15.1287L35.8254 15.1559L35.6349 13.3962C35.6349 13.2737 35.6349 13.1513 35.6349 13.0243C35.7017 13.0222 35.7683 13.0162 35.8344 13.0062L35.8299 12.9744ZM34.3378 18.385C34.3076 18.0989 34.3345 17.8096 34.4171 17.534C34.4996 17.2584 34.636 17.002 34.8185 16.7795C34.879 17.6866 34.9546 18.5936 35.0453 19.5007C34.8535 19.3853 34.6905 19.2277 34.5687 19.0399C34.4469 18.852 34.3695 18.639 34.3423 18.4168L34.3378 18.385ZM34.755 22.9521C35.0407 23.7729 34.9682 24.8206 35.4444 25.5462C35.289 25.4123 35.1505 25.26 35.0317 25.0927C34.9654 24.8677 34.9124 24.6391 34.8729 24.4079C34.7923 23.8144 34.5256 23.2618 34.111 22.8296C34.0776 22.8027 34.041 22.7799 34.0022 22.7616C34.0107 22.7015 34.0291 22.6433 34.0566 22.5892C34.3514 22.0631 34.6507 22.6663 34.7595 22.9838L34.755 22.9521ZM37.1587 29.1291L37.1315 28.476C37.1315 28.154 37.1043 27.832 37.0952 27.51L37.2993 27.4511C37.3311 27.8192 37.3311 28.1895 37.2993 28.5577C37.3171 28.6575 37.3138 28.7599 37.2895 28.8583C37.2653 28.9567 37.2208 29.049 37.1587 29.1291ZM39.2857 25.773C39.3939 25.6192 39.4895 25.4569 39.5715 25.2877C39.6252 25.2289 39.6752 25.1668 39.7212 25.1018C40.4559 24.1086 40.2836 22.4804 39.1044 21.8953L38.9955 21.85C38.8042 21.6524 38.5946 21.4732 38.3697 21.3148C38.824 21.4799 39.2363 21.743 39.5773 22.0856C39.9183 22.4282 40.1796 22.8417 40.3425 23.2967C40.7416 24.4124 40.1656 25.2152 39.2767 25.7775L39.2857 25.773Z" fill="#22292F"/>
<path d="M15.8156 18.3623L14.1285 18.6117C13.5888 18.6888 13.7975 19.5188 14.3326 19.4326L16.0197 19.1832C16.5594 19.1061 16.3553 18.2807 15.8156 18.3623Z" fill="#22292F"/>
<path d="M25.0403 17.2464C24.4615 17.5397 23.8348 17.7271 23.1899 17.7997C22.6457 17.8632 22.8543 18.7068 23.3895 18.6252C24.1111 18.5379 24.8113 18.3229 25.4576 17.9902C25.9428 17.7408 25.5302 17.0015 25.0403 17.2464Z" fill="#22292F"/>
<path d="M21.1128 22.8701L19.6297 23.2329C19.5208 23.26 19.4272 23.3292 19.3694 23.4253C19.3116 23.5214 19.2943 23.6366 19.3213 23.7454C19.3484 23.8543 19.4176 23.9479 19.5137 24.0058C19.6098 24.0636 19.725 24.0809 19.8338 24.0538L21.3168 23.691C21.4257 23.6639 21.5194 23.5947 21.5772 23.4986C21.635 23.4025 21.6523 23.2874 21.6252 23.1785C21.5982 23.0696 21.529 22.976 21.4329 22.9182C21.3367 22.8603 21.2216 22.843 21.1128 22.8701Z" fill="#22292F"/>
<path d="M18.3327 28.6165L16.3553 29.1018C16.2531 29.1353 16.1673 29.2063 16.1151 29.3004C16.063 29.3945 16.0484 29.5048 16.0742 29.6093C16.1001 29.7137 16.1644 29.8045 16.2544 29.8635C16.3444 29.9225 16.4533 29.9452 16.5594 29.9272L18.5368 29.442C18.639 29.4085 18.7248 29.3375 18.7769 29.2434C18.829 29.1493 18.8437 29.039 18.8178 28.9345C18.792 28.8301 18.7277 28.7393 18.6377 28.6803C18.5477 28.6213 18.4388 28.5985 18.3327 28.6165Z" fill="#22292F"/>
<path d="M27.8341 28.9022L25.6934 29.4283C25.5912 29.4618 25.5055 29.5327 25.4533 29.6268C25.4012 29.7209 25.3865 29.8313 25.4124 29.9357C25.4382 30.0402 25.5025 30.131 25.5925 30.19C25.6825 30.2489 25.7915 30.2717 25.8976 30.2537L28.0382 29.7276C28.1404 29.6941 28.2262 29.6232 28.2784 29.5291C28.3305 29.435 28.3451 29.3246 28.3193 29.2202C28.2934 29.1157 28.2291 29.0249 28.1391 28.9659C28.0491 28.907 27.9401 28.8842 27.8341 28.9022Z" fill="#22292F"/>
<path d="M47.9254 12.0853C47.3083 12.0479 46.6902 12.1406 46.1113 12.3574C45.6078 12.5479 45.8029 13.3778 46.3108 13.1828C46.812 12.9898 47.3483 12.9048 47.8846 12.9334C48.4515 12.9651 48.4696 12.117 47.9254 12.0853Z" fill="#22292F"/>
<path d="M54.7782 16.5435C54.2355 16.5675 53.7086 16.7333 53.2498 17.0242C52.7963 17.319 53.2045 18.0628 53.6671 17.768C53.9897 17.5473 54.3656 17.4173 54.7556 17.3916C55.2998 17.3598 55.3225 16.5117 54.7782 16.5435Z" fill="#22292F"/>
<path d="M48.837 24.0902L47.1862 24.4938C47.0839 24.5273 46.9981 24.5983 46.946 24.6924C46.8939 24.7865 46.8793 24.8968 46.9051 25.0013C46.9309 25.1057 46.9953 25.1965 47.0853 25.2555C47.1752 25.3145 47.2842 25.3373 47.3903 25.3193L49.0366 24.9156C49.1374 24.8814 49.2218 24.8108 49.2731 24.7175C49.3245 24.6243 49.3391 24.5152 49.314 24.4117C49.289 24.3082 49.2262 24.2179 49.1379 24.1584C49.0497 24.0989 48.9423 24.0746 48.837 24.0902Z" fill="#22292F"/>
<path d="M59.3453 9.27776L57.6945 9.68593C57.5856 9.713 57.4919 9.78219 57.4341 9.8783C57.3763 9.97441 57.359 10.0896 57.386 10.1984C57.4131 10.3073 57.4823 10.4009 57.5784 10.4588C57.6745 10.5166 57.7897 10.5339 57.8985 10.5068L59.5448 10.1032C59.6456 10.069 59.73 9.99832 59.7813 9.90507C59.8327 9.81182 59.8473 9.70273 59.8223 9.59926C59.7973 9.49579 59.7345 9.40543 59.6462 9.34594C59.5579 9.28644 59.4506 9.26212 59.3453 9.27776Z" fill="#22292F"/>
<path d="M59.6401 20.8702C59.5803 20.7776 59.4888 20.71 59.3829 20.68C59.2769 20.6499 59.1636 20.6595 59.0641 20.7069C58.5992 20.8927 58.0992 20.9748 57.5992 20.9472C57.4943 20.9581 57.3972 21.0075 57.3265 21.0858C57.2559 21.1641 57.2168 21.2658 57.2168 21.3713C57.2168 21.4768 57.2559 21.5785 57.3265 21.6568C57.3972 21.7351 57.4943 21.7845 57.5992 21.7953C58.2505 21.8185 58.899 21.6993 59.4995 21.4461C59.5931 21.3871 59.6601 21.2941 59.6863 21.1866C59.7125 21.0791 59.6959 20.9656 59.6401 20.8702Z" fill="#22292F"/>
<path d="M7.35267 29.9138L5.95122 30.6031C5.46141 30.848 5.87414 31.5873 6.36395 31.3469L7.76534 30.653C8.25515 30.4126 7.84248 29.6689 7.35267 29.9138Z" fill="#22292F"/>
<path d="M10.4005 39.5104L8.58635 40.5172C8.48831 40.5719 8.41605 40.6634 8.38543 40.7714C8.35482 40.8794 8.36835 40.9952 8.42308 41.0932C8.47781 41.1912 8.56923 41.2635 8.67725 41.2941C8.78527 41.3248 8.90104 41.3112 8.99907 41.2565L10.8404 40.2496C10.9384 40.1913 11.0093 40.0964 11.0374 39.9858C11.0654 39.8753 11.0484 39.7581 10.9901 39.6601C10.9317 39.562 10.8368 39.4912 10.7263 39.4631C10.6157 39.435 10.4985 39.4521 10.4005 39.5104Z" fill="#22292F"/>
<path d="M8.03301 17.6864L9.17137 18.8202C9.65664 19.3055 10.3551 18.6932 10.0784 18.1173L9.17137 16.2034L8.26431 16.9063C8.82564 17.5684 9.46005 18.1648 10.1555 18.6842C10.6498 19.0561 11.2031 18.3531 10.9492 17.8905C10.3233 16.7295 9.64907 15.5956 8.92644 14.489L8.01939 15.192C8.85572 16.243 9.81499 17.1901 10.8766 18.0129C11.3302 18.344 12.015 17.6773 11.6703 17.2193C11.0147 16.3353 10.4221 15.4063 9.897 14.4391L8.98995 15.1421L11.2122 17.2646C11.3041 17.352 11.4219 17.4072 11.5478 17.4219C11.6738 17.4365 11.8011 17.4099 11.9106 17.3459C12.0201 17.282 12.1058 17.1842 12.1549 17.0673C12.204 16.9504 12.2138 16.8207 12.1828 16.6977C12.0283 15.944 11.7345 15.2257 11.3166 14.5797L10.4095 15.2827L11.8381 16.4528C12.1375 16.7022 12.7452 16.6705 12.8087 16.1988C12.9039 15.7243 12.9039 15.2357 12.8087 14.7612L11.8381 15.3281L12.6862 16.0854C13.2441 16.5843 14.0468 15.768 13.5071 15.2646L12.6635 14.5072C12.5722 14.4185 12.4545 14.3619 12.3281 14.3462C12.2018 14.3304 12.0738 14.3563 11.9635 14.4199C11.8532 14.4835 11.7667 14.5814 11.717 14.6986C11.6674 14.8159 11.6573 14.9461 11.6884 15.0695C11.7542 15.3377 11.7542 15.6177 11.6884 15.8859L12.659 15.6319L11.2304 14.4618C10.7768 14.0718 9.93779 14.5661 10.3233 15.1648C10.6856 15.7264 10.9395 16.351 11.0716 17.0061L12.0422 16.4437L9.81988 14.3212C9.71927 14.2258 9.5878 14.1695 9.44929 14.1626C9.31077 14.1557 9.17436 14.1986 9.06474 14.2835C8.95512 14.3685 8.87957 14.4899 8.85171 14.6257C8.82384 14.7616 8.8455 14.9029 8.91283 15.0242C9.4369 15.992 10.0295 16.9211 10.6861 17.8043C10.9537 17.5413 11.2168 17.2737 11.4798 17.0107C10.5066 16.2355 9.62685 15.3497 8.8584 14.3711C8.43209 13.8722 7.58399 14.5253 7.95135 15.0741C8.67095 16.1807 9.34523 17.3145 9.97412 18.4756L10.7678 17.6819C10.1579 17.2151 9.60395 16.6794 9.11695 16.0854C8.66342 15.5457 7.93777 16.2306 8.20989 16.7884C8.51375 17.4279 8.82215 18.0628 9.11695 18.7023L10.024 17.9993L8.88564 16.8655C8.77625 16.7593 8.62945 16.7004 8.47696 16.7015C8.32447 16.7026 8.17854 16.7637 8.07071 16.8715C7.96288 16.9793 7.9018 17.1252 7.90069 17.2777C7.89958 17.4302 7.95849 17.577 8.06473 17.6864H8.03301Z" fill="#22292F"/>
<path d="M58.7738 4.33463C59.3282 4.97099 59.7093 5.73949 59.8804 6.566C60.03 7.25537 60.9552 7.01953 61.0187 6.41181C61.123 5.50475 61.2228 4.57048 61.3272 3.64981L60.2432 3.94007L61.6038 6.63403C61.8759 7.17827 62.6651 6.88347 62.6877 6.33924C62.724 5.37473 62.7633 4.40721 62.8057 3.43665L61.7217 3.73145C62.148 4.6899 62.5713 5.64684 62.9916 6.60228C63.2274 7.13744 64.1027 6.8608 64.0755 6.31203L63.9259 3.13732L62.7875 3.29152L63.6174 6.05805C63.656 6.19199 63.7414 6.30758 63.8582 6.38372C63.9749 6.45987 64.1152 6.49148 64.2533 6.47277C64.3914 6.45406 64.5182 6.38628 64.6104 6.28183C64.7027 6.17737 64.7543 6.04322 64.7558 5.90385L64.6787 2.58402L63.5993 2.87881C64.172 4.12773 64.5645 5.45165 64.7649 6.81091C64.8783 7.54563 65.9985 7.23268 65.8851 6.5025C65.657 5.04483 65.225 3.6265 64.6016 2.28923C64.3522 1.75406 63.5041 2.03525 63.5177 2.58402C63.5449 3.69063 63.5676 4.79724 63.5948 5.90385L64.7377 5.74966L63.9077 2.98313C63.7263 2.3754 62.7331 2.46156 62.7648 3.13732L62.9145 6.31203L63.9939 6.01724L62.7285 3.14639C62.4791 2.58401 61.6673 2.9151 61.6446 3.43665C61.6053 4.40721 61.566 5.37473 61.5267 6.33924L62.6061 6.04897L61.2455 3.35502C60.9598 2.78811 60.2205 3.13279 60.1616 3.64981C60.0618 4.55687 59.9605 5.47753 59.8577 6.41181L61.0006 6.25761C60.7762 5.23713 60.2919 4.29196 59.5946 3.51375C59.1048 2.95137 58.284 3.77226 58.7738 4.33463Z" fill="#22292F"/>
<path d="M65.7626 24.2945C65.579 25.1738 65.5149 26.0739 65.5722 26.9703L66.7105 26.8116C66.4168 25.891 66.3286 24.9173 66.452 23.9589L65.3681 24.2491C65.7423 24.8342 65.9666 25.5024 66.0212 26.1948C66.0711 26.798 67.0643 27.0474 67.1641 26.349C67.2865 25.4827 67.4135 24.621 67.5359 23.7548H66.4157C66.5972 24.3036 66.7785 24.8569 66.9554 25.4057C66.9967 25.5373 67.0833 25.6502 67.1998 25.7242C67.3162 25.7983 67.4551 25.8287 67.5919 25.8103C67.7286 25.7918 67.8545 25.7256 67.9472 25.6234C68.0399 25.5211 68.0934 25.3894 68.0983 25.2515L68.0711 21.6232L66.9872 21.918C67.489 22.6855 67.8542 23.534 68.0666 24.426L69.1823 24.1176C69.0807 23.8981 69.0319 23.6578 69.0398 23.4161C69.0477 23.1743 69.112 22.9378 69.2276 22.7253L68.3205 22.8432C68.6591 23.2407 68.8788 23.7256 68.9542 24.2422C69.0296 24.7589 68.9577 25.2863 68.7469 25.7639C68.4748 26.4578 69.595 26.7617 69.8671 26.0723C70.1313 25.3952 70.2034 24.6583 70.0753 23.9429C69.9473 23.2274 69.6241 22.5612 69.1415 22.0178C69.0783 21.9567 69.0021 21.9107 68.9187 21.8831C68.8352 21.8555 68.7467 21.8471 68.6595 21.8584C68.5724 21.8697 68.4889 21.9005 68.4153 21.9485C68.3417 21.9966 68.2799 22.0605 68.2344 22.1357C68.0353 22.4802 67.9174 22.8656 67.8899 23.2625C67.8624 23.6594 67.926 24.0574 68.0757 24.426C68.1254 24.5634 68.2252 24.677 68.355 24.7441C68.4849 24.8112 68.6352 24.8268 68.7761 24.7879C68.917 24.7489 69.038 24.6583 69.115 24.534C69.192 24.4098 69.2192 24.2611 69.1913 24.1176C68.9574 23.1261 68.5539 22.1825 67.9986 21.3284C67.9316 21.2225 67.8325 21.1409 67.7157 21.0955C67.5989 21.0502 67.4707 21.0435 67.3498 21.0765C67.229 21.1095 67.1219 21.1805 67.0443 21.2789C66.9668 21.3773 66.9229 21.498 66.9192 21.6232L66.9464 25.2515L68.0847 25.0972C67.9078 24.5485 67.7264 23.9952 67.545 23.4419C67.3636 22.8886 66.5155 22.8341 66.4248 23.4419C66.3024 24.3081 66.1753 25.1743 66.0529 26.0406L67.1958 26.1948C67.1317 25.2978 66.8516 24.4295 66.3795 23.6641C66.3126 23.5582 66.2134 23.4765 66.0966 23.4312C65.9798 23.3858 65.8515 23.3792 65.7307 23.4122C65.6098 23.4452 65.5028 23.5161 65.4253 23.6146C65.3477 23.713 65.3039 23.8337 65.3001 23.9589C65.173 25.0264 65.275 26.1087 65.5994 27.1336C65.7853 27.7323 66.7831 27.6552 66.7423 26.9794C66.6876 26.1871 66.738 25.3911 66.892 24.612C67.0371 23.8818 65.9168 23.5688 65.7717 24.3036L65.7626 24.2945Z" fill="#22292F"/>
<path d="M11.3664 35.3241C11.8683 36.7784 12.3732 38.2343 12.8812 39.6916C13.0807 40.2766 14.0604 40.2268 14.0196 39.5374L13.7338 34.5486L12.6499 34.8388C13.2244 36.1994 13.7989 37.56 14.3733 38.9206C14.6137 39.483 15.4437 39.1474 15.4573 38.6258L15.557 35.1109L14.5638 35.5237C14.9013 35.8338 15.1409 36.2358 15.2531 36.6802C15.4164 37.297 16.455 37.1926 16.396 36.526C16.3306 36.0233 16.4028 35.5124 16.6047 35.0474L15.6976 35.1654C16.5962 35.8897 17.2502 36.873 17.5707 37.9818C17.6116 38.1303 17.7098 38.2566 17.8438 38.3327C17.9777 38.4088 18.1365 38.4286 18.285 38.3877C18.4336 38.3468 18.5598 38.2486 18.6359 38.1146C18.712 37.9807 18.7318 37.8219 18.6909 37.6734C18.3229 36.3683 17.5649 35.2068 16.5185 34.3445C16.2645 34.1313 15.7702 34.086 15.6114 34.4579C15.3055 35.1017 15.1786 35.8161 15.2441 36.526L16.3824 36.3718C16.2272 35.7288 15.8847 35.1464 15.3983 34.6982C15.3155 34.6204 15.212 34.5681 15.1002 34.5477C14.9884 34.5274 14.8731 34.5397 14.7682 34.5833C14.6632 34.6269 14.5732 34.6999 14.5087 34.7935C14.4443 34.8871 14.4083 34.9974 14.405 35.1109C14.3733 36.2811 14.337 37.4557 14.3053 38.6258L15.3847 38.331C14.8132 36.9704 14.2387 35.6098 13.6613 34.2492C13.4345 33.7141 12.5502 33.9953 12.5819 34.544L12.8676 39.5329L14.0105 39.3741C13.5025 37.9228 12.9976 36.4685 12.4957 35.0112C12.2508 34.3082 11.1351 34.6121 11.3755 35.3196L11.3664 35.3241Z" fill="#22292F"/>
<path d="M1.00329 30.1857C1.2021 31.1719 1.6379 32.0949 2.27314 32.8751C2.67678 33.3967 3.31173 32.798 3.2437 32.3127C2.99497 30.5726 2.64826 28.848 2.20515 27.147L1.14386 27.6005L2.45002 30.2265C2.51694 30.3324 2.61608 30.414 2.73287 30.4594C2.84966 30.5047 2.97796 30.5114 3.09882 30.4784C3.21967 30.4454 3.32673 30.3745 3.40425 30.276C3.48177 30.1776 3.52564 30.0569 3.52942 29.9317C3.48407 28.9853 3.43572 28.0374 3.38432 27.0881L2.39106 27.4962L3.20744 28.4713C3.54305 28.875 4.19156 28.5303 4.1961 28.0631L4.23696 25.7728L3.2437 26.181C3.5849 26.6085 4.06761 26.9001 4.60478 27.0032C5.14196 27.1063 5.6983 27.0142 6.17354 26.7434C6.84022 26.4032 6.25515 25.3828 5.58847 25.7365C5.33114 25.865 5.03646 25.8976 4.75725 25.8287C4.47804 25.7597 4.23254 25.5936 4.06461 25.3601C3.73354 24.9519 3.08043 25.3057 3.0759 25.7728L3.03509 28.0631L4.0283 27.6504L3.21198 26.6753C3.12975 26.5969 3.02645 26.5442 2.91474 26.5235C2.80302 26.5028 2.68769 26.5151 2.58284 26.5589C2.47799 26.6026 2.38815 26.676 2.32429 26.7699C2.26044 26.8639 2.22534 26.9745 2.22326 27.0881C2.27315 28.0359 2.31853 28.9838 2.36842 29.9317L3.45236 29.6369L2.14619 27.0155C1.84686 26.4123 0.921625 26.8386 1.0849 27.469C1.528 29.17 1.87477 30.8947 2.12349 32.6347L3.09405 32.0678C2.5994 31.4312 2.26637 30.6843 2.12349 29.8909C1.97383 29.1561 0.853626 29.4691 1.00329 30.1993V30.1857Z" fill="#22292F"/>
<path d="M5.26187 45.6916C5.8934 46.8281 6.39248 48.0333 6.74941 49.2835L7.86967 48.9751C7.51502 47.8879 7.38536 46.7398 7.48866 45.6009L6.40472 45.8911L8.31866 49.5194C8.57717 50.0092 9.45702 49.8096 9.39806 49.2291C9.29375 48.1044 9.18486 46.9841 9.07602 45.8594L7.99207 46.1542L9.35266 48.118C9.41876 48.2259 9.51813 48.3095 9.63579 48.3563C9.75344 48.403 9.88307 48.4103 10.0052 48.377C10.1274 48.3438 10.2355 48.2719 10.3133 48.172C10.391 48.0721 10.4343 47.9497 10.4366 47.8232C10.5092 47.1111 10.5772 46.3991 10.6498 45.6916L9.5069 45.8458C9.97263 47.118 10.5604 48.3422 11.2621 49.5012C11.5387 49.9548 12.4004 49.8096 12.3415 49.211L12.0421 46.1406C11.9696 45.4013 10.804 45.3923 10.8811 46.1406L11.1804 49.211L12.2643 48.9162C11.6085 47.845 11.0601 46.7118 10.6271 45.5329C10.5834 45.4039 10.496 45.2943 10.3801 45.2228C10.2643 45.1514 10.1271 45.1226 9.99227 45.1414C9.85743 45.1602 9.7334 45.2254 9.64149 45.3258C9.54958 45.4263 9.49554 45.5556 9.48874 45.6916L9.2756 47.8232L10.355 47.5329C9.90147 46.8753 9.44794 46.2222 8.99441 45.5691C8.69962 45.1428 7.85151 45.2381 7.91047 45.8594C8.01932 46.9841 8.12815 48.127 8.23246 49.2291L9.3164 48.9343L7.40252 45.3288C7.11226 44.78 6.36847 45.0884 6.32312 45.6236C6.21271 46.867 6.35618 48.1199 6.74487 49.3062C6.78577 49.4548 6.88401 49.581 7.01797 49.6571C7.15193 49.7332 7.31066 49.753 7.45921 49.7121C7.60776 49.6712 7.73398 49.573 7.8101 49.439C7.88622 49.3051 7.90602 49.1464 7.86513 48.9978C7.48113 47.6506 6.94235 46.3524 6.25962 45.1292C5.89679 44.4761 4.89905 45.0612 5.25733 45.7143L5.26187 45.6916Z" fill="#22292F"/>
<path d="M2.23679 30.9428C2.25887 31.1094 2.31891 31.2687 2.41229 31.4085C2.50567 31.5482 2.62987 31.6646 2.77536 31.7487C2.92084 31.8329 3.08368 31.8825 3.25136 31.8937C3.41904 31.905 3.58707 31.8776 3.74248 31.8136C3.86359 31.778 3.97021 31.7047 4.04686 31.6044C4.12352 31.5041 4.16625 31.382 4.16883 31.2558C4.10546 30.5341 4.22723 29.8083 4.52259 29.1468C4.71761 28.7296 5.12579 28.4121 5.26185 27.9813C5.58839 26.9744 5.5158 25.6547 5.62918 24.6025C5.71081 23.8587 4.54527 23.8678 4.46817 24.6025C4.33211 25.8633 4.36838 27.106 3.7153 28.1944C3.17898 29.1214 2.93105 30.1872 3.00323 31.2558C3.14836 31.0698 3.28898 30.8839 3.42957 30.6934L3.35699 30.6344C3.22547 29.8997 2.10527 30.2126 2.23679 30.9428Z" fill="#22292F"/>
<path d="M6.23704 12.5027C7.66867 21.7051 9.69412 30.8053 12.3007 39.7462C12.3588 39.9387 12.4886 40.1016 12.6633 40.2012C12.838 40.3008 13.0443 40.3295 13.2396 40.2814L58.2841 29.891C61.876 29.0611 65.7129 28.5304 69.2141 27.3694C71.6042 26.5848 71.1371 24.8115 70.8242 22.6754C69.7462 15.3463 68.1965 8.09441 66.1846 0.964934C66.1275 0.771976 65.9977 0.608756 65.8225 0.509743C65.6473 0.410731 65.4405 0.383687 65.2458 0.434312C55.8668 2.8743 46.4969 5.35056 37.1043 7.74973C27.8613 10.1081 18.5096 12.1898 8.98545 12.598C8.00583 12.6433 8.0013 14.1672 8.98545 14.1264C18.3916 13.7273 27.5801 11.7408 36.7006 9.43233C46.3699 6.98327 56.0164 4.42083 65.6721 1.90828L64.7333 1.37311C66.5199 7.67836 67.9447 14.0805 69.0009 20.5483C69.2277 21.9633 70.3343 25.0519 68.8468 25.8954C67.4862 26.68 65.1596 26.7481 63.5995 27.1064L53.4857 29.4284L12.8132 38.8074L13.7521 39.3426C11.1496 30.3994 9.12566 21.2979 7.69291 12.0945C7.53871 11.1285 6.06927 11.5412 6.21894 12.5027H6.23704Z" fill="#22292F"/>
<path d="M7.57037 21.1874C6.06012 22.158 4.54533 23.124 3.03508 24.1036C2.18698 24.6524 1.19372 25.1694 0.622269 26.0448C-0.561442 27.8589 0.495281 30.2172 1.0758 32.0585L7.0896 51.8778C7.12233 51.9893 7.17989 52.092 7.2579 52.1781C7.33591 52.2643 7.43235 52.3317 7.54008 52.3753C7.64782 52.4189 7.76403 52.4377 7.88001 52.43C7.99599 52.4224 8.10876 52.3887 8.20986 52.3313C19.5541 46.2026 31.1327 40.5426 42.9456 35.3512C43.8527 34.9566 43.0681 33.6414 42.1747 34.0314C30.3829 39.2198 18.8043 44.8813 7.43883 51.0161L8.55903 51.4696C6.98982 46.2994 5.42212 41.1291 3.85593 35.9589C3.17111 33.6912 2.13254 31.3374 1.77879 29.0063C1.4069 26.5663 2.95346 25.9813 4.58617 24.9245L8.36404 22.4982C9.18493 21.9675 8.42302 20.6432 7.59307 21.1784L7.57037 21.1874Z" fill="#22292F"/>
<path d="M39.3357 15.0693C36.7687 14.7019 33.2448 15.7904 33.7981 19.0649C33.8818 19.6085 34.126 20.1148 34.4993 20.5188C34.8726 20.9228 35.358 21.2062 35.8934 21.3325C36.3061 21.455 36.7733 21.3869 37.186 21.5185C38.3425 21.8904 39.5715 23.0968 38.796 24.5118C37.5624 26.7794 34.5555 25.1966 34.3514 23.0741C34.2562 22.1035 32.7323 22.0944 32.823 23.0741C33.1631 26.5935 37.5942 28.8838 39.9525 25.505C40.4074 24.8291 40.6165 24.0176 40.5447 23.206C40.4728 22.3945 40.1245 21.6322 39.5579 21.0468C38.9788 20.4584 38.215 20.087 37.3946 19.9946C36.2698 19.7769 35.0952 19.5093 35.4172 18.0082C35.7392 16.507 37.6849 16.3573 38.9321 16.5342C39.8935 16.6748 40.2927 15.2008 39.3357 15.0647V15.0693Z" fill="#22292F"/>
<path d="M34.891 12.8519C35.6046 18.2942 36.1745 23.7472 36.6009 29.2107C36.678 30.1812 38.2018 30.1903 38.1247 29.2107C37.6984 23.7411 37.1284 18.2882 36.4149 12.8519C36.2924 11.8904 34.764 11.8768 34.891 12.8519Z" fill="#22292F"/>
<path d="M9.12596 19.5232C10.5609 19.2753 11.8505 18.4979 12.7399 17.3449C13.6292 16.1918 14.0535 14.7471 13.9289 13.2962C13.8745 12.7565 13.0218 12.752 13.0808 13.2962C13.204 14.561 12.8399 15.8252 12.0628 16.8307C11.2857 17.8362 10.1542 18.5072 8.8992 18.7068C8.3595 18.793 8.5908 19.6139 9.12596 19.5232Z" fill="#22292F"/>
<path d="M11.938 33.9271C14.7045 32.2671 16.5639 36.3852 16.6864 38.4986C16.7181 39.0383 17.5662 39.0429 17.5345 38.4986C17.3757 35.7321 14.8995 31.1605 11.5116 33.1923C11.4243 33.2537 11.3632 33.3455 11.3403 33.4497C11.3174 33.5539 11.3344 33.6629 11.3879 33.7552C11.4415 33.8475 11.5276 33.9163 11.6295 33.9481C11.7313 33.9799 11.8414 33.9724 11.938 33.9271Z" fill="#22292F"/>
<path d="M65.1369 26.8069C64.2752 23.5959 67.5543 21.7455 69.9535 20.5482C70.4433 20.3078 70.0124 19.5731 69.5271 19.818C66.7424 21.1786 63.3455 23.3918 64.3161 27.0292C64.3516 27.1309 64.4244 27.2154 64.5197 27.2656C64.6151 27.3159 64.7259 27.3282 64.8299 27.3C64.934 27.2719 65.0234 27.2053 65.0804 27.1139C65.1374 27.0224 65.1575 26.9127 65.1369 26.8069Z" fill="#22292F"/>
<path d="M58.4019 2.69273C58.4545 3.63059 58.7463 4.53939 59.2495 5.33252C59.7528 6.12566 60.4508 6.77672 61.277 7.22368C62.1031 7.67064 63.03 7.89862 63.9692 7.88588C64.9085 7.87315 65.8288 7.62013 66.6426 7.15093C67.1233 6.89242 66.6925 6.16223 66.1891 6.42074C65.5047 6.81833 64.7301 7.03425 63.9387 7.04797C63.1474 7.06169 62.3657 6.87277 61.668 6.49915C60.9703 6.12553 60.3798 5.57963 59.9526 4.91339C59.5254 4.24714 59.2758 3.48269 59.2274 2.69273C59.182 2.15303 58.3203 2.1485 58.3793 2.69273H58.4019Z" fill="#22292F"/>
<path d="M1.94207 33.0338C5.81974 31.6324 6.77215 27.401 5.45238 23.809C5.26643 23.3011 4.44558 23.5233 4.63606 24.0358C5.77442 27.147 5.18026 30.9657 1.7153 32.1993C1.20735 32.3853 1.42504 33.2016 1.94207 33.0157V33.0338Z" fill="#22292F"/>
<path d="M6.22798 46.4039C6.7766 46.0732 7.39785 45.8819 8.03745 45.8466C8.67705 45.8114 9.31552 45.9333 9.89713 46.2018C10.4787 46.4702 10.9858 46.877 11.3739 47.3866C11.7621 47.8961 12.0196 48.493 12.1239 49.125C12.2327 49.6602 13.0309 49.4334 12.9402 48.8983C12.7984 48.1401 12.475 47.4276 11.9978 46.8216C11.5206 46.2157 10.9037 45.7343 10.1999 45.4187C9.49605 45.1032 8.72629 44.9628 7.9564 45.0095C7.1865 45.0563 6.43942 45.2888 5.77899 45.6873C5.69169 45.7486 5.63049 45.8404 5.60759 45.9446C5.58469 46.0488 5.60171 46.1578 5.65526 46.2501C5.7088 46.3424 5.79497 46.4112 5.8968 46.443C5.99864 46.4749 6.10872 46.4674 6.20528 46.422L6.22798 46.4039Z" fill="#22292F"/>
<path d="M3.83785 31.5871C4.44255 33.7549 5.00037 35.9349 5.51134 38.127C5.76532 39.2245 6.00719 40.3251 6.23698 41.4287C6.432 42.3357 7.03521 43.8777 6.82659 44.812L7.45246 44.558C7.48421 44.6714 7.52048 44.7802 7.55677 44.8891C7.72457 44.3675 6.90371 44.1453 6.73591 44.6669L6.70867 44.7621C6.68795 44.8486 6.69573 44.9395 6.73087 45.0212C6.76601 45.103 6.82667 45.1711 6.90371 45.2156L7.02163 45.27C7.07889 45.298 7.14136 45.3136 7.20505 45.3158C7.26874 45.318 7.33218 45.3068 7.39123 45.2828C7.45028 45.2588 7.50365 45.2227 7.5478 45.1767C7.59195 45.1308 7.62593 45.076 7.6475 45.0161C8.02393 43.3017 6.98533 40.8073 6.6089 39.1202C6.02385 36.5124 5.36621 33.9182 4.65417 31.3422C4.6241 31.2339 4.55229 31.142 4.45447 31.0868C4.35666 31.0315 4.24091 31.0173 4.13265 31.0474C4.0244 31.0774 3.9325 31.1493 3.87721 31.2471C3.82193 31.3449 3.80778 31.4607 3.83785 31.5689V31.5871Z" fill="#22292F"/>
<path d="M63.5995 8.3163C64.756 12.9423 64.8059 17.7905 65.79 22.4619C65.8853 22.9154 66.4703 22.8111 66.6064 22.4619C66.6892 22.3251 66.733 22.1683 66.733 22.0083C66.733 21.8484 66.6892 21.6916 66.6064 21.5548C66.4204 21.0469 65.6041 21.2691 65.79 21.7816C65.79 21.9312 65.79 22.0764 65.79 22.2351H66.6064C65.6268 17.5683 65.5723 12.711 64.4158 8.08953C64.2843 7.5589 63.468 7.78567 63.5995 8.3163Z" fill="#22292F"/>
<path d="M10.328 18.9836C11.3318 23.8213 12.192 28.6725 12.9086 33.5374C12.9857 34.0725 13.8156 33.8458 13.7249 33.3106C13.0083 28.4367 12.1482 23.5854 11.1443 18.7569C11.0355 18.2217 10.2373 18.4485 10.328 18.9836Z" fill="#22292F"/>
<path d="M15.9878 36.0587C32.4192 33.4827 48.5875 28.7115 64.7241 24.7205C65.2547 24.5889 65.028 23.7726 64.4973 23.9041C48.3608 27.8816 32.197 32.6527 15.7611 35.2424C15.2259 35.3285 15.4527 36.1494 15.9878 36.0587Z" fill="#22292F"/>
<path d="M12.1829 16.3713L37.6757 11.836C45.3857 10.4754 53.1638 9.1466 60.3522 5.91747C60.8465 5.69524 60.4157 4.96505 59.8987 5.18728C52.4971 8.50258 44.4787 9.7634 36.5238 11.1739L11.9107 15.5504C11.3756 15.6457 11.6023 16.4575 12.1375 16.3668L12.1829 16.3713Z" fill="#22292F"/>
<path d="M5.77903 26.3398C7.05 26.2383 8.29102 25.9015 9.43898 25.3466C9.9288 25.1062 9.49794 24.3761 8.98546 24.6119C7.97271 25.1022 6.87784 25.4006 5.75633 25.4917C5.21663 25.5371 5.2121 26.3988 5.75633 26.3398H5.77903Z" fill="#22292F"/>
<path d="M11.4481 46.9299C17.4708 43.0216 23.8722 39.7304 30.5552 37.1065C31.0586 36.9069 30.8409 36.086 30.333 36.2856C23.579 38.936 17.108 42.2573 11.0172 46.1998C10.5637 46.4945 10.9854 47.2293 11.4707 46.9299H11.4481Z" fill="#22292F"/>
</g>
<defs>
<clipPath id="clip0_596_1796">
<rect width="71" height="52.0243" fill="white" transform="translate(0.0871582 0.406921)"/>
</clipPath>
</defs>
</svg>
