<svg width="481" height="362" viewBox="0 0 481 362" fill="none" xmlns="http://www.w3.org/2000/svg">
<g opacity="0.1">
<mask id="mask0_596_2550" style="mask-type:alpha" maskUnits="userSpaceOnUse" x="0" y="0" width="481" height="362">
<rect x="479.52" y="1.34961" width="360" height="479" transform="rotate(90 479.52 1.34961)" fill="url(#paint0_linear_596_2550)" stroke="#6246E5"/>
</mask>
<g mask="url(#mask0_596_2550)">
<path d="M236.526 454.77C167.193 454.77 110.986 398.484 110.986 329.052C110.986 259.619 167.193 203.334 236.526 203.334C305.858 203.334 362.065 259.619 362.065 329.052C362.065 398.484 305.858 454.77 236.526 454.77Z" stroke="#6246E5"/>
<path d="M249.793 459.752C172.217 459.752 109.328 396.775 109.328 319.087C109.328 241.399 172.217 178.422 249.793 178.422C327.369 178.422 390.258 241.399 390.258 319.087C390.258 396.775 327.369 459.752 249.793 459.752Z" stroke="#6246E5"/>
<path d="M260.572 464.734C175.669 464.734 106.84 395.809 106.84 310.784C106.84 225.758 175.669 156.833 260.573 156.833C345.476 156.833 414.305 225.758 414.305 310.784C414.305 395.809 345.476 464.734 260.572 464.734Z" stroke="#6246E5"/>
<path d="M276.328 468.056C185.013 468.056 110.986 393.926 110.986 302.48C110.986 211.034 185.013 136.904 276.328 136.904C367.643 136.904 441.669 211.034 441.669 302.48C441.669 393.926 367.643 468.056 276.328 468.056Z" stroke="#6246E5"/>
<path d="M291.668 471.377C194.171 471.377 115.132 392.228 115.132 294.591C115.132 196.954 194.171 117.805 291.668 117.805C389.165 117.805 468.204 196.954 468.204 294.591C468.204 392.228 389.165 471.377 291.668 471.377Z" stroke="#6246E5"/>
<path d="M309.081 475.529C201.967 475.529 115.132 388.573 115.132 281.305C115.132 174.037 201.967 87.081 309.081 87.081C416.196 87.0811 503.03 174.037 503.03 281.305C503.03 388.573 416.196 475.529 309.081 475.529Z" stroke="#6246E5"/>
</g>
</g>
<defs>
<linearGradient id="paint0_linear_596_2550" x1="736.056" y1="14.3165" x2="487.725" y2="484.915" gradientUnits="userSpaceOnUse">
<stop stop-color="#747DEF"/>
<stop offset="1" stop-color="#5E3BE1"/>
</linearGradient>
</defs>
</svg>
