<svg width="265" height="353" viewBox="0 0 265 353" fill="none" xmlns="http://www.w3.org/2000/svg">
<g opacity="0.1">
<mask id="mask0_596_2541" style="mask-type:alpha" maskUnits="userSpaceOnUse" x="0" y="0" width="265" height="353">
<path d="M0.520264 1.34961H240.02C252.999 1.34961 263.52 11.8709 263.52 24.8496V351.871H50.0203C22.6822 351.871 0.520264 329.709 0.520264 302.371V1.34961Z" fill="url(#paint0_linear_596_2541)" stroke="#6246E5"/>
</mask>
<g mask="url(#mask0_596_2541)">
<path d="M330.839 179.17C330.839 229.871 289.737 270.973 239.035 270.973C188.334 270.973 147.232 229.871 147.232 179.17C147.232 128.468 188.334 87.3662 239.035 87.3662C289.737 87.3662 330.839 128.468 330.839 179.17Z" stroke="#6246E5"/>
<circle cx="231.748" cy="169.453" r="102.734" stroke="#6246E5"/>
<path d="M338.126 161.559C338.126 223.664 287.78 274.009 225.676 274.009C163.571 274.009 113.226 223.664 113.226 161.559C113.226 99.4546 163.571 49.1089 225.676 49.1089C287.78 49.1089 338.126 99.4546 338.126 161.559Z" stroke="#6246E5"/>
<path d="M340.555 150.021C340.555 216.821 286.403 270.973 219.603 270.973C152.803 270.973 98.6514 216.821 98.6514 150.021C98.6514 83.2212 152.803 29.0693 219.603 29.0693C286.403 29.0693 340.555 83.2212 340.555 150.021Z" stroke="#6246E5"/>
<path d="M342.984 138.787C342.984 210.114 285.161 267.937 213.834 267.937C142.507 267.937 84.6843 210.114 84.6843 138.787C84.6843 67.4595 142.507 9.63721 213.834 9.63721C285.161 9.63721 342.984 67.4595 342.984 138.787Z" stroke="#6246E5"/>
<path d="M346.02 126.034C346.02 204.405 282.489 267.937 204.118 267.937C125.748 267.937 62.2159 204.405 62.2159 126.034C62.2159 47.6641 125.748 -15.8677 204.118 -15.8677C282.489 -15.8677 346.02 47.6641 346.02 126.034Z" stroke="#6246E5"/>
</g>
</g>
<defs>
<linearGradient id="paint0_linear_596_2541" x1="187.259" y1="10.7119" x2="5.25262" y2="355.136" gradientUnits="userSpaceOnUse">
<stop stop-color="#747DEF"/>
<stop offset="1" stop-color="#5E3BE1"/>
</linearGradient>
</defs>
</svg>
