<svg width="37" height="43" viewBox="0 0 37 43" fill="none" xmlns="http://www.w3.org/2000/svg">
<path fill-rule="evenodd" clip-rule="evenodd" d="M8.40725 0.985767C8.78964 0.611515 9.40961 0.611515 9.792 0.985767L11.9574 3.10506C13.5814 2.18806 15.4659 1.66341 17.4755 1.66341H18.8579C20.8692 1.66341 22.7551 2.18891 24.38 3.10728L26.5476 0.985767C26.93 0.611515 27.55 0.611515 27.9324 0.985767C28.3148 1.36002 28.3148 1.9668 27.9324 2.34106L26.0051 4.22732C28.398 6.2127 29.9167 9.17623 29.9167 12.4869C29.9167 12.8605 29.6073 13.1634 29.2255 13.1634H7.10789C6.72617 13.1634 6.41672 12.8605 6.41672 12.4869C6.41672 9.17468 7.9369 6.20992 10.3317 4.22453L8.40725 2.34106C8.02486 1.9668 8.02486 1.36002 8.40725 0.985767ZM15.2292 7.89258C15.2292 8.68649 14.5716 9.33008 13.7605 9.33008C12.9493 9.33008 12.2917 8.68649 12.2917 7.89258C12.2917 7.09867 12.9493 6.45508 13.7605 6.45508C14.5716 6.45508 15.2292 7.09867 15.2292 7.89258ZM22.5214 9.33008C23.3326 9.33008 23.9902 8.68649 23.9902 7.89258C23.9902 7.09867 23.3326 6.45508 22.5214 6.45508C21.7103 6.45508 21.0527 7.09867 21.0527 7.89258C21.0527 8.68649 21.7103 9.33008 22.5214 9.33008Z" fill="white"/>
<path d="M2.50005 14.9792C1.41849 14.9792 0.541718 15.8373 0.541718 16.8958V28.3958C0.541718 29.4544 1.41849 30.3125 2.50005 30.3125C3.58161 30.3125 4.45838 29.4544 4.45838 28.3958V16.8958C4.45838 15.8373 3.58161 14.9792 2.50005 14.9792Z" fill="white"/>
<path d="M8.37505 14.9792C7.29349 14.9792 6.41672 15.8373 6.41672 16.8958V34.1458C6.41672 35.2044 7.29349 36.0625 8.37505 36.0625H27.9584C29.0399 36.0625 29.9167 35.2044 29.9167 34.1458V16.8958C29.9167 15.8373 29.0399 14.9792 27.9584 14.9792H8.37505Z" fill="white"/>
<path d="M32.2873 16.8958C32.2873 15.8373 33.1641 14.9792 34.2456 14.9792C35.3272 14.9792 36.204 15.8373 36.204 16.8958V28.3958C36.204 29.4544 35.3272 30.3125 34.2456 30.3125C33.1641 30.3125 32.2873 29.4544 32.2873 28.3958V16.8958Z" fill="white"/>
<path d="M9.92894 38.0801C9.61153 38.0801 9.35422 38.3319 9.35422 38.6426V39.0384C9.35422 40.8909 10.8886 42.3926 12.7813 42.3926C14.674 42.3926 16.2084 40.8909 16.2084 39.0384V38.6426C16.2084 38.3319 15.9511 38.0801 15.6337 38.0801H9.92894Z" fill="white"/>
<path d="M20.125 38.6426C20.125 38.3319 20.3824 38.0801 20.6998 38.0801H26.4045C26.7219 38.0801 26.9792 38.3319 26.9792 38.6426V39.0384C26.9792 40.8909 25.4449 42.3926 23.5521 42.3926C21.6594 42.3926 20.125 40.8909 20.125 39.0384V38.6426Z" fill="white"/>
</svg>
