<svg width="17" height="14" viewBox="0 0 17 14" fill="none" xmlns="http://www.w3.org/2000/svg">
<path d="M16.0203 2.32318C15.4253 2.58418 14.7913 2.75718 14.1303 2.84118C14.8103 2.43518 15.3293 1.79718 15.5733 1.02818C14.9393 1.40618 14.2393 1.67318 13.4933 1.82218C12.8913 1.18118 12.0333 0.78418 11.0973 0.78418C9.28126 0.78418 7.81926 2.25818 7.81926 4.06518C7.81926 4.32518 7.84126 4.57518 7.89526 4.81318C5.16826 4.68018 2.75526 3.37318 1.13426 1.38218C0.851264 1.87318 0.685264 2.43518 0.685264 3.04018C0.685264 4.17618 1.27026 5.18318 2.14226 5.76618C1.61526 5.75618 1.09826 5.60318 0.660264 5.36218C0.660264 5.37218 0.660264 5.38518 0.660264 5.39818C0.660264 6.99218 1.79726 8.31618 3.28826 8.62118C3.02126 8.69418 2.73026 8.72918 2.42826 8.72918C2.21826 8.72918 2.00626 8.71718 1.80726 8.67318C2.23226 9.97218 3.43826 10.9272 4.87226 10.9582C3.75626 11.8312 2.33926 12.3572 0.805264 12.3572C0.536264 12.3572 0.278264 12.3452 0.0202637 12.3122C1.47326 13.2492 3.19526 13.7842 5.05226 13.7842C11.0883 13.7842 14.3883 8.78418 14.3883 4.45018C14.3883 4.30518 14.3833 4.16518 14.3763 4.02618C15.0273 3.56418 15.5743 2.98718 16.0203 2.32318Z" fill="#22292F"/>
</svg>
