<svg width="33" height="35" viewBox="0 0 33 35" fill="none" xmlns="http://www.w3.org/2000/svg">
<path d="M32.4469 7.66879C32.425 5.32113 30.9817 3.51841 28.6618 2.99606C25.2203 2.22038 21.7698 1.48004 18.3253 0.714183C17.4288 0.517809 16.5323 0.345001 15.603 0.547267C11.9384 1.35044 8.27972 2.18208 4.60713 2.94402C2.26133 3.43495 0.577931 5.3987 0.647657 7.87007C0.704435 9.85149 0.671559 11.8359 0.655622 13.8183C0.6357 16.4742 1.04112 19.0605 1.98542 21.5476C4.30332 27.6509 8.52874 31.9603 14.6159 34.5083C15.9367 35.0601 17.2336 35.0444 18.5494 34.5014C22.6394 32.8145 25.9673 30.1949 28.4855 26.5993C30.7061 23.4533 32.0461 19.7858 32.3702 15.9666C32.5077 14.426 32.421 12.8835 32.4539 11.612C32.4489 10.1166 32.4579 8.8922 32.4469 7.66879ZM24.013 14.3121C23.005 15.1173 22.1334 16.0883 21.204 16.9887C19.6554 18.4897 18.1072 19.9916 16.5592 21.4945C16.2186 21.8254 15.8361 22.0463 15.3809 22.0365C15.1633 22.0453 14.9463 22.009 14.7439 21.93C14.5414 21.8511 14.358 21.7311 14.2055 21.578C13.0181 20.4302 11.8268 19.2853 10.6464 18.1316C9.9681 17.4679 9.94917 16.4988 10.5817 15.8684C11.2142 15.238 12.1754 15.238 12.8727 15.8979C13.6238 16.6107 14.3718 17.3275 15.101 18.058C15.3002 18.2543 15.3998 18.2377 15.588 18.058C17.6626 16.0536 19.7434 14.0572 21.8306 12.0686C22.486 11.4421 23.3954 11.4117 24.0479 11.9517C24.788 12.5595 24.6953 13.7682 24.013 14.3121Z" fill="#FEFEFE"/>
</svg>
