<svg width="36" height="35" viewBox="0 0 36 35" fill="none" xmlns="http://www.w3.org/2000/svg">
<path d="M35.8376 15.5426C34.7487 7.8258 28.5733 1.92214 20.5213 0.896076C20.1503 0.848001 19.9925 0.883714 20.0024 1.30815C20.0351 2.60893 20.0124 3.91109 20.0166 5.21188C20.0166 5.61433 19.9541 5.99619 19.6968 6.32722C19.495 6.59105 19.2113 6.7857 18.8869 6.88281C18.5626 6.97992 18.2147 6.97441 17.8939 6.86709C17.573 6.75977 17.296 6.55624 17.1033 6.28618C16.9105 6.01611 16.8121 5.69362 16.8223 5.36572C16.8043 3.99213 16.8043 2.62221 16.8223 1.25595C16.8223 0.935909 16.7512 0.843885 16.41 0.883719C14.9145 1.07877 13.4417 1.37683 12.0514 1.94687C5.69494 4.55118 1.99877 9.1536 0.962897 15.7541C0.907454 16.1044 0.962892 16.228 1.36663 16.2198C2.72994 16.195 4.09611 16.2101 5.46085 16.2101C6.10341 16.2101 6.64361 16.4107 6.99475 16.9615C7.65579 17.9958 6.91941 19.2691 5.62007 19.2966C4.19847 19.3241 2.77686 19.3117 1.3652 19.2966C1.02971 19.2966 0.87617 19.3488 0.954359 19.7087C1.09652 20.3446 1.15766 20.9943 1.3183 21.6234C3.1152 28.7015 8.91534 33.6876 16.4072 34.6299C16.7498 34.6738 16.8337 34.6079 16.8337 34.281C16.8166 32.9459 16.8337 31.6107 16.8251 30.2742C16.8251 29.733 16.9758 29.2564 17.4322 28.913C17.6567 28.7282 17.9322 28.6107 18.2248 28.5748C18.5175 28.539 18.8146 28.5863 19.0798 28.7111C19.7081 28.9858 20.0152 29.4817 20.0209 30.1383C20.0313 31.5256 20.0313 32.9129 20.0209 34.3002C20.0209 34.5859 20.0721 34.6848 20.4047 34.6354C27.8682 33.5475 32.8011 29.5353 35.2591 22.6564C35.5931 21.721 35.6855 20.7333 35.9343 19.7718V19.2622C34.3066 19.3337 32.6789 19.3158 31.0511 19.2732C30.2721 19.2526 29.6764 18.607 29.6295 17.8626C29.5986 17.5008 29.7045 17.1404 29.9274 16.8482C30.1504 16.5561 30.4753 16.3518 30.8421 16.2733C31.0845 16.2266 31.3314 16.2045 31.5785 16.2074C33.0314 16.1937 34.4829 16.1882 35.9343 16.1799V15.7678C35.8938 15.6963 35.8614 15.6208 35.8376 15.5426V15.5426ZM26.3627 18.0865C26.2049 18.8035 25.6121 19.2828 24.7989 19.2966C23.737 19.3144 22.6665 19.2966 21.6103 19.2966C20.6009 19.2966 19.5916 19.3034 18.5822 19.2966C17.4634 19.287 16.828 18.6867 16.8209 17.6126C16.8095 15.6447 16.8095 13.6759 16.8209 11.7062C16.8209 10.7227 17.5317 10.0153 18.4443 10.0345C19.357 10.0537 20.0081 10.7323 20.0081 11.7034C20.0223 13.055 20.0252 14.408 20.0081 15.7596C20.0081 16.1209 20.1105 16.2184 20.4801 16.2129C21.8789 16.1923 23.2792 16.1937 24.6781 16.2129C25.8395 16.228 26.5845 17.0755 26.3627 18.0865V18.0865Z" fill="#FEFEFE"/>
</svg>
